%TF.GenerationSoftware,KiCad,Pcbnew,(6.0.5)*%
%TF.CreationDate,2022-05-14T14:58:19-07:00*%
%TF.ProjectId,li-ion-horn,6c692d69-6f6e-42d6-986f-726e2e6b6963,rev?*%
%TF.SameCoordinates,Original*%
%TF.FileFunction,Copper,L1,Top*%
%TF.FilePolarity,Positive*%
%FSLAX46Y46*%
G04 Gerber Fmt 4.6, Leading zero omitted, Abs format (unit mm)*
G04 Created by KiCad (PCBNEW (6.0.5)) date 2022-05-14 14:58:19*
%MOMM*%
%LPD*%
G01*
G04 APERTURE LIST*
G04 Aperture macros list*
%AMRoundRect*
0 Rectangle with rounded corners*
0 $1 Rounding radius*
0 $2 $3 $4 $5 $6 $7 $8 $9 X,Y pos of 4 corners*
0 Add a 4 corners polygon primitive as box body*
4,1,4,$2,$3,$4,$5,$6,$7,$8,$9,$2,$3,0*
0 Add four circle primitives for the rounded corners*
1,1,$1+$1,$2,$3*
1,1,$1+$1,$4,$5*
1,1,$1+$1,$6,$7*
1,1,$1+$1,$8,$9*
0 Add four rect primitives between the rounded corners*
20,1,$1+$1,$2,$3,$4,$5,0*
20,1,$1+$1,$4,$5,$6,$7,0*
20,1,$1+$1,$6,$7,$8,$9,0*
20,1,$1+$1,$8,$9,$2,$3,0*%
G04 Aperture macros list end*
%TA.AperFunction,ComponentPad*%
%ADD10R,1.700000X1.700000*%
%TD*%
%TA.AperFunction,ComponentPad*%
%ADD11O,1.700000X1.700000*%
%TD*%
%TA.AperFunction,SMDPad,CuDef*%
%ADD12R,6.350000X7.340000*%
%TD*%
%TA.AperFunction,ComponentPad*%
%ADD13C,2.780000*%
%TD*%
%TA.AperFunction,ComponentPad*%
%ADD14C,1.400000*%
%TD*%
%TA.AperFunction,ComponentPad*%
%ADD15O,1.400000X1.400000*%
%TD*%
%TA.AperFunction,ComponentPad*%
%ADD16R,1.905000X2.000000*%
%TD*%
%TA.AperFunction,ComponentPad*%
%ADD17O,1.905000X2.000000*%
%TD*%
%TA.AperFunction,ComponentPad*%
%ADD18RoundRect,1.500000X-1.500000X1.500000X-1.500000X-1.500000X1.500000X-1.500000X1.500000X1.500000X0*%
%TD*%
%TA.AperFunction,ComponentPad*%
%ADD19C,6.000000*%
%TD*%
%TA.AperFunction,ComponentPad*%
%ADD20R,3.716000X3.716000*%
%TD*%
%TA.AperFunction,ComponentPad*%
%ADD21C,3.716000*%
%TD*%
%TA.AperFunction,ComponentPad*%
%ADD22O,2.400000X1.200000*%
%TD*%
%TA.AperFunction,Conductor*%
%ADD23C,0.250000*%
%TD*%
%TA.AperFunction,Conductor*%
%ADD24C,3.000000*%
%TD*%
%TA.AperFunction,Conductor*%
%ADD25C,2.000000*%
%TD*%
G04 APERTURE END LIST*
D10*
%TO.P,SW1,1,A*%
%TO.N,14.8VDC*%
X170180000Y-68580000D03*
D11*
%TO.P,SW1,2,B*%
%TO.N,HORN_SW*%
X172720000Y-68580000D03*
%TD*%
D12*
%TO.P,BT4,1,+*%
%TO.N,3.7VDC*%
X152400000Y-140930000D03*
%TO.P,BT4,2,-*%
%TO.N,Net-(BT4-Pad2)*%
X152400000Y-62270000D03*
%TD*%
D10*
%TO.P,J1,1,Pin_1*%
%TO.N,GND*%
X55200000Y-85115000D03*
D11*
%TO.P,J1,2,Pin_2*%
%TO.N,3.7VDC*%
X55200000Y-87655000D03*
%TO.P,J1,3,Pin_3*%
%TO.N,7.4VDC*%
X55200000Y-90195000D03*
%TO.P,J1,4,Pin_4*%
%TO.N,11.1VDC*%
X55200000Y-92735000D03*
%TO.P,J1,5,Pin_5*%
%TO.N,14.8VDC*%
X55200000Y-95275000D03*
%TO.P,J1,6,Pin_6*%
%TO.N,unconnected-(J1-Pad6)*%
X55200000Y-97815000D03*
%TD*%
D12*
%TO.P,BT1,1,+*%
%TO.N,14.8VDC*%
X76200000Y-140930000D03*
%TO.P,BT1,2,-*%
%TO.N,11.1VDC*%
X76200000Y-62270000D03*
%TD*%
D13*
%TO.P,F1,1*%
%TO.N,Net-(BT4-Pad2)*%
X172720000Y-127000000D03*
X169320000Y-127000000D03*
%TO.P,F1,2*%
%TO.N,GND*%
X172720000Y-136920000D03*
X169320000Y-136920000D03*
%TD*%
D14*
%TO.P,R2,1*%
%TO.N,Net-(Q1-Pad1)*%
X171400000Y-77470000D03*
D15*
%TO.P,R2,2*%
%TO.N,GND*%
X168860000Y-77470000D03*
%TD*%
D12*
%TO.P,BT2,1,+*%
%TO.N,11.1VDC*%
X101600000Y-140930000D03*
%TO.P,BT2,2,-*%
%TO.N,7.4VDC*%
X101600000Y-62270000D03*
%TD*%
D14*
%TO.P,R1,1*%
%TO.N,HORN_SW*%
X171450000Y-73025000D03*
D15*
%TO.P,R1,2*%
%TO.N,Net-(Q1-Pad1)*%
X168910000Y-73025000D03*
%TD*%
D16*
%TO.P,Q1,1,G*%
%TO.N,Net-(Q1-Pad1)*%
X172720000Y-99990000D03*
D17*
%TO.P,Q1,2,D*%
%TO.N,HORN_RET*%
X170180000Y-99990000D03*
%TO.P,Q1,3,S*%
%TO.N,GND*%
X167640000Y-99990000D03*
%TD*%
D18*
%TO.P,J3,1,Pin_1*%
%TO.N,14.8VDC*%
X170180000Y-85300000D03*
D19*
%TO.P,J3,2,Pin_2*%
%TO.N,HORN_RET*%
X170180000Y-92500000D03*
%TD*%
D20*
%TO.P,J2,1,Pin_1*%
%TO.N,GND*%
X61880000Y-117900000D03*
D21*
%TO.P,J2,2,Pin_2*%
%TO.N,14.8VDC*%
X61880000Y-110700000D03*
D22*
%TO.P,J2,S1*%
%TO.N,N/C*%
X55880000Y-121050000D03*
%TO.P,J2,S2*%
X55880000Y-107550000D03*
%TD*%
D12*
%TO.P,BT3,1,+*%
%TO.N,7.4VDC*%
X127000000Y-140930000D03*
%TO.P,BT3,2,-*%
%TO.N,3.7VDC*%
X127000000Y-62270000D03*
%TD*%
D23*
%TO.N,11.1VDC*%
X76200000Y-113735000D02*
X76200000Y-115530000D01*
D24*
X82252500Y-121582500D02*
X84475000Y-123805000D01*
X76200000Y-62270000D02*
X76200000Y-115530000D01*
D23*
X55200000Y-92735000D02*
X76200000Y-113735000D01*
D24*
X84475000Y-123805000D02*
X101600000Y-140930000D01*
X76200000Y-115530000D02*
X82252500Y-121582500D01*
D23*
%TO.N,7.4VDC*%
X58420000Y-86975000D02*
X58420000Y-63500000D01*
X55200000Y-90195000D02*
X58420000Y-86975000D01*
X66040000Y-55880000D02*
X96520000Y-55880000D01*
X101600000Y-60960000D02*
X101600000Y-62270000D01*
X96520000Y-55880000D02*
X101600000Y-60960000D01*
D24*
X101600000Y-115530000D02*
X127000000Y-140930000D01*
X101600000Y-62270000D02*
X101600000Y-115530000D01*
D23*
X58420000Y-63500000D02*
X66040000Y-55880000D01*
%TO.N,3.7VDC*%
X55200000Y-87655000D02*
X56374511Y-86480489D01*
X56374511Y-86480489D02*
X56374511Y-63130509D01*
X56374511Y-63130509D02*
X64074540Y-55430480D01*
X120160480Y-55430480D02*
X127000000Y-62270000D01*
D24*
X127000000Y-62270000D02*
X127000000Y-115530000D01*
X152400000Y-140930000D02*
X127000000Y-115530000D01*
D23*
X64074540Y-55430480D02*
X120160480Y-55430480D01*
D25*
%TO.N,HORN_RET*%
X170180000Y-99990000D02*
X170180000Y-92500000D01*
D23*
%TO.N,Net-(Q1-Pad1)*%
X168910000Y-73025000D02*
X168910000Y-74980000D01*
X175260000Y-97450000D02*
X172720000Y-99990000D01*
X171400000Y-77470000D02*
X175210000Y-81280000D01*
X175260000Y-81280000D02*
X175260000Y-97450000D01*
X175210000Y-81280000D02*
X175260000Y-81280000D01*
X168910000Y-74980000D02*
X171400000Y-77470000D01*
%TO.N,HORN_SW*%
X171450000Y-73025000D02*
X172720000Y-71755000D01*
X172720000Y-71755000D02*
X172720000Y-68580000D01*
D24*
%TO.N,Net-(BT4-Pad2)*%
X152400000Y-62270000D02*
X152400000Y-110080000D01*
X152400000Y-110080000D02*
X169320000Y-127000000D01*
X172720000Y-127000000D02*
X169320000Y-127000000D01*
%TD*%
%TA.AperFunction,Conductor*%
%TO.N,14.8VDC*%
G36*
X175230018Y-51310000D02*
G01*
X175244851Y-51312310D01*
X175244855Y-51312310D01*
X175253724Y-51313691D01*
X175262626Y-51312527D01*
X175262629Y-51312527D01*
X175270012Y-51311561D01*
X175294591Y-51310767D01*
X175321442Y-51312527D01*
X175516922Y-51325340D01*
X175533262Y-51327491D01*
X175655478Y-51351801D01*
X175777696Y-51376112D01*
X175793606Y-51380375D01*
X176029600Y-51460484D01*
X176044826Y-51466791D01*
X176268342Y-51577016D01*
X176282616Y-51585257D01*
X176489829Y-51723713D01*
X176502905Y-51733746D01*
X176690278Y-51898068D01*
X176701932Y-51909722D01*
X176866254Y-52097095D01*
X176876287Y-52110171D01*
X177014743Y-52317384D01*
X177022984Y-52331658D01*
X177133209Y-52555174D01*
X177139515Y-52570398D01*
X177219625Y-52806394D01*
X177223889Y-52822307D01*
X177272509Y-53066738D01*
X177274660Y-53083078D01*
X177288763Y-53298236D01*
X177287733Y-53321350D01*
X177287690Y-53324854D01*
X177286309Y-53333724D01*
X177287473Y-53342626D01*
X177287473Y-53342628D01*
X177290436Y-53365283D01*
X177291500Y-53381621D01*
X177291500Y-149810633D01*
X177290000Y-149830018D01*
X177287690Y-149844851D01*
X177287690Y-149844855D01*
X177286309Y-149853724D01*
X177287473Y-149862626D01*
X177287473Y-149862629D01*
X177288439Y-149870012D01*
X177289233Y-149894591D01*
X177274660Y-150116922D01*
X177272509Y-150133262D01*
X177223889Y-150377693D01*
X177219625Y-150393606D01*
X177185312Y-150494689D01*
X177139516Y-150629600D01*
X177133209Y-150644826D01*
X177022984Y-150868342D01*
X177014743Y-150882616D01*
X176876287Y-151089829D01*
X176866254Y-151102905D01*
X176701932Y-151290278D01*
X176690278Y-151301932D01*
X176502905Y-151466254D01*
X176489829Y-151476287D01*
X176282616Y-151614743D01*
X176268342Y-151622984D01*
X176044826Y-151733209D01*
X176029602Y-151739515D01*
X175793606Y-151819625D01*
X175777696Y-151823888D01*
X175655478Y-151848199D01*
X175533262Y-151872509D01*
X175516922Y-151874660D01*
X175368134Y-151884413D01*
X175301763Y-151888763D01*
X175278650Y-151887733D01*
X175275146Y-151887690D01*
X175266276Y-151886309D01*
X175257374Y-151887473D01*
X175257372Y-151887473D01*
X175243915Y-151889233D01*
X175234714Y-151890436D01*
X175218379Y-151891500D01*
X53389367Y-151891500D01*
X53369982Y-151890000D01*
X53355149Y-151887690D01*
X53355145Y-151887690D01*
X53346276Y-151886309D01*
X53337374Y-151887473D01*
X53337371Y-151887473D01*
X53329988Y-151888439D01*
X53305409Y-151889233D01*
X53260799Y-151886309D01*
X53083078Y-151874660D01*
X53066738Y-151872509D01*
X52944522Y-151848199D01*
X52822304Y-151823888D01*
X52806394Y-151819625D01*
X52570398Y-151739515D01*
X52555174Y-151733209D01*
X52331658Y-151622984D01*
X52317384Y-151614743D01*
X52110171Y-151476287D01*
X52097095Y-151466254D01*
X51909722Y-151301932D01*
X51898068Y-151290278D01*
X51733746Y-151102905D01*
X51723713Y-151089829D01*
X51585257Y-150882616D01*
X51577016Y-150868342D01*
X51466791Y-150644826D01*
X51460484Y-150629600D01*
X51414688Y-150494689D01*
X51380375Y-150393606D01*
X51376111Y-150377693D01*
X51327491Y-150133262D01*
X51325340Y-150116922D01*
X51311476Y-149905407D01*
X51312650Y-149882232D01*
X51312334Y-149882204D01*
X51312770Y-149877344D01*
X51313576Y-149872552D01*
X51313729Y-149860000D01*
X51309773Y-149832376D01*
X51308500Y-149814514D01*
X51308500Y-144644669D01*
X72517001Y-144644669D01*
X72517371Y-144651490D01*
X72522895Y-144702352D01*
X72526521Y-144717604D01*
X72571676Y-144838054D01*
X72580214Y-144853649D01*
X72656715Y-144955724D01*
X72669276Y-144968285D01*
X72771351Y-145044786D01*
X72786946Y-145053324D01*
X72907394Y-145098478D01*
X72922649Y-145102105D01*
X72973514Y-145107631D01*
X72980328Y-145108000D01*
X75927885Y-145108000D01*
X75943124Y-145103525D01*
X75944329Y-145102135D01*
X75946000Y-145094452D01*
X75946000Y-145089884D01*
X76454000Y-145089884D01*
X76458475Y-145105123D01*
X76459865Y-145106328D01*
X76467548Y-145107999D01*
X79419669Y-145107999D01*
X79426490Y-145107629D01*
X79477352Y-145102105D01*
X79492604Y-145098479D01*
X79613054Y-145053324D01*
X79628649Y-145044786D01*
X79730724Y-144968285D01*
X79743285Y-144955724D01*
X79819786Y-144853649D01*
X79828324Y-144838054D01*
X79873478Y-144717606D01*
X79877105Y-144702351D01*
X79882631Y-144651486D01*
X79883000Y-144644672D01*
X79883000Y-141202115D01*
X79878525Y-141186876D01*
X79877135Y-141185671D01*
X79869452Y-141184000D01*
X76472115Y-141184000D01*
X76456876Y-141188475D01*
X76455671Y-141189865D01*
X76454000Y-141197548D01*
X76454000Y-145089884D01*
X75946000Y-145089884D01*
X75946000Y-141202115D01*
X75941525Y-141186876D01*
X75940135Y-141185671D01*
X75932452Y-141184000D01*
X72535116Y-141184000D01*
X72519877Y-141188475D01*
X72518672Y-141189865D01*
X72517001Y-141197548D01*
X72517001Y-144644669D01*
X51308500Y-144644669D01*
X51308500Y-140657885D01*
X72517000Y-140657885D01*
X72521475Y-140673124D01*
X72522865Y-140674329D01*
X72530548Y-140676000D01*
X75927885Y-140676000D01*
X75943124Y-140671525D01*
X75944329Y-140670135D01*
X75946000Y-140662452D01*
X75946000Y-140657885D01*
X76454000Y-140657885D01*
X76458475Y-140673124D01*
X76459865Y-140674329D01*
X76467548Y-140676000D01*
X79864884Y-140676000D01*
X79880123Y-140671525D01*
X79881328Y-140670135D01*
X79882999Y-140662452D01*
X79882999Y-137215331D01*
X79882629Y-137208510D01*
X79877105Y-137157648D01*
X79873479Y-137142396D01*
X79828324Y-137021946D01*
X79819786Y-137006351D01*
X79743285Y-136904276D01*
X79730724Y-136891715D01*
X79628649Y-136815214D01*
X79613054Y-136806676D01*
X79492606Y-136761522D01*
X79477351Y-136757895D01*
X79426486Y-136752369D01*
X79419672Y-136752000D01*
X76472115Y-136752000D01*
X76456876Y-136756475D01*
X76455671Y-136757865D01*
X76454000Y-136765548D01*
X76454000Y-140657885D01*
X75946000Y-140657885D01*
X75946000Y-136770116D01*
X75941525Y-136754877D01*
X75940135Y-136753672D01*
X75932452Y-136752001D01*
X72980331Y-136752001D01*
X72973510Y-136752371D01*
X72922648Y-136757895D01*
X72907396Y-136761521D01*
X72786946Y-136806676D01*
X72771351Y-136815214D01*
X72669276Y-136891715D01*
X72656715Y-136904276D01*
X72580214Y-137006351D01*
X72571676Y-137021946D01*
X72526522Y-137142394D01*
X72522895Y-137157649D01*
X72517369Y-137208514D01*
X72517000Y-137215328D01*
X72517000Y-140657885D01*
X51308500Y-140657885D01*
X51308500Y-137440583D01*
X66493828Y-137440583D01*
X66493941Y-137445360D01*
X66498820Y-137652369D01*
X66499935Y-137699689D01*
X66500769Y-137704394D01*
X66536636Y-137906774D01*
X66545163Y-137954890D01*
X66628473Y-138200313D01*
X66630674Y-138204549D01*
X66630676Y-138204555D01*
X66684143Y-138307482D01*
X66747947Y-138430311D01*
X66750762Y-138434165D01*
X66750765Y-138434169D01*
X66898014Y-138635726D01*
X66900837Y-138639590D01*
X66904209Y-138642980D01*
X66904211Y-138642982D01*
X67080248Y-138819945D01*
X67080253Y-138819949D01*
X67083622Y-138823336D01*
X67292099Y-138977319D01*
X67296337Y-138979549D01*
X67296339Y-138979550D01*
X67517232Y-139095768D01*
X67517239Y-139095771D01*
X67521468Y-139097996D01*
X67525984Y-139099555D01*
X67525990Y-139099558D01*
X67652565Y-139143264D01*
X67766451Y-139182590D01*
X67884193Y-139204093D01*
X68017441Y-139228429D01*
X68017445Y-139228429D01*
X68021412Y-139229154D01*
X68104342Y-139233500D01*
X68265903Y-139233500D01*
X68268282Y-139233319D01*
X68268283Y-139233319D01*
X68453664Y-139219218D01*
X68453669Y-139219217D01*
X68458431Y-139218855D01*
X68463084Y-139217776D01*
X68463087Y-139217776D01*
X68706251Y-139161413D01*
X68706250Y-139161413D01*
X68710915Y-139160332D01*
X68951642Y-139064292D01*
X69175072Y-138932944D01*
X69178783Y-138929923D01*
X69178787Y-138929920D01*
X69372351Y-138772334D01*
X69376063Y-138769312D01*
X69379272Y-138765767D01*
X69379277Y-138765762D01*
X69546774Y-138580713D01*
X69549990Y-138577160D01*
X69692851Y-138360910D01*
X69716186Y-138310294D01*
X69799352Y-138129892D01*
X69799353Y-138129889D01*
X69801358Y-138125540D01*
X69859244Y-137924332D01*
X69871694Y-137881058D01*
X69871695Y-137881053D01*
X69873015Y-137876465D01*
X69899106Y-137674200D01*
X69905561Y-137624154D01*
X69906172Y-137619417D01*
X69900844Y-137393344D01*
X69900178Y-137365091D01*
X69900178Y-137365087D01*
X69900065Y-137360311D01*
X69874371Y-137215331D01*
X69855671Y-137109814D01*
X69855670Y-137109810D01*
X69854837Y-137105110D01*
X69771527Y-136859687D01*
X69769326Y-136855451D01*
X69769324Y-136855445D01*
X69688104Y-136699090D01*
X69652053Y-136629689D01*
X69621916Y-136588436D01*
X69501986Y-136424274D01*
X69501985Y-136424273D01*
X69499163Y-136420410D01*
X69472229Y-136393334D01*
X69319752Y-136240055D01*
X69319747Y-136240051D01*
X69316378Y-136236664D01*
X69107901Y-136082681D01*
X69082740Y-136069443D01*
X68882768Y-135964232D01*
X68882761Y-135964229D01*
X68878532Y-135962004D01*
X68874016Y-135960445D01*
X68874010Y-135960442D01*
X68699357Y-135900134D01*
X68633549Y-135877410D01*
X68505422Y-135854010D01*
X68382559Y-135831571D01*
X68382555Y-135831571D01*
X68378588Y-135830846D01*
X68295658Y-135826500D01*
X68134097Y-135826500D01*
X68131718Y-135826681D01*
X68131717Y-135826681D01*
X67946336Y-135840782D01*
X67946331Y-135840783D01*
X67941569Y-135841145D01*
X67936916Y-135842224D01*
X67936913Y-135842224D01*
X67788822Y-135876550D01*
X67689085Y-135899668D01*
X67448358Y-135995708D01*
X67224928Y-136127056D01*
X67221217Y-136130077D01*
X67221213Y-136130080D01*
X67213028Y-136136744D01*
X67023937Y-136290688D01*
X67020728Y-136294233D01*
X67020723Y-136294238D01*
X66903021Y-136424274D01*
X66850010Y-136482840D01*
X66707149Y-136699090D01*
X66705148Y-136703430D01*
X66705146Y-136703434D01*
X66600648Y-136930108D01*
X66598642Y-136934460D01*
X66597318Y-136939062D01*
X66534464Y-137157540D01*
X66526985Y-137183535D01*
X66526374Y-137188270D01*
X66526373Y-137188276D01*
X66499921Y-137393344D01*
X66493828Y-137440583D01*
X51308500Y-137440583D01*
X51308500Y-120995604D01*
X54167787Y-120995604D01*
X54177567Y-121206899D01*
X54227125Y-121412534D01*
X54229607Y-121417992D01*
X54229608Y-121417996D01*
X54273053Y-121513546D01*
X54314674Y-121605087D01*
X54437054Y-121777611D01*
X54589850Y-121923881D01*
X54767548Y-122038620D01*
X54773114Y-122040863D01*
X54958168Y-122115442D01*
X54958171Y-122115443D01*
X54963737Y-122117686D01*
X55171337Y-122158228D01*
X55176899Y-122158500D01*
X56532846Y-122158500D01*
X56690566Y-122143452D01*
X56893534Y-122083908D01*
X56977111Y-122040863D01*
X57076249Y-121989804D01*
X57076252Y-121989802D01*
X57081580Y-121987058D01*
X57247920Y-121856396D01*
X57251852Y-121851865D01*
X57251855Y-121851862D01*
X57382621Y-121701167D01*
X57386552Y-121696637D01*
X57389552Y-121691451D01*
X57389555Y-121691447D01*
X57489467Y-121518742D01*
X57492473Y-121513546D01*
X57561861Y-121313729D01*
X57592213Y-121104396D01*
X57582433Y-120893101D01*
X57532875Y-120687466D01*
X57489525Y-120592122D01*
X57447806Y-120500368D01*
X57445326Y-120494913D01*
X57322946Y-120322389D01*
X57170150Y-120176119D01*
X56992452Y-120061380D01*
X56932354Y-120037160D01*
X56801832Y-119984558D01*
X56801829Y-119984557D01*
X56796263Y-119982314D01*
X56588663Y-119941772D01*
X56583101Y-119941500D01*
X55227154Y-119941500D01*
X55069434Y-119956548D01*
X54866466Y-120016092D01*
X54861139Y-120018836D01*
X54861138Y-120018836D01*
X54683751Y-120110196D01*
X54683748Y-120110198D01*
X54678420Y-120112942D01*
X54512080Y-120243604D01*
X54508148Y-120248135D01*
X54508145Y-120248138D01*
X54439474Y-120327275D01*
X54373448Y-120403363D01*
X54370448Y-120408549D01*
X54370445Y-120408553D01*
X54323312Y-120490026D01*
X54267527Y-120586454D01*
X54198139Y-120786271D01*
X54167787Y-120995604D01*
X51308500Y-120995604D01*
X51308500Y-119806134D01*
X59513500Y-119806134D01*
X59520255Y-119868316D01*
X59571385Y-120004705D01*
X59658739Y-120121261D01*
X59775295Y-120208615D01*
X59911684Y-120259745D01*
X59973866Y-120266500D01*
X63786134Y-120266500D01*
X63848316Y-120259745D01*
X63984705Y-120208615D01*
X64101261Y-120121261D01*
X64188615Y-120004705D01*
X64239745Y-119868316D01*
X64246500Y-119806134D01*
X64246500Y-115993866D01*
X64239745Y-115931684D01*
X64188615Y-115795295D01*
X64101261Y-115678739D01*
X63984705Y-115591385D01*
X63848316Y-115540255D01*
X63786134Y-115533500D01*
X59973866Y-115533500D01*
X59911684Y-115540255D01*
X59775295Y-115591385D01*
X59658739Y-115678739D01*
X59571385Y-115795295D01*
X59520255Y-115931684D01*
X59513500Y-115993866D01*
X59513500Y-119806134D01*
X51308500Y-119806134D01*
X51308500Y-107495604D01*
X54167787Y-107495604D01*
X54177567Y-107706899D01*
X54227125Y-107912534D01*
X54229607Y-107917992D01*
X54229608Y-107917996D01*
X54273053Y-108013546D01*
X54314674Y-108105087D01*
X54437054Y-108277611D01*
X54589850Y-108423881D01*
X54767548Y-108538620D01*
X54773114Y-108540863D01*
X54958168Y-108615442D01*
X54958171Y-108615443D01*
X54963737Y-108617686D01*
X55171337Y-108658228D01*
X55176899Y-108658500D01*
X56532846Y-108658500D01*
X56690566Y-108643452D01*
X56893534Y-108583908D01*
X56977111Y-108540863D01*
X57076249Y-108489804D01*
X57076252Y-108489802D01*
X57081580Y-108487058D01*
X57247920Y-108356396D01*
X57251852Y-108351865D01*
X57251855Y-108351862D01*
X57382621Y-108201167D01*
X57386552Y-108196637D01*
X57389552Y-108191451D01*
X57389555Y-108191447D01*
X57489467Y-108018742D01*
X57492473Y-108013546D01*
X57561861Y-107813729D01*
X57592213Y-107604396D01*
X57582433Y-107393101D01*
X57532875Y-107187466D01*
X57489525Y-107092122D01*
X57447806Y-107000368D01*
X57445326Y-106994913D01*
X57322946Y-106822389D01*
X57170150Y-106676119D01*
X56992452Y-106561380D01*
X56932354Y-106537160D01*
X56801832Y-106484558D01*
X56801829Y-106484557D01*
X56796263Y-106482314D01*
X56588663Y-106441772D01*
X56583101Y-106441500D01*
X55227154Y-106441500D01*
X55069434Y-106456548D01*
X54866466Y-106516092D01*
X54861139Y-106518836D01*
X54861138Y-106518836D01*
X54683751Y-106610196D01*
X54683748Y-106610198D01*
X54678420Y-106612942D01*
X54512080Y-106743604D01*
X54508148Y-106748135D01*
X54508145Y-106748138D01*
X54439474Y-106827275D01*
X54373448Y-106903363D01*
X54370448Y-106908549D01*
X54370445Y-106908553D01*
X54323312Y-106990026D01*
X54267527Y-107086454D01*
X54198139Y-107286271D01*
X54167787Y-107495604D01*
X51308500Y-107495604D01*
X51308500Y-97781695D01*
X53837251Y-97781695D01*
X53837548Y-97786848D01*
X53837548Y-97786851D01*
X53843011Y-97881590D01*
X53850110Y-98004715D01*
X53851247Y-98009761D01*
X53851248Y-98009767D01*
X53871119Y-98097939D01*
X53899222Y-98222639D01*
X53937461Y-98316811D01*
X53974425Y-98407842D01*
X53983266Y-98429616D01*
X54015979Y-98482999D01*
X54083652Y-98593431D01*
X54099987Y-98620088D01*
X54246250Y-98788938D01*
X54418126Y-98931632D01*
X54611000Y-99044338D01*
X54819692Y-99124030D01*
X54824760Y-99125061D01*
X54824763Y-99125062D01*
X54932017Y-99146883D01*
X55038597Y-99168567D01*
X55043772Y-99168757D01*
X55043774Y-99168757D01*
X55256673Y-99176564D01*
X55256677Y-99176564D01*
X55261837Y-99176753D01*
X55266957Y-99176097D01*
X55266959Y-99176097D01*
X55478288Y-99149025D01*
X55478289Y-99149025D01*
X55483416Y-99148368D01*
X55488366Y-99146883D01*
X55692429Y-99085661D01*
X55692434Y-99085659D01*
X55697384Y-99084174D01*
X55897994Y-98985896D01*
X56079860Y-98856173D01*
X56238096Y-98698489D01*
X56297594Y-98615689D01*
X56365435Y-98521277D01*
X56368453Y-98517077D01*
X56385296Y-98482999D01*
X56465136Y-98321453D01*
X56465137Y-98321451D01*
X56467430Y-98316811D01*
X56532370Y-98103069D01*
X56561529Y-97881590D01*
X56561896Y-97866581D01*
X56563074Y-97818365D01*
X56563074Y-97818361D01*
X56563156Y-97815000D01*
X56544852Y-97592361D01*
X56490431Y-97375702D01*
X56401354Y-97170840D01*
X56280014Y-96983277D01*
X56129670Y-96818051D01*
X56125619Y-96814852D01*
X56125615Y-96814848D01*
X55958414Y-96682800D01*
X55958410Y-96682798D01*
X55954359Y-96679598D01*
X55912569Y-96656529D01*
X55862598Y-96606097D01*
X55847826Y-96536654D01*
X55872942Y-96470248D01*
X55900294Y-96443641D01*
X56075328Y-96318792D01*
X56083200Y-96312139D01*
X56234052Y-96161812D01*
X56240730Y-96153965D01*
X56365003Y-95981020D01*
X56370313Y-95972183D01*
X56464670Y-95781267D01*
X56468469Y-95771672D01*
X56530377Y-95567910D01*
X56532555Y-95557837D01*
X56533986Y-95546962D01*
X56531775Y-95532778D01*
X56518617Y-95529000D01*
X53883225Y-95529000D01*
X53869694Y-95532973D01*
X53868257Y-95542966D01*
X53898565Y-95677446D01*
X53901645Y-95687275D01*
X53981770Y-95884603D01*
X53986413Y-95893794D01*
X54097694Y-96075388D01*
X54103777Y-96083699D01*
X54243213Y-96244667D01*
X54250580Y-96251883D01*
X54414434Y-96387916D01*
X54422881Y-96393831D01*
X54491969Y-96434203D01*
X54540693Y-96485842D01*
X54553764Y-96555625D01*
X54527033Y-96621396D01*
X54486584Y-96654752D01*
X54473607Y-96661507D01*
X54469474Y-96664610D01*
X54469471Y-96664612D01*
X54445247Y-96682800D01*
X54294965Y-96795635D01*
X54140629Y-96957138D01*
X54014743Y-97141680D01*
X53920688Y-97344305D01*
X53860989Y-97559570D01*
X53837251Y-97781695D01*
X51308500Y-97781695D01*
X51308500Y-92701695D01*
X53837251Y-92701695D01*
X53837548Y-92706848D01*
X53837548Y-92706851D01*
X53843011Y-92801590D01*
X53850110Y-92924715D01*
X53851247Y-92929761D01*
X53851248Y-92929767D01*
X53871119Y-93017939D01*
X53899222Y-93142639D01*
X53983266Y-93349616D01*
X54099987Y-93540088D01*
X54246250Y-93708938D01*
X54418126Y-93851632D01*
X54491955Y-93894774D01*
X54540679Y-93946412D01*
X54553750Y-94016195D01*
X54527019Y-94081967D01*
X54486562Y-94115327D01*
X54478457Y-94119546D01*
X54469738Y-94125036D01*
X54299433Y-94252905D01*
X54291726Y-94259748D01*
X54144590Y-94413717D01*
X54138104Y-94421727D01*
X54018098Y-94597649D01*
X54013000Y-94606623D01*
X53923338Y-94799783D01*
X53919775Y-94809470D01*
X53864389Y-95009183D01*
X53865912Y-95017607D01*
X53878292Y-95021000D01*
X56536459Y-95021000D01*
X56536459Y-95025775D01*
X56573133Y-95025792D01*
X56626673Y-95057577D01*
X74154595Y-112585500D01*
X74188621Y-112647812D01*
X74191500Y-112674595D01*
X74191500Y-115474105D01*
X74191327Y-115480699D01*
X74188061Y-115543029D01*
X74186902Y-115565138D01*
X74187285Y-115569515D01*
X74187285Y-115569519D01*
X74197521Y-115686514D01*
X74197693Y-115688707D01*
X74205734Y-115803703D01*
X74206189Y-115810212D01*
X74207102Y-115814507D01*
X74208246Y-115819887D01*
X74210519Y-115835100D01*
X74210998Y-115840575D01*
X74211000Y-115840588D01*
X74211383Y-115844966D01*
X74212371Y-115849245D01*
X74212372Y-115849252D01*
X74238793Y-115963695D01*
X74239268Y-115965840D01*
X74261038Y-116068253D01*
X74264591Y-116084970D01*
X74266095Y-116089102D01*
X74267978Y-116094275D01*
X74272345Y-116109019D01*
X74274572Y-116118663D01*
X74276150Y-116122775D01*
X74276151Y-116122777D01*
X74318220Y-116232371D01*
X74318990Y-116234431D01*
X74359154Y-116344782D01*
X74359158Y-116344791D01*
X74360663Y-116348926D01*
X74362730Y-116352813D01*
X74365308Y-116357662D01*
X74371683Y-116371652D01*
X74373654Y-116376786D01*
X74373659Y-116376798D01*
X74375235Y-116380902D01*
X74434336Y-116487521D01*
X74435348Y-116489388D01*
X74490470Y-116593058D01*
X74490476Y-116593067D01*
X74492536Y-116596942D01*
X74495121Y-116600499D01*
X74495124Y-116600505D01*
X74498355Y-116604953D01*
X74506620Y-116617926D01*
X74511417Y-116626579D01*
X74514066Y-116630094D01*
X74584701Y-116723831D01*
X74585999Y-116725585D01*
X74657642Y-116824192D01*
X74663398Y-116830153D01*
X74664525Y-116831320D01*
X74674510Y-116843012D01*
X74677812Y-116847393D01*
X74680464Y-116850912D01*
X74766540Y-116936988D01*
X74768082Y-116938556D01*
X74852769Y-117026252D01*
X74860530Y-117032315D01*
X74860578Y-117032353D01*
X74872100Y-117042548D01*
X84600843Y-126771291D01*
X84634869Y-126833603D01*
X84629804Y-126904418D01*
X84587257Y-126961254D01*
X84520737Y-126986065D01*
X84492039Y-126984835D01*
X84402881Y-126970714D01*
X84357854Y-126968669D01*
X84311503Y-126966564D01*
X84311484Y-126966564D01*
X84310084Y-126966500D01*
X84124736Y-126966500D01*
X83903944Y-126981165D01*
X83613090Y-127039812D01*
X83332547Y-127136410D01*
X83328804Y-127138284D01*
X83328800Y-127138286D01*
X83154179Y-127225730D01*
X83067244Y-127269264D01*
X83063779Y-127271619D01*
X82955433Y-127345251D01*
X82821842Y-127436039D01*
X82600654Y-127633804D01*
X82407564Y-127859086D01*
X82405290Y-127862588D01*
X82405289Y-127862589D01*
X82300698Y-128023646D01*
X82245965Y-128107927D01*
X82118696Y-128375954D01*
X82117417Y-128379937D01*
X82117416Y-128379940D01*
X82036740Y-128631218D01*
X82027994Y-128658458D01*
X82027253Y-128662577D01*
X81978434Y-128933905D01*
X81975452Y-128950477D01*
X81975263Y-128954644D01*
X81975262Y-128954651D01*
X81966060Y-129157290D01*
X81961992Y-129246880D01*
X81962355Y-129251028D01*
X81962355Y-129251032D01*
X81987487Y-129538293D01*
X81987488Y-129538301D01*
X81987852Y-129542459D01*
X82052577Y-129832021D01*
X82054019Y-129835941D01*
X82054021Y-129835947D01*
X82124619Y-130027827D01*
X82155029Y-130110480D01*
X82293410Y-130372942D01*
X82465288Y-130614797D01*
X82667642Y-130831796D01*
X82896918Y-131020125D01*
X83149088Y-131176477D01*
X83419722Y-131298105D01*
X83592390Y-131349580D01*
X83700065Y-131381679D01*
X83700067Y-131381679D01*
X83704064Y-131382871D01*
X83708184Y-131383524D01*
X83708186Y-131383524D01*
X83827106Y-131402359D01*
X83997119Y-131429286D01*
X84042146Y-131431331D01*
X84088497Y-131433436D01*
X84088516Y-131433436D01*
X84089916Y-131433500D01*
X84275264Y-131433500D01*
X84496056Y-131418835D01*
X84786910Y-131360188D01*
X85067453Y-131263590D01*
X85071196Y-131261716D01*
X85071200Y-131261714D01*
X85329012Y-131132611D01*
X85329014Y-131132610D01*
X85332756Y-131130736D01*
X85578158Y-130963961D01*
X85799346Y-130766196D01*
X85992436Y-130540914D01*
X85994711Y-130537411D01*
X86151763Y-130295572D01*
X86151765Y-130295569D01*
X86154035Y-130292073D01*
X86281304Y-130024046D01*
X86341696Y-129835947D01*
X86370726Y-129745530D01*
X86370727Y-129745524D01*
X86372006Y-129741542D01*
X86407091Y-129546548D01*
X86423809Y-129453632D01*
X86423810Y-129453627D01*
X86424548Y-129449523D01*
X86433751Y-129246880D01*
X86437819Y-129157290D01*
X86437819Y-129157285D01*
X86438008Y-129153120D01*
X86425438Y-129009439D01*
X86415959Y-128901100D01*
X86429948Y-128831495D01*
X86479348Y-128780502D01*
X86548474Y-128764312D01*
X86615379Y-128788064D01*
X86630575Y-128801023D01*
X93453501Y-135623949D01*
X93487527Y-135686261D01*
X93482462Y-135757076D01*
X93439915Y-135813912D01*
X93373962Y-135838681D01*
X93346336Y-135840782D01*
X93346331Y-135840783D01*
X93341569Y-135841145D01*
X93336916Y-135842224D01*
X93336913Y-135842224D01*
X93188822Y-135876550D01*
X93089085Y-135899668D01*
X92848358Y-135995708D01*
X92624928Y-136127056D01*
X92621217Y-136130077D01*
X92621213Y-136130080D01*
X92613028Y-136136744D01*
X92423937Y-136290688D01*
X92420728Y-136294233D01*
X92420723Y-136294238D01*
X92303021Y-136424274D01*
X92250010Y-136482840D01*
X92107149Y-136699090D01*
X92105148Y-136703430D01*
X92105146Y-136703434D01*
X92000648Y-136930108D01*
X91998642Y-136934460D01*
X91997318Y-136939062D01*
X91934464Y-137157540D01*
X91926985Y-137183535D01*
X91926374Y-137188270D01*
X91926373Y-137188276D01*
X91899921Y-137393344D01*
X91893828Y-137440583D01*
X91893941Y-137445360D01*
X91898820Y-137652369D01*
X91899935Y-137699689D01*
X91900769Y-137704394D01*
X91936636Y-137906774D01*
X91945163Y-137954890D01*
X92028473Y-138200313D01*
X92030674Y-138204549D01*
X92030676Y-138204555D01*
X92084143Y-138307482D01*
X92147947Y-138430311D01*
X92150762Y-138434165D01*
X92150765Y-138434169D01*
X92298014Y-138635726D01*
X92300837Y-138639590D01*
X92304209Y-138642980D01*
X92304211Y-138642982D01*
X92480248Y-138819945D01*
X92480253Y-138819949D01*
X92483622Y-138823336D01*
X92692099Y-138977319D01*
X92696337Y-138979549D01*
X92696339Y-138979550D01*
X92917232Y-139095768D01*
X92917239Y-139095771D01*
X92921468Y-139097996D01*
X92925984Y-139099555D01*
X92925990Y-139099558D01*
X93052565Y-139143264D01*
X93166451Y-139182590D01*
X93284193Y-139204093D01*
X93417441Y-139228429D01*
X93417445Y-139228429D01*
X93421412Y-139229154D01*
X93504342Y-139233500D01*
X93665903Y-139233500D01*
X93668282Y-139233319D01*
X93668283Y-139233319D01*
X93853664Y-139219218D01*
X93853669Y-139219217D01*
X93858431Y-139218855D01*
X93863084Y-139217776D01*
X93863087Y-139217776D01*
X94106251Y-139161413D01*
X94106250Y-139161413D01*
X94110915Y-139160332D01*
X94351642Y-139064292D01*
X94575072Y-138932944D01*
X94578783Y-138929923D01*
X94578787Y-138929920D01*
X94772351Y-138772334D01*
X94776063Y-138769312D01*
X94779272Y-138765767D01*
X94779277Y-138765762D01*
X94946774Y-138580713D01*
X94949990Y-138577160D01*
X95092851Y-138360910D01*
X95116186Y-138310294D01*
X95199352Y-138129892D01*
X95199353Y-138129889D01*
X95201358Y-138125540D01*
X95259244Y-137924332D01*
X95271694Y-137881058D01*
X95271695Y-137881053D01*
X95273015Y-137876465D01*
X95289692Y-137747175D01*
X95318245Y-137682174D01*
X95377407Y-137642927D01*
X95448396Y-137641896D01*
X95503752Y-137674200D01*
X97879595Y-140050043D01*
X97913621Y-140112355D01*
X97916500Y-140139138D01*
X97916500Y-144648134D01*
X97923255Y-144710316D01*
X97974385Y-144846705D01*
X98061739Y-144963261D01*
X98178295Y-145050615D01*
X98314684Y-145101745D01*
X98376866Y-145108500D01*
X104823134Y-145108500D01*
X104885316Y-145101745D01*
X105021705Y-145050615D01*
X105138261Y-144963261D01*
X105225615Y-144846705D01*
X105276745Y-144710316D01*
X105283500Y-144648134D01*
X105283500Y-137211866D01*
X105276745Y-137149684D01*
X105225615Y-137013295D01*
X105138261Y-136896739D01*
X105021705Y-136809385D01*
X104885316Y-136758255D01*
X104823134Y-136751500D01*
X100314138Y-136751500D01*
X100246017Y-136731498D01*
X100225043Y-136714595D01*
X78245405Y-114734957D01*
X78211379Y-114672645D01*
X78208500Y-114645862D01*
X78208500Y-74046880D01*
X91361992Y-74046880D01*
X91362355Y-74051028D01*
X91362355Y-74051032D01*
X91387487Y-74338293D01*
X91387488Y-74338301D01*
X91387852Y-74342459D01*
X91452577Y-74632021D01*
X91454019Y-74635941D01*
X91454021Y-74635947D01*
X91553582Y-74906548D01*
X91555029Y-74910480D01*
X91556980Y-74914180D01*
X91556982Y-74914185D01*
X91675407Y-75138797D01*
X91693410Y-75172942D01*
X91865288Y-75414797D01*
X92067642Y-75631796D01*
X92296918Y-75820125D01*
X92549088Y-75976477D01*
X92819722Y-76098105D01*
X92878841Y-76115729D01*
X93100065Y-76181679D01*
X93100067Y-76181679D01*
X93104064Y-76182871D01*
X93108184Y-76183524D01*
X93108186Y-76183524D01*
X93227106Y-76202359D01*
X93397119Y-76229286D01*
X93442146Y-76231331D01*
X93488497Y-76233436D01*
X93488516Y-76233436D01*
X93489916Y-76233500D01*
X93675264Y-76233500D01*
X93896056Y-76218835D01*
X94186910Y-76160188D01*
X94467453Y-76063590D01*
X94471196Y-76061716D01*
X94471200Y-76061714D01*
X94729012Y-75932611D01*
X94729014Y-75932610D01*
X94732756Y-75930736D01*
X94978158Y-75763961D01*
X95199346Y-75566196D01*
X95392436Y-75340914D01*
X95422880Y-75294034D01*
X95551763Y-75095572D01*
X95551765Y-75095569D01*
X95554035Y-75092073D01*
X95559821Y-75079889D01*
X95603459Y-74987986D01*
X95681304Y-74824046D01*
X95741696Y-74635947D01*
X95770726Y-74545530D01*
X95770727Y-74545524D01*
X95772006Y-74541542D01*
X95807091Y-74346548D01*
X95823809Y-74253632D01*
X95823810Y-74253627D01*
X95824548Y-74249523D01*
X95825882Y-74220165D01*
X95837819Y-73957290D01*
X95837819Y-73957285D01*
X95838008Y-73953120D01*
X95837645Y-73948968D01*
X95812513Y-73661707D01*
X95812512Y-73661699D01*
X95812148Y-73657541D01*
X95747423Y-73367979D01*
X95731824Y-73325580D01*
X95646418Y-73093452D01*
X95646416Y-73093448D01*
X95644971Y-73089520D01*
X95610954Y-73025000D01*
X95508543Y-72830762D01*
X95508542Y-72830761D01*
X95506590Y-72827058D01*
X95334712Y-72585203D01*
X95132358Y-72368204D01*
X94988132Y-72249736D01*
X94906307Y-72182524D01*
X94903082Y-72179875D01*
X94650912Y-72023523D01*
X94380278Y-71901895D01*
X94181749Y-71842711D01*
X94099935Y-71818321D01*
X94099933Y-71818321D01*
X94095936Y-71817129D01*
X94091816Y-71816476D01*
X94091814Y-71816476D01*
X93956628Y-71795065D01*
X93802881Y-71770714D01*
X93757854Y-71768669D01*
X93711503Y-71766564D01*
X93711484Y-71766564D01*
X93710084Y-71766500D01*
X93524736Y-71766500D01*
X93303944Y-71781165D01*
X93013090Y-71839812D01*
X92732547Y-71936410D01*
X92728804Y-71938284D01*
X92728800Y-71938286D01*
X92526735Y-72039473D01*
X92467244Y-72069264D01*
X92377401Y-72130321D01*
X92307874Y-72177572D01*
X92221842Y-72236039D01*
X92000654Y-72433804D01*
X91807564Y-72659086D01*
X91805290Y-72662588D01*
X91805289Y-72662589D01*
X91700698Y-72823646D01*
X91645965Y-72907927D01*
X91518696Y-73175954D01*
X91517417Y-73179937D01*
X91517416Y-73179940D01*
X91432350Y-73444892D01*
X91427994Y-73458458D01*
X91427253Y-73462577D01*
X91392174Y-73657541D01*
X91375452Y-73750477D01*
X91375263Y-73754644D01*
X91375262Y-73754651D01*
X91363253Y-74019102D01*
X91361992Y-74046880D01*
X78208500Y-74046880D01*
X78208500Y-66574500D01*
X78228502Y-66506379D01*
X78282158Y-66459886D01*
X78334500Y-66448500D01*
X79423134Y-66448500D01*
X79485316Y-66441745D01*
X79621705Y-66390615D01*
X79738261Y-66303261D01*
X79825615Y-66186705D01*
X79876745Y-66050316D01*
X79883500Y-65988134D01*
X79883500Y-58551866D01*
X79876745Y-58489684D01*
X79825615Y-58353295D01*
X79738261Y-58236739D01*
X79621705Y-58149385D01*
X79485316Y-58098255D01*
X79423134Y-58091500D01*
X72976866Y-58091500D01*
X72914684Y-58098255D01*
X72778295Y-58149385D01*
X72661739Y-58236739D01*
X72574385Y-58353295D01*
X72523255Y-58489684D01*
X72516500Y-58551866D01*
X72516500Y-65988134D01*
X72523255Y-66050316D01*
X72574385Y-66186705D01*
X72661739Y-66303261D01*
X72778295Y-66390615D01*
X72914684Y-66441745D01*
X72976866Y-66448500D01*
X74065500Y-66448500D01*
X74133621Y-66468502D01*
X74180114Y-66522158D01*
X74191500Y-66574500D01*
X74191500Y-110526406D01*
X74171498Y-110594527D01*
X74117842Y-110641020D01*
X74047568Y-110651124D01*
X73982988Y-110621630D01*
X73976405Y-110615501D01*
X56551218Y-93190313D01*
X56517192Y-93128001D01*
X56519755Y-93064589D01*
X56530865Y-93028022D01*
X56532370Y-93023069D01*
X56561529Y-92801590D01*
X56563156Y-92735000D01*
X56544852Y-92512361D01*
X56490431Y-92295702D01*
X56401354Y-92090840D01*
X56280014Y-91903277D01*
X56129670Y-91738051D01*
X56125619Y-91734852D01*
X56125615Y-91734848D01*
X55958414Y-91602800D01*
X55958410Y-91602798D01*
X55954359Y-91599598D01*
X55913053Y-91576796D01*
X55863084Y-91526364D01*
X55848312Y-91456921D01*
X55873428Y-91390516D01*
X55900780Y-91363909D01*
X55944603Y-91332650D01*
X56079860Y-91236173D01*
X56238096Y-91078489D01*
X56297594Y-90995689D01*
X56365435Y-90901277D01*
X56368453Y-90897077D01*
X56467430Y-90696811D01*
X56532370Y-90483069D01*
X56561529Y-90261590D01*
X56563156Y-90195000D01*
X56544852Y-89972361D01*
X56516821Y-89860765D01*
X56519625Y-89789823D01*
X56549930Y-89740974D01*
X58812247Y-87478657D01*
X58820537Y-87471113D01*
X58827018Y-87467000D01*
X58873659Y-87417332D01*
X58876413Y-87414491D01*
X58896135Y-87394769D01*
X58898612Y-87391576D01*
X58906317Y-87382555D01*
X58931159Y-87356100D01*
X58936586Y-87350321D01*
X58940407Y-87343371D01*
X58946346Y-87332568D01*
X58957202Y-87316041D01*
X58964757Y-87306302D01*
X58964758Y-87306300D01*
X58969614Y-87300040D01*
X58987174Y-87259460D01*
X58992391Y-87248812D01*
X59009875Y-87217009D01*
X59009876Y-87217007D01*
X59013695Y-87210060D01*
X59018733Y-87190437D01*
X59025137Y-87171734D01*
X59030033Y-87160420D01*
X59030033Y-87160419D01*
X59033181Y-87153145D01*
X59034420Y-87145322D01*
X59034423Y-87145312D01*
X59040099Y-87109476D01*
X59042505Y-87097856D01*
X59051528Y-87062711D01*
X59051528Y-87062710D01*
X59053500Y-87055030D01*
X59053500Y-87034776D01*
X59055051Y-87015065D01*
X59056980Y-87002886D01*
X59058220Y-86995057D01*
X59056956Y-86981680D01*
X59054059Y-86951039D01*
X59053500Y-86939181D01*
X59053500Y-74046880D01*
X65961992Y-74046880D01*
X65962355Y-74051028D01*
X65962355Y-74051032D01*
X65987487Y-74338293D01*
X65987488Y-74338301D01*
X65987852Y-74342459D01*
X66052577Y-74632021D01*
X66054019Y-74635941D01*
X66054021Y-74635947D01*
X66153582Y-74906548D01*
X66155029Y-74910480D01*
X66156980Y-74914180D01*
X66156982Y-74914185D01*
X66275407Y-75138797D01*
X66293410Y-75172942D01*
X66465288Y-75414797D01*
X66667642Y-75631796D01*
X66896918Y-75820125D01*
X67149088Y-75976477D01*
X67419722Y-76098105D01*
X67478841Y-76115729D01*
X67700065Y-76181679D01*
X67700067Y-76181679D01*
X67704064Y-76182871D01*
X67708184Y-76183524D01*
X67708186Y-76183524D01*
X67827106Y-76202359D01*
X67997119Y-76229286D01*
X68042146Y-76231331D01*
X68088497Y-76233436D01*
X68088516Y-76233436D01*
X68089916Y-76233500D01*
X68275264Y-76233500D01*
X68496056Y-76218835D01*
X68786910Y-76160188D01*
X69067453Y-76063590D01*
X69071196Y-76061716D01*
X69071200Y-76061714D01*
X69329012Y-75932611D01*
X69329014Y-75932610D01*
X69332756Y-75930736D01*
X69578158Y-75763961D01*
X69799346Y-75566196D01*
X69992436Y-75340914D01*
X70022880Y-75294034D01*
X70151763Y-75095572D01*
X70151765Y-75095569D01*
X70154035Y-75092073D01*
X70159821Y-75079889D01*
X70203459Y-74987986D01*
X70281304Y-74824046D01*
X70341696Y-74635947D01*
X70370726Y-74545530D01*
X70370727Y-74545524D01*
X70372006Y-74541542D01*
X70407091Y-74346548D01*
X70423809Y-74253632D01*
X70423810Y-74253627D01*
X70424548Y-74249523D01*
X70425882Y-74220165D01*
X70437819Y-73957290D01*
X70437819Y-73957285D01*
X70438008Y-73953120D01*
X70437645Y-73948968D01*
X70412513Y-73661707D01*
X70412512Y-73661699D01*
X70412148Y-73657541D01*
X70347423Y-73367979D01*
X70331824Y-73325580D01*
X70246418Y-73093452D01*
X70246416Y-73093448D01*
X70244971Y-73089520D01*
X70210954Y-73025000D01*
X70108543Y-72830762D01*
X70108542Y-72830761D01*
X70106590Y-72827058D01*
X69934712Y-72585203D01*
X69732358Y-72368204D01*
X69588132Y-72249736D01*
X69506307Y-72182524D01*
X69503082Y-72179875D01*
X69250912Y-72023523D01*
X68980278Y-71901895D01*
X68781749Y-71842711D01*
X68699935Y-71818321D01*
X68699933Y-71818321D01*
X68695936Y-71817129D01*
X68691816Y-71816476D01*
X68691814Y-71816476D01*
X68556628Y-71795065D01*
X68402881Y-71770714D01*
X68357854Y-71768669D01*
X68311503Y-71766564D01*
X68311484Y-71766564D01*
X68310084Y-71766500D01*
X68124736Y-71766500D01*
X67903944Y-71781165D01*
X67613090Y-71839812D01*
X67332547Y-71936410D01*
X67328804Y-71938284D01*
X67328800Y-71938286D01*
X67126735Y-72039473D01*
X67067244Y-72069264D01*
X66977401Y-72130321D01*
X66907874Y-72177572D01*
X66821842Y-72236039D01*
X66600654Y-72433804D01*
X66407564Y-72659086D01*
X66405290Y-72662588D01*
X66405289Y-72662589D01*
X66300698Y-72823646D01*
X66245965Y-72907927D01*
X66118696Y-73175954D01*
X66117417Y-73179937D01*
X66117416Y-73179940D01*
X66032350Y-73444892D01*
X66027994Y-73458458D01*
X66027253Y-73462577D01*
X65992174Y-73657541D01*
X65975452Y-73750477D01*
X65975263Y-73754644D01*
X65975262Y-73754651D01*
X65963253Y-74019102D01*
X65961992Y-74046880D01*
X59053500Y-74046880D01*
X59053500Y-63814594D01*
X59073502Y-63746473D01*
X59090405Y-63725499D01*
X66265499Y-56550405D01*
X66327811Y-56516379D01*
X66354594Y-56513500D01*
X96205406Y-56513500D01*
X96273527Y-56533502D01*
X96294501Y-56550405D01*
X97952067Y-58207971D01*
X97986093Y-58270283D01*
X97981028Y-58341098D01*
X97977116Y-58349651D01*
X97974385Y-58353295D01*
X97923255Y-58489684D01*
X97916500Y-58551866D01*
X97916500Y-65988134D01*
X97923255Y-66050316D01*
X97974385Y-66186705D01*
X98061739Y-66303261D01*
X98178295Y-66390615D01*
X98314684Y-66441745D01*
X98376866Y-66448500D01*
X99465500Y-66448500D01*
X99533621Y-66468502D01*
X99580114Y-66522158D01*
X99591500Y-66574500D01*
X99591500Y-115474105D01*
X99591327Y-115480699D01*
X99588061Y-115543029D01*
X99586902Y-115565138D01*
X99587285Y-115569515D01*
X99587285Y-115569519D01*
X99597521Y-115686514D01*
X99597693Y-115688707D01*
X99605734Y-115803703D01*
X99606189Y-115810212D01*
X99607102Y-115814507D01*
X99608246Y-115819887D01*
X99610519Y-115835100D01*
X99610998Y-115840575D01*
X99611000Y-115840588D01*
X99611383Y-115844966D01*
X99612371Y-115849245D01*
X99612372Y-115849252D01*
X99638793Y-115963695D01*
X99639268Y-115965840D01*
X99661038Y-116068253D01*
X99664591Y-116084970D01*
X99666095Y-116089102D01*
X99667978Y-116094275D01*
X99672345Y-116109019D01*
X99674572Y-116118663D01*
X99676150Y-116122775D01*
X99676151Y-116122777D01*
X99718220Y-116232371D01*
X99718990Y-116234431D01*
X99759154Y-116344782D01*
X99759158Y-116344791D01*
X99760663Y-116348926D01*
X99762730Y-116352813D01*
X99765308Y-116357662D01*
X99771683Y-116371652D01*
X99773654Y-116376786D01*
X99773659Y-116376798D01*
X99775235Y-116380902D01*
X99834336Y-116487521D01*
X99835348Y-116489388D01*
X99890470Y-116593058D01*
X99890476Y-116593067D01*
X99892536Y-116596942D01*
X99895121Y-116600499D01*
X99895124Y-116600505D01*
X99898355Y-116604953D01*
X99906620Y-116617926D01*
X99911417Y-116626579D01*
X99914066Y-116630094D01*
X99984701Y-116723831D01*
X99985999Y-116725585D01*
X100057642Y-116824192D01*
X100063398Y-116830153D01*
X100064525Y-116831320D01*
X100074510Y-116843012D01*
X100077812Y-116847393D01*
X100080464Y-116850912D01*
X100166540Y-116936988D01*
X100168082Y-116938556D01*
X100252769Y-117026252D01*
X100260530Y-117032315D01*
X100260578Y-117032353D01*
X100272100Y-117042548D01*
X110000843Y-126771291D01*
X110034869Y-126833603D01*
X110029804Y-126904418D01*
X109987257Y-126961254D01*
X109920737Y-126986065D01*
X109892039Y-126984835D01*
X109802881Y-126970714D01*
X109757854Y-126968669D01*
X109711503Y-126966564D01*
X109711484Y-126966564D01*
X109710084Y-126966500D01*
X109524736Y-126966500D01*
X109303944Y-126981165D01*
X109013090Y-127039812D01*
X108732547Y-127136410D01*
X108728804Y-127138284D01*
X108728800Y-127138286D01*
X108554179Y-127225730D01*
X108467244Y-127269264D01*
X108463779Y-127271619D01*
X108355433Y-127345251D01*
X108221842Y-127436039D01*
X108000654Y-127633804D01*
X107807564Y-127859086D01*
X107805290Y-127862588D01*
X107805289Y-127862589D01*
X107700698Y-128023646D01*
X107645965Y-128107927D01*
X107518696Y-128375954D01*
X107517417Y-128379937D01*
X107517416Y-128379940D01*
X107436740Y-128631218D01*
X107427994Y-128658458D01*
X107427253Y-128662577D01*
X107378434Y-128933905D01*
X107375452Y-128950477D01*
X107375263Y-128954644D01*
X107375262Y-128954651D01*
X107366060Y-129157290D01*
X107361992Y-129246880D01*
X107362355Y-129251028D01*
X107362355Y-129251032D01*
X107387487Y-129538293D01*
X107387488Y-129538301D01*
X107387852Y-129542459D01*
X107452577Y-129832021D01*
X107454019Y-129835941D01*
X107454021Y-129835947D01*
X107524619Y-130027827D01*
X107555029Y-130110480D01*
X107693410Y-130372942D01*
X107865288Y-130614797D01*
X108067642Y-130831796D01*
X108296918Y-131020125D01*
X108549088Y-131176477D01*
X108819722Y-131298105D01*
X108992390Y-131349580D01*
X109100065Y-131381679D01*
X109100067Y-131381679D01*
X109104064Y-131382871D01*
X109108184Y-131383524D01*
X109108186Y-131383524D01*
X109227106Y-131402359D01*
X109397119Y-131429286D01*
X109442146Y-131431331D01*
X109488497Y-131433436D01*
X109488516Y-131433436D01*
X109489916Y-131433500D01*
X109675264Y-131433500D01*
X109896056Y-131418835D01*
X110186910Y-131360188D01*
X110467453Y-131263590D01*
X110471196Y-131261716D01*
X110471200Y-131261714D01*
X110729012Y-131132611D01*
X110729014Y-131132610D01*
X110732756Y-131130736D01*
X110978158Y-130963961D01*
X111199346Y-130766196D01*
X111392436Y-130540914D01*
X111394711Y-130537411D01*
X111551763Y-130295572D01*
X111551765Y-130295569D01*
X111554035Y-130292073D01*
X111681304Y-130024046D01*
X111741696Y-129835947D01*
X111770726Y-129745530D01*
X111770727Y-129745524D01*
X111772006Y-129741542D01*
X111807091Y-129546548D01*
X111823809Y-129453632D01*
X111823810Y-129453627D01*
X111824548Y-129449523D01*
X111833751Y-129246880D01*
X111837819Y-129157290D01*
X111837819Y-129157285D01*
X111838008Y-129153120D01*
X111825438Y-129009439D01*
X111815959Y-128901100D01*
X111829948Y-128831495D01*
X111879348Y-128780502D01*
X111948474Y-128764312D01*
X112015379Y-128788064D01*
X112030575Y-128801023D01*
X118853501Y-135623949D01*
X118887527Y-135686261D01*
X118882462Y-135757076D01*
X118839915Y-135813912D01*
X118773962Y-135838681D01*
X118746336Y-135840782D01*
X118746331Y-135840783D01*
X118741569Y-135841145D01*
X118736916Y-135842224D01*
X118736913Y-135842224D01*
X118588822Y-135876550D01*
X118489085Y-135899668D01*
X118248358Y-135995708D01*
X118024928Y-136127056D01*
X118021217Y-136130077D01*
X118021213Y-136130080D01*
X118013028Y-136136744D01*
X117823937Y-136290688D01*
X117820728Y-136294233D01*
X117820723Y-136294238D01*
X117703021Y-136424274D01*
X117650010Y-136482840D01*
X117507149Y-136699090D01*
X117505148Y-136703430D01*
X117505146Y-136703434D01*
X117400648Y-136930108D01*
X117398642Y-136934460D01*
X117397318Y-136939062D01*
X117334464Y-137157540D01*
X117326985Y-137183535D01*
X117326374Y-137188270D01*
X117326373Y-137188276D01*
X117299921Y-137393344D01*
X117293828Y-137440583D01*
X117293941Y-137445360D01*
X117298820Y-137652369D01*
X117299935Y-137699689D01*
X117300769Y-137704394D01*
X117336636Y-137906774D01*
X117345163Y-137954890D01*
X117428473Y-138200313D01*
X117430674Y-138204549D01*
X117430676Y-138204555D01*
X117484143Y-138307482D01*
X117547947Y-138430311D01*
X117550762Y-138434165D01*
X117550765Y-138434169D01*
X117698014Y-138635726D01*
X117700837Y-138639590D01*
X117704209Y-138642980D01*
X117704211Y-138642982D01*
X117880248Y-138819945D01*
X117880253Y-138819949D01*
X117883622Y-138823336D01*
X118092099Y-138977319D01*
X118096337Y-138979549D01*
X118096339Y-138979550D01*
X118317232Y-139095768D01*
X118317239Y-139095771D01*
X118321468Y-139097996D01*
X118325984Y-139099555D01*
X118325990Y-139099558D01*
X118452565Y-139143264D01*
X118566451Y-139182590D01*
X118684193Y-139204093D01*
X118817441Y-139228429D01*
X118817445Y-139228429D01*
X118821412Y-139229154D01*
X118904342Y-139233500D01*
X119065903Y-139233500D01*
X119068282Y-139233319D01*
X119068283Y-139233319D01*
X119253664Y-139219218D01*
X119253669Y-139219217D01*
X119258431Y-139218855D01*
X119263084Y-139217776D01*
X119263087Y-139217776D01*
X119506251Y-139161413D01*
X119506250Y-139161413D01*
X119510915Y-139160332D01*
X119751642Y-139064292D01*
X119975072Y-138932944D01*
X119978783Y-138929923D01*
X119978787Y-138929920D01*
X120172351Y-138772334D01*
X120176063Y-138769312D01*
X120179272Y-138765767D01*
X120179277Y-138765762D01*
X120346774Y-138580713D01*
X120349990Y-138577160D01*
X120492851Y-138360910D01*
X120516186Y-138310294D01*
X120599352Y-138129892D01*
X120599353Y-138129889D01*
X120601358Y-138125540D01*
X120659244Y-137924332D01*
X120671694Y-137881058D01*
X120671695Y-137881053D01*
X120673015Y-137876465D01*
X120689692Y-137747175D01*
X120718245Y-137682174D01*
X120777407Y-137642927D01*
X120848396Y-137641896D01*
X120903752Y-137674200D01*
X123279595Y-140050043D01*
X123313621Y-140112355D01*
X123316500Y-140139138D01*
X123316500Y-144648134D01*
X123323255Y-144710316D01*
X123374385Y-144846705D01*
X123461739Y-144963261D01*
X123578295Y-145050615D01*
X123714684Y-145101745D01*
X123776866Y-145108500D01*
X130223134Y-145108500D01*
X130285316Y-145101745D01*
X130421705Y-145050615D01*
X130538261Y-144963261D01*
X130625615Y-144846705D01*
X130676745Y-144710316D01*
X130683500Y-144648134D01*
X130683500Y-137211866D01*
X130676745Y-137149684D01*
X130625615Y-137013295D01*
X130538261Y-136896739D01*
X130421705Y-136809385D01*
X130285316Y-136758255D01*
X130223134Y-136751500D01*
X125714138Y-136751500D01*
X125646017Y-136731498D01*
X125625043Y-136714595D01*
X103645405Y-114734957D01*
X103611379Y-114672645D01*
X103608500Y-114645862D01*
X103608500Y-74046880D01*
X116761992Y-74046880D01*
X116762355Y-74051028D01*
X116762355Y-74051032D01*
X116787487Y-74338293D01*
X116787488Y-74338301D01*
X116787852Y-74342459D01*
X116852577Y-74632021D01*
X116854019Y-74635941D01*
X116854021Y-74635947D01*
X116953582Y-74906548D01*
X116955029Y-74910480D01*
X116956980Y-74914180D01*
X116956982Y-74914185D01*
X117075407Y-75138797D01*
X117093410Y-75172942D01*
X117265288Y-75414797D01*
X117467642Y-75631796D01*
X117696918Y-75820125D01*
X117949088Y-75976477D01*
X118219722Y-76098105D01*
X118278841Y-76115729D01*
X118500065Y-76181679D01*
X118500067Y-76181679D01*
X118504064Y-76182871D01*
X118508184Y-76183524D01*
X118508186Y-76183524D01*
X118627106Y-76202359D01*
X118797119Y-76229286D01*
X118842146Y-76231331D01*
X118888497Y-76233436D01*
X118888516Y-76233436D01*
X118889916Y-76233500D01*
X119075264Y-76233500D01*
X119296056Y-76218835D01*
X119586910Y-76160188D01*
X119867453Y-76063590D01*
X119871196Y-76061716D01*
X119871200Y-76061714D01*
X120129012Y-75932611D01*
X120129014Y-75932610D01*
X120132756Y-75930736D01*
X120378158Y-75763961D01*
X120599346Y-75566196D01*
X120792436Y-75340914D01*
X120822880Y-75294034D01*
X120951763Y-75095572D01*
X120951765Y-75095569D01*
X120954035Y-75092073D01*
X120959821Y-75079889D01*
X121003459Y-74987986D01*
X121081304Y-74824046D01*
X121141696Y-74635947D01*
X121170726Y-74545530D01*
X121170727Y-74545524D01*
X121172006Y-74541542D01*
X121207091Y-74346548D01*
X121223809Y-74253632D01*
X121223810Y-74253627D01*
X121224548Y-74249523D01*
X121225882Y-74220165D01*
X121237819Y-73957290D01*
X121237819Y-73957285D01*
X121238008Y-73953120D01*
X121237645Y-73948968D01*
X121212513Y-73661707D01*
X121212512Y-73661699D01*
X121212148Y-73657541D01*
X121147423Y-73367979D01*
X121131824Y-73325580D01*
X121046418Y-73093452D01*
X121046416Y-73093448D01*
X121044971Y-73089520D01*
X121010954Y-73025000D01*
X120908543Y-72830762D01*
X120908542Y-72830761D01*
X120906590Y-72827058D01*
X120734712Y-72585203D01*
X120532358Y-72368204D01*
X120388132Y-72249736D01*
X120306307Y-72182524D01*
X120303082Y-72179875D01*
X120050912Y-72023523D01*
X119780278Y-71901895D01*
X119581749Y-71842711D01*
X119499935Y-71818321D01*
X119499933Y-71818321D01*
X119495936Y-71817129D01*
X119491816Y-71816476D01*
X119491814Y-71816476D01*
X119356628Y-71795065D01*
X119202881Y-71770714D01*
X119157854Y-71768669D01*
X119111503Y-71766564D01*
X119111484Y-71766564D01*
X119110084Y-71766500D01*
X118924736Y-71766500D01*
X118703944Y-71781165D01*
X118413090Y-71839812D01*
X118132547Y-71936410D01*
X118128804Y-71938284D01*
X118128800Y-71938286D01*
X117926735Y-72039473D01*
X117867244Y-72069264D01*
X117777401Y-72130321D01*
X117707874Y-72177572D01*
X117621842Y-72236039D01*
X117400654Y-72433804D01*
X117207564Y-72659086D01*
X117205290Y-72662588D01*
X117205289Y-72662589D01*
X117100698Y-72823646D01*
X117045965Y-72907927D01*
X116918696Y-73175954D01*
X116917417Y-73179937D01*
X116917416Y-73179940D01*
X116832350Y-73444892D01*
X116827994Y-73458458D01*
X116827253Y-73462577D01*
X116792174Y-73657541D01*
X116775452Y-73750477D01*
X116775263Y-73754644D01*
X116775262Y-73754651D01*
X116763253Y-74019102D01*
X116761992Y-74046880D01*
X103608500Y-74046880D01*
X103608500Y-66574500D01*
X103628502Y-66506379D01*
X103682158Y-66459886D01*
X103734500Y-66448500D01*
X104823134Y-66448500D01*
X104885316Y-66441745D01*
X105021705Y-66390615D01*
X105138261Y-66303261D01*
X105225615Y-66186705D01*
X105276745Y-66050316D01*
X105283500Y-65988134D01*
X105283500Y-58551866D01*
X105276745Y-58489684D01*
X105225615Y-58353295D01*
X105138261Y-58236739D01*
X105021705Y-58149385D01*
X104885316Y-58098255D01*
X104823134Y-58091500D01*
X99679594Y-58091500D01*
X99611473Y-58071498D01*
X99590499Y-58054595D01*
X97814980Y-56279075D01*
X97780954Y-56216763D01*
X97786019Y-56145947D01*
X97828566Y-56089112D01*
X97895086Y-56064301D01*
X97904075Y-56063980D01*
X119845886Y-56063980D01*
X119914007Y-56083982D01*
X119934981Y-56100885D01*
X123279595Y-59445500D01*
X123313621Y-59507812D01*
X123316500Y-59534595D01*
X123316500Y-65988134D01*
X123323255Y-66050316D01*
X123374385Y-66186705D01*
X123461739Y-66303261D01*
X123578295Y-66390615D01*
X123714684Y-66441745D01*
X123776866Y-66448500D01*
X124865500Y-66448500D01*
X124933621Y-66468502D01*
X124980114Y-66522158D01*
X124991500Y-66574500D01*
X124991500Y-115474105D01*
X124991327Y-115480699D01*
X124988061Y-115543029D01*
X124986902Y-115565138D01*
X124987285Y-115569515D01*
X124987285Y-115569519D01*
X124997521Y-115686514D01*
X124997693Y-115688707D01*
X125005734Y-115803703D01*
X125006189Y-115810212D01*
X125007102Y-115814507D01*
X125008246Y-115819887D01*
X125010519Y-115835100D01*
X125010998Y-115840575D01*
X125011000Y-115840588D01*
X125011383Y-115844966D01*
X125012371Y-115849245D01*
X125012372Y-115849252D01*
X125038793Y-115963695D01*
X125039268Y-115965840D01*
X125061038Y-116068253D01*
X125064591Y-116084970D01*
X125066095Y-116089102D01*
X125067978Y-116094275D01*
X125072345Y-116109019D01*
X125074572Y-116118663D01*
X125076150Y-116122775D01*
X125076151Y-116122777D01*
X125118220Y-116232371D01*
X125118990Y-116234431D01*
X125159154Y-116344782D01*
X125159158Y-116344791D01*
X125160663Y-116348926D01*
X125162730Y-116352813D01*
X125165308Y-116357662D01*
X125171683Y-116371652D01*
X125173654Y-116376786D01*
X125173659Y-116376798D01*
X125175235Y-116380902D01*
X125234336Y-116487521D01*
X125235348Y-116489388D01*
X125290470Y-116593058D01*
X125290476Y-116593067D01*
X125292536Y-116596942D01*
X125295121Y-116600499D01*
X125295124Y-116600505D01*
X125298355Y-116604953D01*
X125306620Y-116617926D01*
X125311417Y-116626579D01*
X125314066Y-116630094D01*
X125384701Y-116723831D01*
X125385999Y-116725585D01*
X125457642Y-116824192D01*
X125463398Y-116830153D01*
X125464525Y-116831320D01*
X125474510Y-116843012D01*
X125477812Y-116847393D01*
X125480464Y-116850912D01*
X125566540Y-116936988D01*
X125568082Y-116938556D01*
X125652769Y-117026252D01*
X125660530Y-117032315D01*
X125660578Y-117032353D01*
X125672100Y-117042548D01*
X135400843Y-126771291D01*
X135434869Y-126833603D01*
X135429804Y-126904418D01*
X135387257Y-126961254D01*
X135320737Y-126986065D01*
X135292039Y-126984835D01*
X135202881Y-126970714D01*
X135157854Y-126968669D01*
X135111503Y-126966564D01*
X135111484Y-126966564D01*
X135110084Y-126966500D01*
X134924736Y-126966500D01*
X134703944Y-126981165D01*
X134413090Y-127039812D01*
X134132547Y-127136410D01*
X134128804Y-127138284D01*
X134128800Y-127138286D01*
X133954179Y-127225730D01*
X133867244Y-127269264D01*
X133863779Y-127271619D01*
X133755433Y-127345251D01*
X133621842Y-127436039D01*
X133400654Y-127633804D01*
X133207564Y-127859086D01*
X133205290Y-127862588D01*
X133205289Y-127862589D01*
X133100698Y-128023646D01*
X133045965Y-128107927D01*
X132918696Y-128375954D01*
X132917417Y-128379937D01*
X132917416Y-128379940D01*
X132836740Y-128631218D01*
X132827994Y-128658458D01*
X132827253Y-128662577D01*
X132778434Y-128933905D01*
X132775452Y-128950477D01*
X132775263Y-128954644D01*
X132775262Y-128954651D01*
X132766060Y-129157290D01*
X132761992Y-129246880D01*
X132762355Y-129251028D01*
X132762355Y-129251032D01*
X132787487Y-129538293D01*
X132787488Y-129538301D01*
X132787852Y-129542459D01*
X132852577Y-129832021D01*
X132854019Y-129835941D01*
X132854021Y-129835947D01*
X132924619Y-130027827D01*
X132955029Y-130110480D01*
X133093410Y-130372942D01*
X133265288Y-130614797D01*
X133467642Y-130831796D01*
X133696918Y-131020125D01*
X133949088Y-131176477D01*
X134219722Y-131298105D01*
X134392390Y-131349580D01*
X134500065Y-131381679D01*
X134500067Y-131381679D01*
X134504064Y-131382871D01*
X134508184Y-131383524D01*
X134508186Y-131383524D01*
X134627106Y-131402359D01*
X134797119Y-131429286D01*
X134842146Y-131431331D01*
X134888497Y-131433436D01*
X134888516Y-131433436D01*
X134889916Y-131433500D01*
X135075264Y-131433500D01*
X135296056Y-131418835D01*
X135586910Y-131360188D01*
X135867453Y-131263590D01*
X135871196Y-131261716D01*
X135871200Y-131261714D01*
X136129012Y-131132611D01*
X136129014Y-131132610D01*
X136132756Y-131130736D01*
X136378158Y-130963961D01*
X136599346Y-130766196D01*
X136792436Y-130540914D01*
X136794711Y-130537411D01*
X136951763Y-130295572D01*
X136951765Y-130295569D01*
X136954035Y-130292073D01*
X137081304Y-130024046D01*
X137141696Y-129835947D01*
X137170726Y-129745530D01*
X137170727Y-129745524D01*
X137172006Y-129741542D01*
X137207091Y-129546548D01*
X137223809Y-129453632D01*
X137223810Y-129453627D01*
X137224548Y-129449523D01*
X137233751Y-129246880D01*
X137237819Y-129157290D01*
X137237819Y-129157285D01*
X137238008Y-129153120D01*
X137225438Y-129009439D01*
X137215959Y-128901100D01*
X137229948Y-128831495D01*
X137279348Y-128780502D01*
X137348474Y-128764312D01*
X137415379Y-128788064D01*
X137430575Y-128801023D01*
X144253501Y-135623949D01*
X144287527Y-135686261D01*
X144282462Y-135757076D01*
X144239915Y-135813912D01*
X144173962Y-135838681D01*
X144146336Y-135840782D01*
X144146331Y-135840783D01*
X144141569Y-135841145D01*
X144136916Y-135842224D01*
X144136913Y-135842224D01*
X143988822Y-135876550D01*
X143889085Y-135899668D01*
X143648358Y-135995708D01*
X143424928Y-136127056D01*
X143421217Y-136130077D01*
X143421213Y-136130080D01*
X143413028Y-136136744D01*
X143223937Y-136290688D01*
X143220728Y-136294233D01*
X143220723Y-136294238D01*
X143103021Y-136424274D01*
X143050010Y-136482840D01*
X142907149Y-136699090D01*
X142905148Y-136703430D01*
X142905146Y-136703434D01*
X142800648Y-136930108D01*
X142798642Y-136934460D01*
X142797318Y-136939062D01*
X142734464Y-137157540D01*
X142726985Y-137183535D01*
X142726374Y-137188270D01*
X142726373Y-137188276D01*
X142699921Y-137393344D01*
X142693828Y-137440583D01*
X142693941Y-137445360D01*
X142698820Y-137652369D01*
X142699935Y-137699689D01*
X142700769Y-137704394D01*
X142736636Y-137906774D01*
X142745163Y-137954890D01*
X142828473Y-138200313D01*
X142830674Y-138204549D01*
X142830676Y-138204555D01*
X142884143Y-138307482D01*
X142947947Y-138430311D01*
X142950762Y-138434165D01*
X142950765Y-138434169D01*
X143098014Y-138635726D01*
X143100837Y-138639590D01*
X143104209Y-138642980D01*
X143104211Y-138642982D01*
X143280248Y-138819945D01*
X143280253Y-138819949D01*
X143283622Y-138823336D01*
X143492099Y-138977319D01*
X143496337Y-138979549D01*
X143496339Y-138979550D01*
X143717232Y-139095768D01*
X143717239Y-139095771D01*
X143721468Y-139097996D01*
X143725984Y-139099555D01*
X143725990Y-139099558D01*
X143852565Y-139143264D01*
X143966451Y-139182590D01*
X144084193Y-139204093D01*
X144217441Y-139228429D01*
X144217445Y-139228429D01*
X144221412Y-139229154D01*
X144304342Y-139233500D01*
X144465903Y-139233500D01*
X144468282Y-139233319D01*
X144468283Y-139233319D01*
X144653664Y-139219218D01*
X144653669Y-139219217D01*
X144658431Y-139218855D01*
X144663084Y-139217776D01*
X144663087Y-139217776D01*
X144906251Y-139161413D01*
X144906250Y-139161413D01*
X144910915Y-139160332D01*
X145151642Y-139064292D01*
X145375072Y-138932944D01*
X145378783Y-138929923D01*
X145378787Y-138929920D01*
X145572351Y-138772334D01*
X145576063Y-138769312D01*
X145579272Y-138765767D01*
X145579277Y-138765762D01*
X145746774Y-138580713D01*
X145749990Y-138577160D01*
X145892851Y-138360910D01*
X145916186Y-138310294D01*
X145999352Y-138129892D01*
X145999353Y-138129889D01*
X146001358Y-138125540D01*
X146059244Y-137924332D01*
X146071694Y-137881058D01*
X146071695Y-137881053D01*
X146073015Y-137876465D01*
X146089692Y-137747175D01*
X146118245Y-137682174D01*
X146177407Y-137642927D01*
X146248396Y-137641896D01*
X146303752Y-137674200D01*
X148679595Y-140050043D01*
X148713621Y-140112355D01*
X148716500Y-140139138D01*
X148716500Y-144648134D01*
X148723255Y-144710316D01*
X148774385Y-144846705D01*
X148861739Y-144963261D01*
X148978295Y-145050615D01*
X149114684Y-145101745D01*
X149176866Y-145108500D01*
X155623134Y-145108500D01*
X155685316Y-145101745D01*
X155821705Y-145050615D01*
X155938261Y-144963261D01*
X156025615Y-144846705D01*
X156076745Y-144710316D01*
X156083500Y-144648134D01*
X156083500Y-137211866D01*
X156076745Y-137149684D01*
X156025615Y-137013295D01*
X155938261Y-136896739D01*
X155889526Y-136860214D01*
X167417589Y-136860214D01*
X167417764Y-136864666D01*
X167427396Y-137109814D01*
X167428144Y-137128863D01*
X167476447Y-137393344D01*
X167561534Y-137648381D01*
X167584783Y-137694909D01*
X167677797Y-137881058D01*
X167681707Y-137888884D01*
X167834568Y-138110056D01*
X168017067Y-138307482D01*
X168020521Y-138310294D01*
X168222107Y-138474411D01*
X168222111Y-138474414D01*
X168225564Y-138477225D01*
X168229386Y-138479526D01*
X168397457Y-138580713D01*
X168455897Y-138615897D01*
X168502725Y-138635726D01*
X168699369Y-138718995D01*
X168699374Y-138718997D01*
X168703472Y-138720732D01*
X168707769Y-138721871D01*
X168707774Y-138721873D01*
X168833410Y-138755184D01*
X168963348Y-138789636D01*
X169230340Y-138821237D01*
X169499121Y-138814903D01*
X169650923Y-138789636D01*
X169759938Y-138771491D01*
X169759942Y-138771490D01*
X169764328Y-138770760D01*
X169768569Y-138769419D01*
X169768572Y-138769418D01*
X170016424Y-138691033D01*
X170016426Y-138691032D01*
X170020670Y-138689690D01*
X170024681Y-138687764D01*
X170024686Y-138687762D01*
X170259012Y-138575240D01*
X170259013Y-138575239D01*
X170263031Y-138573310D01*
X170266737Y-138570834D01*
X170482869Y-138426420D01*
X170482873Y-138426417D01*
X170486577Y-138423942D01*
X170489894Y-138420971D01*
X170489898Y-138420968D01*
X170683528Y-138247538D01*
X170683529Y-138247537D01*
X170686846Y-138244566D01*
X170859842Y-138038761D01*
X170912710Y-137953990D01*
X170965730Y-137906774D01*
X171035860Y-137895718D01*
X171100835Y-137924332D01*
X171123275Y-137949028D01*
X171234568Y-138110056D01*
X171417067Y-138307482D01*
X171420521Y-138310294D01*
X171622107Y-138474411D01*
X171622111Y-138474414D01*
X171625564Y-138477225D01*
X171629386Y-138479526D01*
X171797457Y-138580713D01*
X171855897Y-138615897D01*
X171902725Y-138635726D01*
X172099369Y-138718995D01*
X172099374Y-138718997D01*
X172103472Y-138720732D01*
X172107769Y-138721871D01*
X172107774Y-138721873D01*
X172233410Y-138755184D01*
X172363348Y-138789636D01*
X172630340Y-138821237D01*
X172899121Y-138814903D01*
X173050923Y-138789636D01*
X173159938Y-138771491D01*
X173159942Y-138771490D01*
X173164328Y-138770760D01*
X173168569Y-138769419D01*
X173168572Y-138769418D01*
X173416424Y-138691033D01*
X173416426Y-138691032D01*
X173420670Y-138689690D01*
X173424681Y-138687764D01*
X173424686Y-138687762D01*
X173659012Y-138575240D01*
X173659013Y-138575239D01*
X173663031Y-138573310D01*
X173666737Y-138570834D01*
X173882869Y-138426420D01*
X173882873Y-138426417D01*
X173886577Y-138423942D01*
X173889894Y-138420971D01*
X173889898Y-138420968D01*
X174083528Y-138247538D01*
X174083529Y-138247537D01*
X174086846Y-138244566D01*
X174259842Y-138038761D01*
X174402115Y-137810634D01*
X174510825Y-137564737D01*
X174583804Y-137305975D01*
X174596444Y-137211866D01*
X174619167Y-137042694D01*
X174619168Y-137042686D01*
X174619594Y-137039512D01*
X174622896Y-136934460D01*
X174623249Y-136923222D01*
X174623249Y-136923217D01*
X174623350Y-136920000D01*
X174611871Y-136757865D01*
X174604677Y-136656265D01*
X174604362Y-136651816D01*
X174547775Y-136388982D01*
X174525170Y-136327707D01*
X174456260Y-136140921D01*
X174454719Y-136136744D01*
X174327052Y-135900134D01*
X174167319Y-135683873D01*
X174126610Y-135642519D01*
X173981839Y-135495457D01*
X173978708Y-135492276D01*
X173975169Y-135489575D01*
X173975162Y-135489569D01*
X173768523Y-135331868D01*
X173764983Y-135329166D01*
X173530407Y-135197797D01*
X173526262Y-135196193D01*
X173526259Y-135196192D01*
X173283805Y-135102394D01*
X173279662Y-135100791D01*
X173275337Y-135099788D01*
X173275332Y-135099787D01*
X173131456Y-135066439D01*
X173017750Y-135040083D01*
X172749897Y-135016885D01*
X172745462Y-135017129D01*
X172745458Y-135017129D01*
X172627232Y-135023635D01*
X172481447Y-135031658D01*
X172296969Y-135068354D01*
X172222125Y-135083241D01*
X172222123Y-135083242D01*
X172217757Y-135084110D01*
X171964089Y-135173192D01*
X171725502Y-135297127D01*
X171721875Y-135299719D01*
X171721870Y-135299722D01*
X171510386Y-135450852D01*
X171506759Y-135453444D01*
X171503538Y-135456517D01*
X171328024Y-135623949D01*
X171312223Y-135639022D01*
X171309467Y-135642517D01*
X171309466Y-135642519D01*
X171153168Y-135840782D01*
X171145776Y-135850159D01*
X171129948Y-135877410D01*
X171129584Y-135878036D01*
X171078074Y-135926895D01*
X171008325Y-135940149D01*
X170942484Y-135913590D01*
X170919279Y-135889610D01*
X170769972Y-135687465D01*
X170767319Y-135683873D01*
X170726610Y-135642519D01*
X170581839Y-135495457D01*
X170578708Y-135492276D01*
X170575169Y-135489575D01*
X170575162Y-135489569D01*
X170368523Y-135331868D01*
X170364983Y-135329166D01*
X170130407Y-135197797D01*
X170126262Y-135196193D01*
X170126259Y-135196192D01*
X169883805Y-135102394D01*
X169879662Y-135100791D01*
X169875337Y-135099788D01*
X169875332Y-135099787D01*
X169731456Y-135066439D01*
X169617750Y-135040083D01*
X169349897Y-135016885D01*
X169345462Y-135017129D01*
X169345458Y-135017129D01*
X169227232Y-135023635D01*
X169081447Y-135031658D01*
X168896969Y-135068354D01*
X168822125Y-135083241D01*
X168822123Y-135083242D01*
X168817757Y-135084110D01*
X168564089Y-135173192D01*
X168325502Y-135297127D01*
X168321875Y-135299719D01*
X168321870Y-135299722D01*
X168110386Y-135450852D01*
X168106759Y-135453444D01*
X168103538Y-135456517D01*
X167928024Y-135623949D01*
X167912223Y-135639022D01*
X167909467Y-135642517D01*
X167909466Y-135642519D01*
X167754825Y-135838681D01*
X167745776Y-135850159D01*
X167701204Y-135926895D01*
X167612977Y-136078788D01*
X167612974Y-136078794D01*
X167610739Y-136082642D01*
X167509807Y-136331833D01*
X167508736Y-136336146D01*
X167508734Y-136336151D01*
X167495611Y-136388982D01*
X167444992Y-136592759D01*
X167444538Y-136597190D01*
X167433652Y-136703434D01*
X167417589Y-136860214D01*
X155889526Y-136860214D01*
X155821705Y-136809385D01*
X155685316Y-136758255D01*
X155623134Y-136751500D01*
X151114138Y-136751500D01*
X151046017Y-136731498D01*
X151025043Y-136714595D01*
X143557328Y-129246880D01*
X158161992Y-129246880D01*
X158162355Y-129251028D01*
X158162355Y-129251032D01*
X158187487Y-129538293D01*
X158187488Y-129538301D01*
X158187852Y-129542459D01*
X158252577Y-129832021D01*
X158254019Y-129835941D01*
X158254021Y-129835947D01*
X158324619Y-130027827D01*
X158355029Y-130110480D01*
X158493410Y-130372942D01*
X158665288Y-130614797D01*
X158867642Y-130831796D01*
X159096918Y-131020125D01*
X159349088Y-131176477D01*
X159619722Y-131298105D01*
X159792390Y-131349580D01*
X159900065Y-131381679D01*
X159900067Y-131381679D01*
X159904064Y-131382871D01*
X159908184Y-131383524D01*
X159908186Y-131383524D01*
X160027106Y-131402359D01*
X160197119Y-131429286D01*
X160242146Y-131431331D01*
X160288497Y-131433436D01*
X160288516Y-131433436D01*
X160289916Y-131433500D01*
X160475264Y-131433500D01*
X160696056Y-131418835D01*
X160986910Y-131360188D01*
X161267453Y-131263590D01*
X161271196Y-131261716D01*
X161271200Y-131261714D01*
X161529012Y-131132611D01*
X161529014Y-131132610D01*
X161532756Y-131130736D01*
X161778158Y-130963961D01*
X161999346Y-130766196D01*
X162192436Y-130540914D01*
X162194711Y-130537411D01*
X162351763Y-130295572D01*
X162351765Y-130295569D01*
X162354035Y-130292073D01*
X162481304Y-130024046D01*
X162541696Y-129835947D01*
X162570726Y-129745530D01*
X162570727Y-129745524D01*
X162572006Y-129741542D01*
X162607091Y-129546548D01*
X162623809Y-129453632D01*
X162623810Y-129453627D01*
X162624548Y-129449523D01*
X162633751Y-129246880D01*
X162637819Y-129157290D01*
X162637819Y-129157285D01*
X162638008Y-129153120D01*
X162625543Y-129010646D01*
X162612513Y-128861707D01*
X162612512Y-128861699D01*
X162612148Y-128857541D01*
X162575727Y-128694602D01*
X162548336Y-128572063D01*
X162548336Y-128572061D01*
X162547423Y-128567979D01*
X162537997Y-128542358D01*
X162446418Y-128293452D01*
X162446416Y-128293448D01*
X162444971Y-128289520D01*
X162306590Y-128027058D01*
X162134712Y-127785203D01*
X161932358Y-127568204D01*
X161703082Y-127379875D01*
X161450912Y-127223523D01*
X161180278Y-127101895D01*
X161007610Y-127050420D01*
X160899935Y-127018321D01*
X160899933Y-127018321D01*
X160895936Y-127017129D01*
X160891816Y-127016476D01*
X160891814Y-127016476D01*
X160692038Y-126984835D01*
X160602881Y-126970714D01*
X160557854Y-126968669D01*
X160511503Y-126966564D01*
X160511484Y-126966564D01*
X160510084Y-126966500D01*
X160324736Y-126966500D01*
X160103944Y-126981165D01*
X159813090Y-127039812D01*
X159532547Y-127136410D01*
X159528804Y-127138284D01*
X159528800Y-127138286D01*
X159354179Y-127225730D01*
X159267244Y-127269264D01*
X159263779Y-127271619D01*
X159155433Y-127345251D01*
X159021842Y-127436039D01*
X158800654Y-127633804D01*
X158607564Y-127859086D01*
X158605290Y-127862588D01*
X158605289Y-127862589D01*
X158500698Y-128023646D01*
X158445965Y-128107927D01*
X158318696Y-128375954D01*
X158317417Y-128379937D01*
X158317416Y-128379940D01*
X158236740Y-128631218D01*
X158227994Y-128658458D01*
X158227253Y-128662577D01*
X158178434Y-128933905D01*
X158175452Y-128950477D01*
X158175263Y-128954644D01*
X158175262Y-128954651D01*
X158166060Y-129157290D01*
X158161992Y-129246880D01*
X143557328Y-129246880D01*
X129045405Y-114734957D01*
X129011379Y-114672645D01*
X129008500Y-114645862D01*
X129008500Y-74046880D01*
X142161992Y-74046880D01*
X142162355Y-74051028D01*
X142162355Y-74051032D01*
X142187487Y-74338293D01*
X142187488Y-74338301D01*
X142187852Y-74342459D01*
X142252577Y-74632021D01*
X142254019Y-74635941D01*
X142254021Y-74635947D01*
X142353582Y-74906548D01*
X142355029Y-74910480D01*
X142356980Y-74914180D01*
X142356982Y-74914185D01*
X142475407Y-75138797D01*
X142493410Y-75172942D01*
X142665288Y-75414797D01*
X142867642Y-75631796D01*
X143096918Y-75820125D01*
X143349088Y-75976477D01*
X143619722Y-76098105D01*
X143678841Y-76115729D01*
X143900065Y-76181679D01*
X143900067Y-76181679D01*
X143904064Y-76182871D01*
X143908184Y-76183524D01*
X143908186Y-76183524D01*
X144027106Y-76202359D01*
X144197119Y-76229286D01*
X144242146Y-76231331D01*
X144288497Y-76233436D01*
X144288516Y-76233436D01*
X144289916Y-76233500D01*
X144475264Y-76233500D01*
X144696056Y-76218835D01*
X144986910Y-76160188D01*
X145267453Y-76063590D01*
X145271196Y-76061716D01*
X145271200Y-76061714D01*
X145529012Y-75932611D01*
X145529014Y-75932610D01*
X145532756Y-75930736D01*
X145778158Y-75763961D01*
X145999346Y-75566196D01*
X146192436Y-75340914D01*
X146222880Y-75294034D01*
X146351763Y-75095572D01*
X146351765Y-75095569D01*
X146354035Y-75092073D01*
X146359821Y-75079889D01*
X146403459Y-74987986D01*
X146481304Y-74824046D01*
X146541696Y-74635947D01*
X146570726Y-74545530D01*
X146570727Y-74545524D01*
X146572006Y-74541542D01*
X146607091Y-74346548D01*
X146623809Y-74253632D01*
X146623810Y-74253627D01*
X146624548Y-74249523D01*
X146625882Y-74220165D01*
X146637819Y-73957290D01*
X146637819Y-73957285D01*
X146638008Y-73953120D01*
X146637645Y-73948968D01*
X146612513Y-73661707D01*
X146612512Y-73661699D01*
X146612148Y-73657541D01*
X146547423Y-73367979D01*
X146531824Y-73325580D01*
X146446418Y-73093452D01*
X146446416Y-73093448D01*
X146444971Y-73089520D01*
X146410954Y-73025000D01*
X146308543Y-72830762D01*
X146308542Y-72830761D01*
X146306590Y-72827058D01*
X146134712Y-72585203D01*
X145932358Y-72368204D01*
X145788132Y-72249736D01*
X145706307Y-72182524D01*
X145703082Y-72179875D01*
X145450912Y-72023523D01*
X145180278Y-71901895D01*
X144981749Y-71842711D01*
X144899935Y-71818321D01*
X144899933Y-71818321D01*
X144895936Y-71817129D01*
X144891816Y-71816476D01*
X144891814Y-71816476D01*
X144756628Y-71795065D01*
X144602881Y-71770714D01*
X144557854Y-71768669D01*
X144511503Y-71766564D01*
X144511484Y-71766564D01*
X144510084Y-71766500D01*
X144324736Y-71766500D01*
X144103944Y-71781165D01*
X143813090Y-71839812D01*
X143532547Y-71936410D01*
X143528804Y-71938284D01*
X143528800Y-71938286D01*
X143326735Y-72039473D01*
X143267244Y-72069264D01*
X143177401Y-72130321D01*
X143107874Y-72177572D01*
X143021842Y-72236039D01*
X142800654Y-72433804D01*
X142607564Y-72659086D01*
X142605290Y-72662588D01*
X142605289Y-72662589D01*
X142500698Y-72823646D01*
X142445965Y-72907927D01*
X142318696Y-73175954D01*
X142317417Y-73179937D01*
X142317416Y-73179940D01*
X142232350Y-73444892D01*
X142227994Y-73458458D01*
X142227253Y-73462577D01*
X142192174Y-73657541D01*
X142175452Y-73750477D01*
X142175263Y-73754644D01*
X142175262Y-73754651D01*
X142163253Y-74019102D01*
X142161992Y-74046880D01*
X129008500Y-74046880D01*
X129008500Y-66574500D01*
X129028502Y-66506379D01*
X129082158Y-66459886D01*
X129134500Y-66448500D01*
X130223134Y-66448500D01*
X130285316Y-66441745D01*
X130421705Y-66390615D01*
X130538261Y-66303261D01*
X130625615Y-66186705D01*
X130676745Y-66050316D01*
X130683500Y-65988134D01*
X148716500Y-65988134D01*
X148723255Y-66050316D01*
X148774385Y-66186705D01*
X148861739Y-66303261D01*
X148978295Y-66390615D01*
X149114684Y-66441745D01*
X149176866Y-66448500D01*
X150265500Y-66448500D01*
X150333621Y-66468502D01*
X150380114Y-66522158D01*
X150391500Y-66574500D01*
X150391500Y-110024105D01*
X150391327Y-110030699D01*
X150386902Y-110115138D01*
X150387285Y-110119515D01*
X150387285Y-110119519D01*
X150397521Y-110236514D01*
X150397693Y-110238707D01*
X150406189Y-110360212D01*
X150407102Y-110364507D01*
X150408246Y-110369887D01*
X150410519Y-110385100D01*
X150410998Y-110390575D01*
X150411000Y-110390588D01*
X150411383Y-110394966D01*
X150412371Y-110399245D01*
X150412372Y-110399252D01*
X150438793Y-110513695D01*
X150439268Y-110515840D01*
X150460453Y-110615501D01*
X150464591Y-110634970D01*
X150466095Y-110639102D01*
X150467978Y-110644275D01*
X150472345Y-110659019D01*
X150474572Y-110668663D01*
X150476150Y-110672775D01*
X150476151Y-110672777D01*
X150518220Y-110782371D01*
X150518990Y-110784431D01*
X150559154Y-110894782D01*
X150559158Y-110894791D01*
X150560663Y-110898926D01*
X150562730Y-110902813D01*
X150565308Y-110907662D01*
X150571683Y-110921652D01*
X150573654Y-110926786D01*
X150573659Y-110926798D01*
X150575235Y-110930902D01*
X150634336Y-111037521D01*
X150635348Y-111039388D01*
X150690470Y-111143058D01*
X150690476Y-111143067D01*
X150692536Y-111146942D01*
X150695121Y-111150499D01*
X150695124Y-111150505D01*
X150698355Y-111154953D01*
X150706620Y-111167926D01*
X150711417Y-111176579D01*
X150714066Y-111180094D01*
X150784701Y-111273831D01*
X150785999Y-111275585D01*
X150857642Y-111374192D01*
X150863398Y-111380153D01*
X150864525Y-111381320D01*
X150874510Y-111393012D01*
X150877812Y-111397393D01*
X150880464Y-111400912D01*
X150966540Y-111486988D01*
X150968082Y-111488556D01*
X151052769Y-111576252D01*
X151060530Y-111582315D01*
X151060578Y-111582353D01*
X151072100Y-111592548D01*
X167860235Y-128380683D01*
X167864776Y-128385467D01*
X167921371Y-128448322D01*
X168014739Y-128526668D01*
X168016306Y-128528006D01*
X168108302Y-128607977D01*
X168114432Y-128611958D01*
X168116607Y-128613371D01*
X168128963Y-128622514D01*
X168133171Y-128626044D01*
X168136550Y-128628879D01*
X168140285Y-128631213D01*
X168140292Y-128631218D01*
X168239837Y-128693420D01*
X168241681Y-128694594D01*
X168343882Y-128760964D01*
X168347869Y-128762823D01*
X168347874Y-128762826D01*
X168352857Y-128765150D01*
X168366363Y-128772482D01*
X168370714Y-128775200D01*
X168374764Y-128777731D01*
X168378784Y-128779521D01*
X168378790Y-128779524D01*
X168486081Y-128827294D01*
X168488080Y-128828205D01*
X168515190Y-128840846D01*
X168598460Y-128879675D01*
X168607931Y-128882570D01*
X168622335Y-128887957D01*
X168631375Y-128891982D01*
X168635601Y-128893194D01*
X168635610Y-128893197D01*
X168748509Y-128925569D01*
X168750596Y-128926187D01*
X168780759Y-128935409D01*
X168862875Y-128960515D01*
X168862878Y-128960516D01*
X168867082Y-128961801D01*
X168876860Y-128963350D01*
X168891866Y-128966677D01*
X168897159Y-128968194D01*
X168901390Y-128969407D01*
X168905737Y-128970018D01*
X168905742Y-128970019D01*
X168973839Y-128979589D01*
X169022044Y-128986364D01*
X169024161Y-128986680D01*
X169144520Y-129005743D01*
X169148920Y-129005820D01*
X169148923Y-129005820D01*
X169154418Y-129005916D01*
X169169747Y-129007123D01*
X169175190Y-129007888D01*
X169175206Y-129007889D01*
X169179552Y-129008500D01*
X169301335Y-129008500D01*
X169303535Y-129008519D01*
X169425373Y-129010646D01*
X169429729Y-129010111D01*
X169429732Y-129010111D01*
X169432787Y-129009736D01*
X169435205Y-129009439D01*
X169450558Y-129008500D01*
X172790146Y-129008500D01*
X172792332Y-129008347D01*
X172792336Y-129008347D01*
X172995827Y-128994118D01*
X172995832Y-128994117D01*
X173000212Y-128993811D01*
X173274970Y-128935409D01*
X173279099Y-128933906D01*
X173279103Y-128933905D01*
X173534781Y-128840846D01*
X173534785Y-128840844D01*
X173538926Y-128839337D01*
X173786942Y-128707464D01*
X173804645Y-128694602D01*
X174010629Y-128544947D01*
X174010632Y-128544944D01*
X174014192Y-128542358D01*
X174029037Y-128528023D01*
X174186508Y-128375954D01*
X174216252Y-128347231D01*
X174389188Y-128125882D01*
X174391384Y-128122078D01*
X174391389Y-128122071D01*
X174527435Y-127886431D01*
X174529636Y-127882619D01*
X174634862Y-127622176D01*
X174680577Y-127438825D01*
X174701753Y-127353893D01*
X174701754Y-127353888D01*
X174702817Y-127349624D01*
X174711016Y-127271619D01*
X174731719Y-127074636D01*
X174731719Y-127074633D01*
X174732178Y-127070267D01*
X174732025Y-127065873D01*
X174722529Y-126793939D01*
X174722528Y-126793933D01*
X174722375Y-126789542D01*
X174673598Y-126512913D01*
X174586797Y-126245765D01*
X174463660Y-125993298D01*
X174461205Y-125989659D01*
X174461202Y-125989653D01*
X174388110Y-125881290D01*
X174306585Y-125760424D01*
X174118629Y-125551678D01*
X173903450Y-125371121D01*
X173665236Y-125222269D01*
X173408625Y-125108018D01*
X173138610Y-125030593D01*
X173134260Y-125029982D01*
X173134257Y-125029981D01*
X173031310Y-125015513D01*
X172860448Y-124991500D01*
X170204138Y-124991500D01*
X170136017Y-124971498D01*
X170115043Y-124954595D01*
X161810448Y-116650000D01*
X167916654Y-116650000D01*
X167916924Y-116654119D01*
X167935567Y-116938556D01*
X167936017Y-116945426D01*
X167936819Y-116949459D01*
X167936820Y-116949465D01*
X167955336Y-117042548D01*
X167993776Y-117235797D01*
X168088941Y-117516145D01*
X168219885Y-117781673D01*
X168384367Y-118027838D01*
X168387081Y-118030932D01*
X168387085Y-118030938D01*
X168576864Y-118247338D01*
X168579573Y-118250427D01*
X168582662Y-118253136D01*
X168799062Y-118442915D01*
X168799068Y-118442919D01*
X168802162Y-118445633D01*
X168805588Y-118447922D01*
X168805593Y-118447926D01*
X168989405Y-118570744D01*
X169048327Y-118610115D01*
X169052026Y-118611939D01*
X169052031Y-118611942D01*
X169188313Y-118679148D01*
X169313855Y-118741059D01*
X169317760Y-118742384D01*
X169317761Y-118742385D01*
X169590290Y-118834896D01*
X169590294Y-118834897D01*
X169594203Y-118836224D01*
X169598247Y-118837028D01*
X169598253Y-118837030D01*
X169880535Y-118893180D01*
X169880541Y-118893181D01*
X169884574Y-118893983D01*
X169888679Y-118894252D01*
X169888686Y-118894253D01*
X170175881Y-118913076D01*
X170180000Y-118913346D01*
X170184119Y-118913076D01*
X170471314Y-118894253D01*
X170471321Y-118894252D01*
X170475426Y-118893983D01*
X170479459Y-118893181D01*
X170479465Y-118893180D01*
X170761747Y-118837030D01*
X170761753Y-118837028D01*
X170765797Y-118836224D01*
X170769706Y-118834897D01*
X170769710Y-118834896D01*
X171042239Y-118742385D01*
X171042240Y-118742384D01*
X171046145Y-118741059D01*
X171171687Y-118679148D01*
X171307969Y-118611942D01*
X171307974Y-118611939D01*
X171311673Y-118610115D01*
X171370595Y-118570744D01*
X171554407Y-118447926D01*
X171554412Y-118447922D01*
X171557838Y-118445633D01*
X171560932Y-118442919D01*
X171560938Y-118442915D01*
X171777338Y-118253136D01*
X171780427Y-118250427D01*
X171783136Y-118247338D01*
X171972915Y-118030938D01*
X171972919Y-118030932D01*
X171975633Y-118027838D01*
X172140115Y-117781673D01*
X172271059Y-117516145D01*
X172366224Y-117235797D01*
X172404664Y-117042548D01*
X172423180Y-116949465D01*
X172423181Y-116949459D01*
X172423983Y-116945426D01*
X172424434Y-116938556D01*
X172443076Y-116654119D01*
X172443346Y-116650000D01*
X172432819Y-116489388D01*
X172424253Y-116358686D01*
X172424252Y-116358679D01*
X172423983Y-116354574D01*
X172422036Y-116344782D01*
X172367030Y-116068253D01*
X172367028Y-116068247D01*
X172366224Y-116064203D01*
X172332835Y-115965840D01*
X172272385Y-115787761D01*
X172272384Y-115787760D01*
X172271059Y-115783855D01*
X172163200Y-115565138D01*
X172141942Y-115522031D01*
X172141939Y-115522026D01*
X172140115Y-115518327D01*
X171975633Y-115272162D01*
X171972919Y-115269068D01*
X171972915Y-115269062D01*
X171783136Y-115052662D01*
X171780427Y-115049573D01*
X171777338Y-115046864D01*
X171560938Y-114857085D01*
X171560932Y-114857081D01*
X171557838Y-114854367D01*
X171554412Y-114852078D01*
X171554407Y-114852074D01*
X171315106Y-114692179D01*
X171311673Y-114689885D01*
X171307974Y-114688061D01*
X171307969Y-114688058D01*
X171171687Y-114620852D01*
X171046145Y-114558941D01*
X171042239Y-114557615D01*
X170769710Y-114465104D01*
X170769706Y-114465103D01*
X170765797Y-114463776D01*
X170761753Y-114462972D01*
X170761747Y-114462970D01*
X170479465Y-114406820D01*
X170479459Y-114406819D01*
X170475426Y-114406017D01*
X170471321Y-114405748D01*
X170471314Y-114405747D01*
X170184119Y-114386924D01*
X170180000Y-114386654D01*
X170175881Y-114386924D01*
X169888686Y-114405747D01*
X169888679Y-114405748D01*
X169884574Y-114406017D01*
X169880541Y-114406819D01*
X169880535Y-114406820D01*
X169598253Y-114462970D01*
X169598247Y-114462972D01*
X169594203Y-114463776D01*
X169590294Y-114465103D01*
X169590290Y-114465104D01*
X169317761Y-114557615D01*
X169313855Y-114558941D01*
X169188313Y-114620852D01*
X169052031Y-114688058D01*
X169052026Y-114688061D01*
X169048327Y-114689885D01*
X169044894Y-114692179D01*
X168805593Y-114852074D01*
X168805588Y-114852078D01*
X168802162Y-114854367D01*
X168799068Y-114857081D01*
X168799062Y-114857085D01*
X168582662Y-115046864D01*
X168579573Y-115049573D01*
X168576864Y-115052662D01*
X168387085Y-115269062D01*
X168387081Y-115269068D01*
X168384367Y-115272162D01*
X168219885Y-115518327D01*
X168218061Y-115522026D01*
X168218058Y-115522031D01*
X168196800Y-115565138D01*
X168088941Y-115783855D01*
X168087616Y-115787760D01*
X168087615Y-115787761D01*
X168027166Y-115965840D01*
X167993776Y-116064203D01*
X167992972Y-116068247D01*
X167992970Y-116068253D01*
X167937965Y-116344782D01*
X167936017Y-116354574D01*
X167935748Y-116358679D01*
X167935747Y-116358686D01*
X167927181Y-116489388D01*
X167916654Y-116650000D01*
X161810448Y-116650000D01*
X154445405Y-109284957D01*
X154411379Y-109222645D01*
X154408500Y-109195862D01*
X154408500Y-100098402D01*
X166179000Y-100098402D01*
X166193678Y-100276937D01*
X166252206Y-100509944D01*
X166348003Y-100730263D01*
X166383823Y-100785632D01*
X166467857Y-100915528D01*
X166478498Y-100931977D01*
X166640186Y-101109670D01*
X166715888Y-101169456D01*
X166824670Y-101255367D01*
X166824675Y-101255370D01*
X166828724Y-101258568D01*
X166833240Y-101261061D01*
X166833243Y-101261063D01*
X167034526Y-101372177D01*
X167034530Y-101372179D01*
X167039050Y-101374674D01*
X167043919Y-101376398D01*
X167043923Y-101376400D01*
X167260640Y-101453144D01*
X167260644Y-101453145D01*
X167265515Y-101454870D01*
X167270608Y-101455777D01*
X167270611Y-101455778D01*
X167496948Y-101496095D01*
X167496954Y-101496096D01*
X167502037Y-101497001D01*
X167589400Y-101498068D01*
X167737093Y-101499873D01*
X167737095Y-101499873D01*
X167742263Y-101499936D01*
X167979744Y-101463596D01*
X168091997Y-101426906D01*
X168203183Y-101390566D01*
X168203189Y-101390563D01*
X168208101Y-101388958D01*
X168212687Y-101386571D01*
X168212691Y-101386569D01*
X168416607Y-101280416D01*
X168421200Y-101278025D01*
X168613320Y-101133777D01*
X168779301Y-100960088D01*
X168794744Y-100937449D01*
X168849654Y-100892446D01*
X168920179Y-100884274D01*
X168983926Y-100915528D01*
X168993346Y-100925128D01*
X169125350Y-101074858D01*
X169125353Y-101074861D01*
X169128698Y-101078655D01*
X169132606Y-101081865D01*
X169132607Y-101081866D01*
X169309294Y-101226997D01*
X169316278Y-101232734D01*
X169398204Y-101280416D01*
X169511027Y-101346081D01*
X169526078Y-101354841D01*
X169530801Y-101356654D01*
X169747972Y-101440018D01*
X169747979Y-101440020D01*
X169752702Y-101441833D01*
X169783418Y-101448250D01*
X169799708Y-101452813D01*
X169805515Y-101454870D01*
X169868780Y-101466140D01*
X169872432Y-101466846D01*
X169990320Y-101491474D01*
X169995371Y-101491703D01*
X169995376Y-101491704D01*
X170004110Y-101492100D01*
X170009840Y-101492360D01*
X170026209Y-101494182D01*
X170042037Y-101497001D01*
X170070560Y-101497350D01*
X170135726Y-101498146D01*
X170139901Y-101498267D01*
X170227762Y-101502257D01*
X170227769Y-101502257D01*
X170232817Y-101502486D01*
X170249491Y-101500557D01*
X170265507Y-101499731D01*
X170272214Y-101499813D01*
X170277094Y-101499873D01*
X170277096Y-101499873D01*
X170282263Y-101499936D01*
X170364962Y-101487282D01*
X170369517Y-101486669D01*
X170473956Y-101474585D01*
X170497095Y-101468037D01*
X170512331Y-101464730D01*
X170519744Y-101463596D01*
X170562202Y-101449719D01*
X170566993Y-101448258D01*
X170707532Y-101408490D01*
X170712108Y-101406356D01*
X170712114Y-101406354D01*
X170922954Y-101308038D01*
X170922958Y-101308036D01*
X170927536Y-101305901D01*
X171125956Y-101171054D01*
X171193539Y-101149308D01*
X171262151Y-101167552D01*
X171310008Y-101219995D01*
X171313021Y-101226997D01*
X171313733Y-101228297D01*
X171316885Y-101236705D01*
X171404239Y-101353261D01*
X171520795Y-101440615D01*
X171657184Y-101491745D01*
X171719366Y-101498500D01*
X173720634Y-101498500D01*
X173782816Y-101491745D01*
X173919205Y-101440615D01*
X174035761Y-101353261D01*
X174123115Y-101236705D01*
X174174245Y-101100316D01*
X174181000Y-101038134D01*
X174181000Y-99477094D01*
X174201002Y-99408973D01*
X174217905Y-99387999D01*
X175652247Y-97953657D01*
X175660537Y-97946113D01*
X175667018Y-97942000D01*
X175713659Y-97892332D01*
X175716413Y-97889491D01*
X175736134Y-97869770D01*
X175738612Y-97866575D01*
X175746318Y-97857553D01*
X175771158Y-97831101D01*
X175776586Y-97825321D01*
X175786346Y-97807568D01*
X175797199Y-97791045D01*
X175800452Y-97786851D01*
X175809613Y-97775041D01*
X175827176Y-97734457D01*
X175832383Y-97723827D01*
X175853695Y-97685060D01*
X175855666Y-97677383D01*
X175855668Y-97677378D01*
X175858732Y-97665442D01*
X175865138Y-97646730D01*
X175870034Y-97635417D01*
X175873181Y-97628145D01*
X175878032Y-97597522D01*
X175880097Y-97584481D01*
X175882504Y-97572860D01*
X175891528Y-97537711D01*
X175891528Y-97537710D01*
X175893500Y-97530030D01*
X175893500Y-97509769D01*
X175895051Y-97490058D01*
X175896979Y-97477885D01*
X175898219Y-97470057D01*
X175894059Y-97426046D01*
X175893500Y-97414189D01*
X175893500Y-81351793D01*
X175895732Y-81328184D01*
X175895790Y-81327881D01*
X175895790Y-81327877D01*
X175897275Y-81320094D01*
X175893749Y-81264049D01*
X175893500Y-81256138D01*
X175893500Y-81240144D01*
X175891494Y-81224270D01*
X175890751Y-81216402D01*
X175887723Y-81168263D01*
X175887723Y-81168262D01*
X175887225Y-81160350D01*
X175884679Y-81152513D01*
X175879506Y-81129369D01*
X175879468Y-81129065D01*
X175879467Y-81129060D01*
X175878474Y-81121203D01*
X175875558Y-81113838D01*
X175875557Y-81113834D01*
X175857801Y-81068989D01*
X175855129Y-81061570D01*
X175837764Y-81008125D01*
X175833514Y-81001428D01*
X175833350Y-81001169D01*
X175822585Y-80980042D01*
X175822471Y-80979754D01*
X175822468Y-80979749D01*
X175819552Y-80972383D01*
X175814896Y-80965975D01*
X175814893Y-80965969D01*
X175786542Y-80926948D01*
X175782092Y-80920401D01*
X175752000Y-80872982D01*
X175745993Y-80867341D01*
X175730312Y-80849554D01*
X175730134Y-80849309D01*
X175730132Y-80849307D01*
X175725472Y-80842893D01*
X175719362Y-80837838D01*
X175682204Y-80807097D01*
X175676270Y-80801866D01*
X175641102Y-80768842D01*
X175641099Y-80768840D01*
X175635321Y-80763414D01*
X175628097Y-80759442D01*
X175608494Y-80746119D01*
X175608254Y-80745920D01*
X175608247Y-80745916D01*
X175602144Y-80740867D01*
X175555228Y-80718790D01*
X175519781Y-80693877D01*
X172627443Y-77801538D01*
X172593417Y-77739226D01*
X172592453Y-77690561D01*
X172593264Y-77685961D01*
X172594686Y-77680655D01*
X172595166Y-77675175D01*
X172612637Y-77475475D01*
X172613116Y-77470000D01*
X172594686Y-77259345D01*
X172539956Y-77055090D01*
X172450589Y-76863442D01*
X172329301Y-76690224D01*
X172179776Y-76540699D01*
X172006558Y-76419411D01*
X172001580Y-76417090D01*
X172001577Y-76417088D01*
X171819892Y-76332367D01*
X171819891Y-76332366D01*
X171814910Y-76330044D01*
X171809602Y-76328622D01*
X171809600Y-76328621D01*
X171615970Y-76276738D01*
X171615968Y-76276738D01*
X171610655Y-76275314D01*
X171400000Y-76256884D01*
X171394525Y-76257363D01*
X171194816Y-76274835D01*
X171194812Y-76274836D01*
X171189345Y-76275314D01*
X171184039Y-76276736D01*
X171179439Y-76277547D01*
X171108879Y-76269679D01*
X171068462Y-76242557D01*
X169580405Y-74754500D01*
X169546379Y-74692188D01*
X169543500Y-74665405D01*
X169543500Y-74122315D01*
X169563502Y-74054194D01*
X169597230Y-74019102D01*
X169685264Y-73957460D01*
X169689776Y-73954301D01*
X169839301Y-73804776D01*
X169960589Y-73631558D01*
X170049956Y-73439910D01*
X170058293Y-73408796D01*
X170095245Y-73348173D01*
X170159106Y-73317152D01*
X170229600Y-73325580D01*
X170284347Y-73370783D01*
X170301707Y-73408796D01*
X170310044Y-73439910D01*
X170399411Y-73631558D01*
X170520699Y-73804776D01*
X170670224Y-73954301D01*
X170843442Y-74075589D01*
X170848420Y-74077910D01*
X170848423Y-74077912D01*
X170943646Y-74122315D01*
X171035090Y-74164956D01*
X171040398Y-74166378D01*
X171040400Y-74166379D01*
X171234030Y-74218262D01*
X171234032Y-74218262D01*
X171239345Y-74219686D01*
X171450000Y-74238116D01*
X171660655Y-74219686D01*
X171665968Y-74218262D01*
X171665970Y-74218262D01*
X171859600Y-74166379D01*
X171859602Y-74166378D01*
X171864910Y-74164956D01*
X171956354Y-74122315D01*
X172051577Y-74077912D01*
X172051580Y-74077910D01*
X172056558Y-74075589D01*
X172229776Y-73954301D01*
X172379301Y-73804776D01*
X172500589Y-73631558D01*
X172589956Y-73439910D01*
X172644686Y-73235655D01*
X172663116Y-73025000D01*
X172644686Y-72814345D01*
X172643262Y-72809029D01*
X172642452Y-72804437D01*
X172650321Y-72733877D01*
X172677443Y-72693461D01*
X173112247Y-72258657D01*
X173120537Y-72251113D01*
X173127018Y-72247000D01*
X173173659Y-72197332D01*
X173176413Y-72194491D01*
X173196134Y-72174770D01*
X173198612Y-72171575D01*
X173206318Y-72162553D01*
X173231158Y-72136101D01*
X173236586Y-72130321D01*
X173246346Y-72112568D01*
X173257199Y-72096045D01*
X173264753Y-72086306D01*
X173269613Y-72080041D01*
X173287176Y-72039457D01*
X173292383Y-72028827D01*
X173313695Y-71990060D01*
X173315666Y-71982383D01*
X173315668Y-71982378D01*
X173318732Y-71970442D01*
X173325138Y-71951730D01*
X173330033Y-71940419D01*
X173333181Y-71933145D01*
X173334421Y-71925317D01*
X173334423Y-71925310D01*
X173340099Y-71889476D01*
X173342505Y-71877856D01*
X173351528Y-71842711D01*
X173351528Y-71842710D01*
X173353500Y-71835030D01*
X173353500Y-71814776D01*
X173355051Y-71795065D01*
X173356980Y-71782886D01*
X173358220Y-71775057D01*
X173354059Y-71731038D01*
X173353500Y-71719181D01*
X173353500Y-69860427D01*
X173373502Y-69792306D01*
X173414618Y-69752550D01*
X173417994Y-69750896D01*
X173599860Y-69621173D01*
X173758096Y-69463489D01*
X173888453Y-69282077D01*
X173987430Y-69081811D01*
X174052370Y-68868069D01*
X174081529Y-68646590D01*
X174083156Y-68580000D01*
X174064852Y-68357361D01*
X174010431Y-68140702D01*
X173921354Y-67935840D01*
X173800014Y-67748277D01*
X173649670Y-67583051D01*
X173645619Y-67579852D01*
X173645615Y-67579848D01*
X173478414Y-67447800D01*
X173478410Y-67447798D01*
X173474359Y-67444598D01*
X173278789Y-67336638D01*
X173273920Y-67334914D01*
X173273916Y-67334912D01*
X173073087Y-67263795D01*
X173073083Y-67263794D01*
X173068212Y-67262069D01*
X173063119Y-67261162D01*
X173063116Y-67261161D01*
X172853373Y-67223800D01*
X172853367Y-67223799D01*
X172848284Y-67222894D01*
X172774452Y-67221992D01*
X172630081Y-67220228D01*
X172630079Y-67220228D01*
X172624911Y-67220165D01*
X172404091Y-67253955D01*
X172191756Y-67323357D01*
X171993607Y-67426507D01*
X171989474Y-67429610D01*
X171989471Y-67429612D01*
X171906450Y-67491946D01*
X171814965Y-67560635D01*
X171811393Y-67564373D01*
X171733898Y-67645466D01*
X171672374Y-67680895D01*
X171601462Y-67677438D01*
X171543676Y-67636192D01*
X171524823Y-67602644D01*
X171483324Y-67491946D01*
X171474786Y-67476351D01*
X171398285Y-67374276D01*
X171385724Y-67361715D01*
X171283649Y-67285214D01*
X171268054Y-67276676D01*
X171147606Y-67231522D01*
X171132351Y-67227895D01*
X171081486Y-67222369D01*
X171074672Y-67222000D01*
X170452115Y-67222000D01*
X170436876Y-67226475D01*
X170435671Y-67227865D01*
X170434000Y-67235548D01*
X170434000Y-69919884D01*
X170438475Y-69935123D01*
X170439865Y-69936328D01*
X170447548Y-69937999D01*
X171074669Y-69937999D01*
X171081490Y-69937629D01*
X171132352Y-69932105D01*
X171147604Y-69928479D01*
X171268054Y-69883324D01*
X171283649Y-69874786D01*
X171385724Y-69798285D01*
X171398285Y-69785724D01*
X171474786Y-69683649D01*
X171483324Y-69668054D01*
X171524225Y-69558952D01*
X171566867Y-69502188D01*
X171633428Y-69477488D01*
X171702777Y-69492696D01*
X171737444Y-69520684D01*
X171762865Y-69550031D01*
X171762869Y-69550035D01*
X171766250Y-69553938D01*
X171938126Y-69696632D01*
X171942593Y-69699242D01*
X172024070Y-69746853D01*
X172072794Y-69798491D01*
X172086500Y-69855641D01*
X172086500Y-71440405D01*
X172066498Y-71508526D01*
X172049595Y-71529500D01*
X171781538Y-71797557D01*
X171719226Y-71831583D01*
X171670561Y-71832547D01*
X171665961Y-71831736D01*
X171660655Y-71830314D01*
X171655188Y-71829836D01*
X171655184Y-71829835D01*
X171455475Y-71812363D01*
X171450000Y-71811884D01*
X171239345Y-71830314D01*
X171234032Y-71831738D01*
X171234030Y-71831738D01*
X171040400Y-71883621D01*
X171040398Y-71883622D01*
X171035090Y-71885044D01*
X171030109Y-71887366D01*
X171030108Y-71887367D01*
X170848423Y-71972088D01*
X170848420Y-71972090D01*
X170843442Y-71974411D01*
X170670224Y-72095699D01*
X170520699Y-72245224D01*
X170399411Y-72418442D01*
X170397090Y-72423420D01*
X170397088Y-72423423D01*
X170390769Y-72436975D01*
X170310044Y-72610090D01*
X170308622Y-72615398D01*
X170308621Y-72615400D01*
X170301707Y-72641204D01*
X170264755Y-72701827D01*
X170200894Y-72732848D01*
X170130400Y-72724420D01*
X170075653Y-72679217D01*
X170058293Y-72641204D01*
X170051379Y-72615400D01*
X170051378Y-72615398D01*
X170049956Y-72610090D01*
X169969231Y-72436975D01*
X169962912Y-72423423D01*
X169962910Y-72423420D01*
X169960589Y-72418442D01*
X169839301Y-72245224D01*
X169689776Y-72095699D01*
X169516558Y-71974411D01*
X169511580Y-71972090D01*
X169511577Y-71972088D01*
X169329892Y-71887367D01*
X169329891Y-71887366D01*
X169324910Y-71885044D01*
X169319602Y-71883622D01*
X169319600Y-71883621D01*
X169125970Y-71831738D01*
X169125968Y-71831738D01*
X169120655Y-71830314D01*
X168910000Y-71811884D01*
X168699345Y-71830314D01*
X168694032Y-71831738D01*
X168694030Y-71831738D01*
X168500400Y-71883621D01*
X168500398Y-71883622D01*
X168495090Y-71885044D01*
X168490109Y-71887366D01*
X168490108Y-71887367D01*
X168308423Y-71972088D01*
X168308420Y-71972090D01*
X168303442Y-71974411D01*
X168130224Y-72095699D01*
X167980699Y-72245224D01*
X167859411Y-72418442D01*
X167857090Y-72423420D01*
X167857088Y-72423423D01*
X167850769Y-72436975D01*
X167770044Y-72610090D01*
X167768622Y-72615398D01*
X167768621Y-72615400D01*
X167717969Y-72804437D01*
X167715314Y-72814345D01*
X167696884Y-73025000D01*
X167715314Y-73235655D01*
X167770044Y-73439910D01*
X167859411Y-73631558D01*
X167980699Y-73804776D01*
X168130224Y-73954301D01*
X168134736Y-73957460D01*
X168222770Y-74019102D01*
X168267099Y-74074559D01*
X168276500Y-74122315D01*
X168276500Y-74901233D01*
X168275973Y-74912416D01*
X168274298Y-74919909D01*
X168274547Y-74927835D01*
X168274547Y-74927836D01*
X168276438Y-74987986D01*
X168276500Y-74991945D01*
X168276500Y-75019856D01*
X168276997Y-75023790D01*
X168276997Y-75023791D01*
X168277005Y-75023856D01*
X168277938Y-75035693D01*
X168279327Y-75079889D01*
X168284978Y-75099339D01*
X168288987Y-75118700D01*
X168291526Y-75138797D01*
X168294445Y-75146168D01*
X168294445Y-75146170D01*
X168307804Y-75179912D01*
X168311649Y-75191142D01*
X168323982Y-75233593D01*
X168328015Y-75240412D01*
X168328017Y-75240417D01*
X168334293Y-75251028D01*
X168342988Y-75268776D01*
X168350448Y-75287617D01*
X168355110Y-75294033D01*
X168355110Y-75294034D01*
X168376436Y-75323387D01*
X168382952Y-75333307D01*
X168405458Y-75371362D01*
X168419779Y-75385683D01*
X168432619Y-75400716D01*
X168444528Y-75417107D01*
X168450634Y-75422158D01*
X168478605Y-75445298D01*
X168487384Y-75453288D01*
X169087513Y-76053417D01*
X169121539Y-76115729D01*
X169116474Y-76186544D01*
X169073927Y-76243380D01*
X169007407Y-76268191D01*
X168987437Y-76268033D01*
X168865476Y-76257363D01*
X168865475Y-76257363D01*
X168860000Y-76256884D01*
X168649345Y-76275314D01*
X168644032Y-76276738D01*
X168644030Y-76276738D01*
X168450400Y-76328621D01*
X168450398Y-76328622D01*
X168445090Y-76330044D01*
X168440109Y-76332366D01*
X168440108Y-76332367D01*
X168258423Y-76417088D01*
X168258420Y-76417090D01*
X168253442Y-76419411D01*
X168080224Y-76540699D01*
X167930699Y-76690224D01*
X167809411Y-76863442D01*
X167720044Y-77055090D01*
X167665314Y-77259345D01*
X167646884Y-77470000D01*
X167665314Y-77680655D01*
X167666738Y-77685968D01*
X167666738Y-77685970D01*
X167697705Y-77801538D01*
X167720044Y-77884910D01*
X167809411Y-78076558D01*
X167930699Y-78249776D01*
X168080224Y-78399301D01*
X168253442Y-78520589D01*
X168258420Y-78522910D01*
X168258423Y-78522912D01*
X168440108Y-78607633D01*
X168445090Y-78609956D01*
X168450398Y-78611378D01*
X168450400Y-78611379D01*
X168644030Y-78663262D01*
X168644032Y-78663262D01*
X168649345Y-78664686D01*
X168860000Y-78683116D01*
X169070655Y-78664686D01*
X169075968Y-78663262D01*
X169075970Y-78663262D01*
X169269600Y-78611379D01*
X169269602Y-78611378D01*
X169274910Y-78609956D01*
X169279892Y-78607633D01*
X169461577Y-78522912D01*
X169461580Y-78522910D01*
X169466558Y-78520589D01*
X169639776Y-78399301D01*
X169789301Y-78249776D01*
X169910589Y-78076558D01*
X169999956Y-77884910D01*
X170008293Y-77853796D01*
X170045245Y-77793173D01*
X170109106Y-77762152D01*
X170179600Y-77770580D01*
X170234347Y-77815783D01*
X170251707Y-77853796D01*
X170260044Y-77884910D01*
X170349411Y-78076558D01*
X170470699Y-78249776D01*
X170620224Y-78399301D01*
X170793442Y-78520589D01*
X170798420Y-78522910D01*
X170798423Y-78522912D01*
X170980108Y-78607633D01*
X170985090Y-78609956D01*
X170990398Y-78611378D01*
X170990400Y-78611379D01*
X171184030Y-78663262D01*
X171184032Y-78663262D01*
X171189345Y-78664686D01*
X171400000Y-78683116D01*
X171610655Y-78664686D01*
X171615971Y-78663262D01*
X171620563Y-78662452D01*
X171691123Y-78670321D01*
X171731539Y-78697443D01*
X174589595Y-81555499D01*
X174623621Y-81617811D01*
X174626500Y-81644594D01*
X174626500Y-97135405D01*
X174606498Y-97203526D01*
X174589595Y-97224500D01*
X173369500Y-98444595D01*
X173307188Y-98478621D01*
X173280405Y-98481500D01*
X171814500Y-98481500D01*
X171746379Y-98461498D01*
X171699886Y-98407842D01*
X171688500Y-98355500D01*
X171688500Y-95746276D01*
X171708502Y-95678155D01*
X171757297Y-95634009D01*
X171933717Y-95544119D01*
X171933724Y-95544115D01*
X171936658Y-95542620D01*
X171951814Y-95532778D01*
X172242300Y-95344134D01*
X172245075Y-95342332D01*
X172530867Y-95110902D01*
X172790902Y-94850867D01*
X173022332Y-94565075D01*
X173222620Y-94256657D01*
X173289685Y-94125036D01*
X173388075Y-93931934D01*
X173389573Y-93928994D01*
X173521361Y-93585674D01*
X173616541Y-93230459D01*
X173674069Y-92867241D01*
X173693315Y-92500000D01*
X173674069Y-92132759D01*
X173662134Y-92057401D01*
X173637723Y-91903277D01*
X173616541Y-91769541D01*
X173521361Y-91414326D01*
X173502771Y-91365896D01*
X173428433Y-91172240D01*
X173389573Y-91071006D01*
X173355427Y-91003990D01*
X173224119Y-90746284D01*
X173224115Y-90746277D01*
X173222620Y-90743343D01*
X173195417Y-90701453D01*
X173024134Y-90437700D01*
X173022332Y-90434925D01*
X172790902Y-90149133D01*
X172530867Y-89889098D01*
X172245075Y-89657668D01*
X172042901Y-89526375D01*
X171939427Y-89459178D01*
X171939424Y-89459176D01*
X171936658Y-89457380D01*
X171933724Y-89455885D01*
X171933717Y-89455881D01*
X171611934Y-89291925D01*
X171608994Y-89290427D01*
X171309950Y-89175635D01*
X171268764Y-89159825D01*
X171268762Y-89159824D01*
X171265674Y-89158639D01*
X170910459Y-89063459D01*
X170717442Y-89032888D01*
X170550489Y-89006445D01*
X170550481Y-89006444D01*
X170547241Y-89005931D01*
X170180000Y-88986685D01*
X169812759Y-89005931D01*
X169809519Y-89006444D01*
X169809511Y-89006445D01*
X169642558Y-89032888D01*
X169449541Y-89063459D01*
X169094326Y-89158639D01*
X169091238Y-89159824D01*
X169091236Y-89159825D01*
X169050050Y-89175635D01*
X168751006Y-89290427D01*
X168748066Y-89291925D01*
X168426284Y-89455881D01*
X168426277Y-89455885D01*
X168423343Y-89457380D01*
X168114925Y-89657668D01*
X167829133Y-89889098D01*
X167569098Y-90149133D01*
X167337668Y-90434925D01*
X167335866Y-90437700D01*
X167164584Y-90701453D01*
X167137380Y-90743343D01*
X167135885Y-90746277D01*
X167135881Y-90746284D01*
X167004573Y-91003990D01*
X166970427Y-91071006D01*
X166931567Y-91172240D01*
X166857230Y-91365896D01*
X166838639Y-91414326D01*
X166743459Y-91769541D01*
X166722277Y-91903277D01*
X166697867Y-92057401D01*
X166685931Y-92132759D01*
X166666685Y-92500000D01*
X166685931Y-92867241D01*
X166743459Y-93230459D01*
X166838639Y-93585674D01*
X166970427Y-93928994D01*
X166971925Y-93931934D01*
X167070316Y-94125036D01*
X167137380Y-94256657D01*
X167337668Y-94565075D01*
X167569098Y-94850867D01*
X167829133Y-95110902D01*
X168114925Y-95342332D01*
X168117700Y-95344134D01*
X168408187Y-95532778D01*
X168423342Y-95542620D01*
X168426276Y-95544115D01*
X168426283Y-95544119D01*
X168602703Y-95634009D01*
X168654318Y-95682757D01*
X168671500Y-95746276D01*
X168671500Y-98635290D01*
X168651498Y-98703411D01*
X168597842Y-98749904D01*
X168527568Y-98760008D01*
X168467409Y-98734173D01*
X168466833Y-98733719D01*
X168451276Y-98721432D01*
X168446760Y-98718939D01*
X168446757Y-98718937D01*
X168245474Y-98607823D01*
X168245470Y-98607821D01*
X168240950Y-98605326D01*
X168236081Y-98603602D01*
X168236077Y-98603600D01*
X168019360Y-98526856D01*
X168019356Y-98526855D01*
X168014485Y-98525130D01*
X168009392Y-98524223D01*
X168009389Y-98524222D01*
X167783052Y-98483905D01*
X167783046Y-98483904D01*
X167777963Y-98482999D01*
X167690600Y-98481932D01*
X167542907Y-98480127D01*
X167542905Y-98480127D01*
X167537737Y-98480064D01*
X167300256Y-98516404D01*
X167188003Y-98553094D01*
X167076817Y-98589434D01*
X167076811Y-98589437D01*
X167071899Y-98591042D01*
X167067313Y-98593429D01*
X167067309Y-98593431D01*
X166863393Y-98699584D01*
X166858800Y-98701975D01*
X166666680Y-98846223D01*
X166500699Y-99019912D01*
X166365314Y-99218378D01*
X166264163Y-99436290D01*
X166199960Y-99667798D01*
X166179000Y-99863928D01*
X166179000Y-100098402D01*
X154408500Y-100098402D01*
X154408500Y-69474669D01*
X168822001Y-69474669D01*
X168822371Y-69481490D01*
X168827895Y-69532352D01*
X168831521Y-69547604D01*
X168876676Y-69668054D01*
X168885214Y-69683649D01*
X168961715Y-69785724D01*
X168974276Y-69798285D01*
X169076351Y-69874786D01*
X169091946Y-69883324D01*
X169212394Y-69928478D01*
X169227649Y-69932105D01*
X169278514Y-69937631D01*
X169285328Y-69938000D01*
X169907885Y-69938000D01*
X169923124Y-69933525D01*
X169924329Y-69932135D01*
X169926000Y-69924452D01*
X169926000Y-68852115D01*
X169921525Y-68836876D01*
X169920135Y-68835671D01*
X169912452Y-68834000D01*
X168840116Y-68834000D01*
X168824877Y-68838475D01*
X168823672Y-68839865D01*
X168822001Y-68847548D01*
X168822001Y-69474669D01*
X154408500Y-69474669D01*
X154408500Y-68307885D01*
X168822000Y-68307885D01*
X168826475Y-68323124D01*
X168827865Y-68324329D01*
X168835548Y-68326000D01*
X169907885Y-68326000D01*
X169923124Y-68321525D01*
X169924329Y-68320135D01*
X169926000Y-68312452D01*
X169926000Y-67240116D01*
X169921525Y-67224877D01*
X169920135Y-67223672D01*
X169912452Y-67222001D01*
X169285331Y-67222001D01*
X169278510Y-67222371D01*
X169227648Y-67227895D01*
X169212396Y-67231521D01*
X169091946Y-67276676D01*
X169076351Y-67285214D01*
X168974276Y-67361715D01*
X168961715Y-67374276D01*
X168885214Y-67476351D01*
X168876676Y-67491946D01*
X168831522Y-67612394D01*
X168827895Y-67627649D01*
X168822369Y-67678514D01*
X168822000Y-67685328D01*
X168822000Y-68307885D01*
X154408500Y-68307885D01*
X154408500Y-66574500D01*
X154428502Y-66506379D01*
X154482158Y-66459886D01*
X154534500Y-66448500D01*
X155623134Y-66448500D01*
X155685316Y-66441745D01*
X155821705Y-66390615D01*
X155938261Y-66303261D01*
X156025615Y-66186705D01*
X156076745Y-66050316D01*
X156083500Y-65988134D01*
X156083500Y-58551866D01*
X156076745Y-58489684D01*
X156025615Y-58353295D01*
X155938261Y-58236739D01*
X155821705Y-58149385D01*
X155685316Y-58098255D01*
X155623134Y-58091500D01*
X149176866Y-58091500D01*
X149114684Y-58098255D01*
X148978295Y-58149385D01*
X148861739Y-58236739D01*
X148774385Y-58353295D01*
X148723255Y-58489684D01*
X148716500Y-58551866D01*
X148716500Y-65988134D01*
X130683500Y-65988134D01*
X130683500Y-58551866D01*
X130676745Y-58489684D01*
X130625615Y-58353295D01*
X130538261Y-58236739D01*
X130421705Y-58149385D01*
X130285316Y-58098255D01*
X130223134Y-58091500D01*
X123776866Y-58091500D01*
X123776265Y-58091565D01*
X123707686Y-58075404D01*
X123680873Y-58054969D01*
X122176310Y-56550405D01*
X120664132Y-55038227D01*
X120656592Y-55029941D01*
X120652480Y-55023462D01*
X120602828Y-54976836D01*
X120599987Y-54974082D01*
X120580250Y-54954345D01*
X120577053Y-54951865D01*
X120568031Y-54944160D01*
X120554596Y-54931544D01*
X120535801Y-54913894D01*
X120528855Y-54910075D01*
X120528852Y-54910073D01*
X120518046Y-54904132D01*
X120501527Y-54893281D01*
X120501063Y-54892921D01*
X120485521Y-54880866D01*
X120478252Y-54877721D01*
X120478248Y-54877718D01*
X120444943Y-54863306D01*
X120434293Y-54858089D01*
X120395540Y-54836785D01*
X120375917Y-54831747D01*
X120357214Y-54825343D01*
X120345900Y-54820447D01*
X120345899Y-54820447D01*
X120338625Y-54817299D01*
X120330802Y-54816060D01*
X120330792Y-54816057D01*
X120294956Y-54810381D01*
X120283336Y-54807975D01*
X120248191Y-54798952D01*
X120248190Y-54798952D01*
X120240510Y-54796980D01*
X120220256Y-54796980D01*
X120200545Y-54795429D01*
X120198014Y-54795028D01*
X120180537Y-54792260D01*
X120172645Y-54793006D01*
X120136519Y-54796421D01*
X120124661Y-54796980D01*
X64153303Y-54796980D01*
X64142119Y-54796453D01*
X64134631Y-54794779D01*
X64126708Y-54795028D01*
X64066573Y-54796918D01*
X64062615Y-54796980D01*
X64034684Y-54796980D01*
X64030769Y-54797475D01*
X64030765Y-54797475D01*
X64030707Y-54797483D01*
X64030678Y-54797486D01*
X64018836Y-54798419D01*
X63974650Y-54799807D01*
X63957284Y-54804852D01*
X63955198Y-54805458D01*
X63935846Y-54809466D01*
X63923608Y-54811012D01*
X63923606Y-54811013D01*
X63915743Y-54812006D01*
X63874626Y-54828286D01*
X63863425Y-54832121D01*
X63820946Y-54844462D01*
X63814127Y-54848495D01*
X63814122Y-54848497D01*
X63803511Y-54854773D01*
X63785761Y-54863470D01*
X63766923Y-54870928D01*
X63760507Y-54875589D01*
X63760506Y-54875590D01*
X63731165Y-54896908D01*
X63721241Y-54903427D01*
X63690000Y-54921902D01*
X63689995Y-54921906D01*
X63683177Y-54925938D01*
X63668853Y-54940262D01*
X63653821Y-54953101D01*
X63637433Y-54965008D01*
X63609252Y-54999073D01*
X63601262Y-55007853D01*
X55982258Y-62626857D01*
X55973972Y-62634397D01*
X55967493Y-62638509D01*
X55962068Y-62644286D01*
X55920868Y-62688160D01*
X55918113Y-62691002D01*
X55898376Y-62710739D01*
X55895896Y-62713936D01*
X55888193Y-62722956D01*
X55857925Y-62755188D01*
X55854106Y-62762134D01*
X55854104Y-62762137D01*
X55848163Y-62772943D01*
X55837312Y-62789462D01*
X55824897Y-62805468D01*
X55821752Y-62812737D01*
X55821749Y-62812741D01*
X55807337Y-62846046D01*
X55802120Y-62856696D01*
X55780816Y-62895449D01*
X55778845Y-62903124D01*
X55778845Y-62903125D01*
X55775778Y-62915071D01*
X55769374Y-62933775D01*
X55761330Y-62952364D01*
X55760091Y-62960187D01*
X55760088Y-62960197D01*
X55754412Y-62996033D01*
X55752006Y-63007653D01*
X55741011Y-63050479D01*
X55741011Y-63070733D01*
X55739460Y-63090443D01*
X55736291Y-63110452D01*
X55737037Y-63118344D01*
X55740452Y-63154470D01*
X55741011Y-63166328D01*
X55741011Y-83630500D01*
X55721009Y-83698621D01*
X55667353Y-83745114D01*
X55615011Y-83756500D01*
X54301866Y-83756500D01*
X54239684Y-83763255D01*
X54103295Y-83814385D01*
X53986739Y-83901739D01*
X53899385Y-84018295D01*
X53848255Y-84154684D01*
X53841500Y-84216866D01*
X53841500Y-86013134D01*
X53848255Y-86075316D01*
X53899385Y-86211705D01*
X53986739Y-86328261D01*
X54103295Y-86415615D01*
X54111704Y-86418767D01*
X54111705Y-86418768D01*
X54220451Y-86459535D01*
X54277216Y-86502176D01*
X54301916Y-86568738D01*
X54286709Y-86638087D01*
X54267316Y-86664568D01*
X54211961Y-86722494D01*
X54140629Y-86797138D01*
X54137715Y-86801410D01*
X54137714Y-86801411D01*
X54075663Y-86892375D01*
X54014743Y-86981680D01*
X53920688Y-87184305D01*
X53860989Y-87399570D01*
X53837251Y-87621695D01*
X53850110Y-87844715D01*
X53851247Y-87849761D01*
X53851248Y-87849767D01*
X53872275Y-87943069D01*
X53899222Y-88062639D01*
X53983266Y-88269616D01*
X54099987Y-88460088D01*
X54246250Y-88628938D01*
X54418126Y-88771632D01*
X54488595Y-88812811D01*
X54491445Y-88814476D01*
X54540169Y-88866114D01*
X54553240Y-88935897D01*
X54526509Y-89001669D01*
X54486055Y-89035027D01*
X54473607Y-89041507D01*
X54469474Y-89044610D01*
X54469471Y-89044612D01*
X54299100Y-89172530D01*
X54294965Y-89175635D01*
X54291393Y-89179373D01*
X54186399Y-89289243D01*
X54140629Y-89337138D01*
X54014743Y-89521680D01*
X53920688Y-89724305D01*
X53860989Y-89939570D01*
X53837251Y-90161695D01*
X53837548Y-90166848D01*
X53837548Y-90166851D01*
X53843011Y-90261590D01*
X53850110Y-90384715D01*
X53851247Y-90389761D01*
X53851248Y-90389767D01*
X53860845Y-90432349D01*
X53899222Y-90602639D01*
X53983266Y-90809616D01*
X54099987Y-91000088D01*
X54246250Y-91168938D01*
X54418126Y-91311632D01*
X54488595Y-91352811D01*
X54491445Y-91354476D01*
X54540169Y-91406114D01*
X54553240Y-91475897D01*
X54526509Y-91541669D01*
X54486055Y-91575027D01*
X54473607Y-91581507D01*
X54469474Y-91584610D01*
X54469471Y-91584612D01*
X54445247Y-91602800D01*
X54294965Y-91715635D01*
X54140629Y-91877138D01*
X54014743Y-92061680D01*
X53920688Y-92264305D01*
X53860989Y-92479570D01*
X53837251Y-92701695D01*
X51308500Y-92701695D01*
X51308500Y-53393250D01*
X51310246Y-53372345D01*
X51312770Y-53357344D01*
X51312770Y-53357341D01*
X51313576Y-53352552D01*
X51313729Y-53340000D01*
X51312003Y-53327947D01*
X51311001Y-53301845D01*
X51325340Y-53083078D01*
X51327491Y-53066738D01*
X51376111Y-52822307D01*
X51380375Y-52806394D01*
X51460485Y-52570398D01*
X51466791Y-52555174D01*
X51577016Y-52331658D01*
X51585257Y-52317384D01*
X51723713Y-52110171D01*
X51733746Y-52097095D01*
X51898068Y-51909722D01*
X51909722Y-51898068D01*
X52097095Y-51733746D01*
X52110171Y-51723713D01*
X52317384Y-51585257D01*
X52331658Y-51577016D01*
X52555174Y-51466791D01*
X52570400Y-51460484D01*
X52806394Y-51380375D01*
X52822304Y-51376112D01*
X52944523Y-51351801D01*
X53066738Y-51327491D01*
X53083078Y-51325340D01*
X53231866Y-51315587D01*
X53298237Y-51311237D01*
X53321350Y-51312267D01*
X53324854Y-51312310D01*
X53333724Y-51313691D01*
X53342626Y-51312527D01*
X53342628Y-51312527D01*
X53359449Y-51310327D01*
X53365286Y-51309564D01*
X53381621Y-51308500D01*
X175210633Y-51308500D01*
X175230018Y-51310000D01*
G37*
%TD.AperFunction*%
%TD*%
M02*
