%TF.GenerationSoftware,KiCad,Pcbnew,(6.0.5)*%
%TF.CreationDate,2022-05-14T14:58:19-07:00*%
%TF.ProjectId,li-ion-horn,6c692d69-6f6e-42d6-986f-726e2e6b6963,rev?*%
%TF.SameCoordinates,Original*%
%TF.FileFunction,Legend,Bot*%
%TF.FilePolarity,Positive*%
%FSLAX46Y46*%
G04 Gerber Fmt 4.6, Leading zero omitted, Abs format (unit mm)*
G04 Created by KiCad (PCBNEW (6.0.5)) date 2022-05-14 14:58:19*
%MOMM*%
%LPD*%
G01*
G04 APERTURE LIST*
%ADD10C,0.300000*%
%ADD11C,0.010000*%
G04 APERTURE END LIST*
D10*
X172162857Y-57777142D02*
X171448571Y-59777142D01*
X170734285Y-57777142D01*
X169734285Y-57062857D02*
X169591428Y-56920000D01*
X169305714Y-56777142D01*
X168591428Y-56777142D01*
X168305714Y-56920000D01*
X168162857Y-57062857D01*
X168020000Y-57348571D01*
X168020000Y-57634285D01*
X168162857Y-58062857D01*
X169877142Y-59777142D01*
X168020000Y-59777142D01*
X166162857Y-56777142D02*
X165877142Y-56777142D01*
X165591428Y-56920000D01*
X165448571Y-57062857D01*
X165305714Y-57348571D01*
X165162857Y-57920000D01*
X165162857Y-58634285D01*
X165305714Y-59205714D01*
X165448571Y-59491428D01*
X165591428Y-59634285D01*
X165877142Y-59777142D01*
X166162857Y-59777142D01*
X166448571Y-59634285D01*
X166591428Y-59491428D01*
X166734285Y-59205714D01*
X166877142Y-58634285D01*
X166877142Y-57920000D01*
X166734285Y-57348571D01*
X166591428Y-57062857D01*
X166448571Y-56920000D01*
X166162857Y-56777142D01*
X164020000Y-57062857D02*
X163877142Y-56920000D01*
X163591428Y-56777142D01*
X162877142Y-56777142D01*
X162591428Y-56920000D01*
X162448571Y-57062857D01*
X162305714Y-57348571D01*
X162305714Y-57634285D01*
X162448571Y-58062857D01*
X164162857Y-59777142D01*
X162305714Y-59777142D01*
X161162857Y-57062857D02*
X161020000Y-56920000D01*
X160734285Y-56777142D01*
X160020000Y-56777142D01*
X159734285Y-56920000D01*
X159591428Y-57062857D01*
X159448571Y-57348571D01*
X159448571Y-57634285D01*
X159591428Y-58062857D01*
X161305714Y-59777142D01*
X159448571Y-59777142D01*
X157591428Y-56777142D02*
X157305714Y-56777142D01*
X157020000Y-56920000D01*
X156877142Y-57062857D01*
X156734285Y-57348571D01*
X156591428Y-57920000D01*
X156591428Y-58634285D01*
X156734285Y-59205714D01*
X156877142Y-59491428D01*
X157020000Y-59634285D01*
X157305714Y-59777142D01*
X157591428Y-59777142D01*
X157877142Y-59634285D01*
X158020000Y-59491428D01*
X158162857Y-59205714D01*
X158305714Y-58634285D01*
X158305714Y-57920000D01*
X158162857Y-57348571D01*
X158020000Y-57062857D01*
X157877142Y-56920000D01*
X157591428Y-56777142D01*
X153877142Y-56777142D02*
X155305714Y-56777142D01*
X155448571Y-58205714D01*
X155305714Y-58062857D01*
X155020000Y-57920000D01*
X154305714Y-57920000D01*
X154020000Y-58062857D01*
X153877142Y-58205714D01*
X153734285Y-58491428D01*
X153734285Y-59205714D01*
X153877142Y-59491428D01*
X154020000Y-59634285D01*
X154305714Y-59777142D01*
X155020000Y-59777142D01*
X155305714Y-59634285D01*
X155448571Y-59491428D01*
X150877142Y-59777142D02*
X152591428Y-59777142D01*
X151734285Y-59777142D02*
X151734285Y-56777142D01*
X152020000Y-57205714D01*
X152305714Y-57491428D01*
X152591428Y-57634285D01*
X148305714Y-57777142D02*
X148305714Y-59777142D01*
X149020000Y-56634285D02*
X149734285Y-58777142D01*
X147877142Y-58777142D01*
%TO.C,G\u002A\u002A\u002A*%
G36*
X146120427Y-111987123D02*
G01*
X146121248Y-112435426D01*
X146117398Y-112802453D01*
X146109211Y-113058864D01*
X146097019Y-113175320D01*
X146083732Y-113196195D01*
X145937450Y-113260428D01*
X145671657Y-113284000D01*
X145288000Y-113284000D01*
X145288000Y-112183334D01*
X144825312Y-112183334D01*
X144552150Y-112200282D01*
X144329992Y-112284416D01*
X144218128Y-112463300D01*
X144187333Y-112763509D01*
X144179499Y-112963641D01*
X144120654Y-113165684D01*
X143975999Y-113260438D01*
X143712608Y-113284000D01*
X143340667Y-113284000D01*
X143340667Y-112900281D01*
X143369041Y-112584732D01*
X143453719Y-112261541D01*
X143576680Y-112008846D01*
X143719641Y-111876062D01*
X143781725Y-111838835D01*
X143770960Y-111760364D01*
X143640854Y-111613763D01*
X143557163Y-111519428D01*
X143399843Y-111204596D01*
X144193931Y-111204596D01*
X144288933Y-111404400D01*
X144356908Y-111441399D01*
X144565905Y-111487846D01*
X144839267Y-111506000D01*
X145288000Y-111506000D01*
X145288000Y-110659334D01*
X144925839Y-110659334D01*
X144854300Y-110661692D01*
X144580332Y-110706791D01*
X144375506Y-110791134D01*
X144226836Y-110976326D01*
X144193931Y-111204596D01*
X143399843Y-111204596D01*
X143391349Y-111187597D01*
X143377428Y-110835048D01*
X143511851Y-110495153D01*
X143791070Y-110201281D01*
X143817374Y-110182283D01*
X143938993Y-110112328D01*
X144088934Y-110066466D01*
X144302435Y-110039786D01*
X144614734Y-110027378D01*
X145061070Y-110024334D01*
X146092333Y-110024334D01*
X146102016Y-110659334D01*
X146115528Y-111545487D01*
X146120427Y-111987123D01*
G37*
D11*
X146120427Y-111987123D02*
X146121248Y-112435426D01*
X146117398Y-112802453D01*
X146109211Y-113058864D01*
X146097019Y-113175320D01*
X146083732Y-113196195D01*
X145937450Y-113260428D01*
X145671657Y-113284000D01*
X145288000Y-113284000D01*
X145288000Y-112183334D01*
X144825312Y-112183334D01*
X144552150Y-112200282D01*
X144329992Y-112284416D01*
X144218128Y-112463300D01*
X144187333Y-112763509D01*
X144179499Y-112963641D01*
X144120654Y-113165684D01*
X143975999Y-113260438D01*
X143712608Y-113284000D01*
X143340667Y-113284000D01*
X143340667Y-112900281D01*
X143369041Y-112584732D01*
X143453719Y-112261541D01*
X143576680Y-112008846D01*
X143719641Y-111876062D01*
X143781725Y-111838835D01*
X143770960Y-111760364D01*
X143640854Y-111613763D01*
X143557163Y-111519428D01*
X143399843Y-111204596D01*
X144193931Y-111204596D01*
X144288933Y-111404400D01*
X144356908Y-111441399D01*
X144565905Y-111487846D01*
X144839267Y-111506000D01*
X145288000Y-111506000D01*
X145288000Y-110659334D01*
X144925839Y-110659334D01*
X144854300Y-110661692D01*
X144580332Y-110706791D01*
X144375506Y-110791134D01*
X144226836Y-110976326D01*
X144193931Y-111204596D01*
X143399843Y-111204596D01*
X143391349Y-111187597D01*
X143377428Y-110835048D01*
X143511851Y-110495153D01*
X143791070Y-110201281D01*
X143817374Y-110182283D01*
X143938993Y-110112328D01*
X144088934Y-110066466D01*
X144302435Y-110039786D01*
X144614734Y-110027378D01*
X145061070Y-110024334D01*
X146092333Y-110024334D01*
X146102016Y-110659334D01*
X146115528Y-111545487D01*
X146120427Y-111987123D01*
G36*
X142920403Y-112099799D02*
G01*
X142712008Y-112540001D01*
X142404710Y-112910584D01*
X142028333Y-113163997D01*
X141956553Y-113191371D01*
X141623342Y-113257751D01*
X141223316Y-113276437D01*
X140831135Y-113247150D01*
X140521458Y-113169612D01*
X140425214Y-113123363D01*
X140082711Y-112858233D01*
X139798077Y-112488037D01*
X139603611Y-112062912D01*
X139531611Y-111633000D01*
X139534811Y-111565983D01*
X140366877Y-111565983D01*
X140412966Y-111935724D01*
X140610167Y-112269605D01*
X140692224Y-112351551D01*
X141003660Y-112538296D01*
X141331462Y-112583604D01*
X141643081Y-112501097D01*
X141905966Y-112304398D01*
X142087567Y-112007131D01*
X142155333Y-111622918D01*
X142151292Y-111501521D01*
X142085237Y-111229504D01*
X141908279Y-110978169D01*
X141724774Y-110802306D01*
X141537463Y-110720836D01*
X141266333Y-110701667D01*
X140998673Y-110720132D01*
X140810676Y-110800317D01*
X140624388Y-110978169D01*
X140471461Y-111200068D01*
X140366877Y-111565983D01*
X139534811Y-111565983D01*
X139536931Y-111521584D01*
X139644483Y-111088060D01*
X139865954Y-110672593D01*
X140169045Y-110325323D01*
X140521458Y-110096389D01*
X140538836Y-110089406D01*
X140856889Y-110014424D01*
X141252848Y-109985638D01*
X141646923Y-110004398D01*
X141959322Y-110072053D01*
X142062986Y-110117504D01*
X142423231Y-110377332D01*
X142720784Y-110744985D01*
X142923727Y-111173160D01*
X143000141Y-111614553D01*
X143000115Y-111622918D01*
X143000072Y-111637530D01*
X142920403Y-112099799D01*
G37*
X142920403Y-112099799D02*
X142712008Y-112540001D01*
X142404710Y-112910584D01*
X142028333Y-113163997D01*
X141956553Y-113191371D01*
X141623342Y-113257751D01*
X141223316Y-113276437D01*
X140831135Y-113247150D01*
X140521458Y-113169612D01*
X140425214Y-113123363D01*
X140082711Y-112858233D01*
X139798077Y-112488037D01*
X139603611Y-112062912D01*
X139531611Y-111633000D01*
X139534811Y-111565983D01*
X140366877Y-111565983D01*
X140412966Y-111935724D01*
X140610167Y-112269605D01*
X140692224Y-112351551D01*
X141003660Y-112538296D01*
X141331462Y-112583604D01*
X141643081Y-112501097D01*
X141905966Y-112304398D01*
X142087567Y-112007131D01*
X142155333Y-111622918D01*
X142151292Y-111501521D01*
X142085237Y-111229504D01*
X141908279Y-110978169D01*
X141724774Y-110802306D01*
X141537463Y-110720836D01*
X141266333Y-110701667D01*
X140998673Y-110720132D01*
X140810676Y-110800317D01*
X140624388Y-110978169D01*
X140471461Y-111200068D01*
X140366877Y-111565983D01*
X139534811Y-111565983D01*
X139536931Y-111521584D01*
X139644483Y-111088060D01*
X139865954Y-110672593D01*
X140169045Y-110325323D01*
X140521458Y-110096389D01*
X140538836Y-110089406D01*
X140856889Y-110014424D01*
X141252848Y-109985638D01*
X141646923Y-110004398D01*
X141959322Y-110072053D01*
X142062986Y-110117504D01*
X142423231Y-110377332D01*
X142720784Y-110744985D01*
X142923727Y-111173160D01*
X143000141Y-111614553D01*
X143000115Y-111622918D01*
X143000072Y-111637530D01*
X142920403Y-112099799D01*
G36*
X137097400Y-109998656D02*
G01*
X137443496Y-110024334D01*
X137719506Y-111027703D01*
X137725635Y-111049961D01*
X137833653Y-111434770D01*
X137927032Y-111754227D01*
X137995968Y-111975615D01*
X138030660Y-112066215D01*
X138034048Y-112065903D01*
X138074189Y-111974571D01*
X138145370Y-111753935D01*
X138238623Y-111433226D01*
X138344979Y-111041680D01*
X138624154Y-109982000D01*
X139044952Y-109982000D01*
X139133500Y-109982562D01*
X139340735Y-109996963D01*
X139425771Y-110041461D01*
X139424786Y-110130167D01*
X139391472Y-110245349D01*
X139317157Y-110498190D01*
X139210990Y-110857553D01*
X139081440Y-111294768D01*
X138936978Y-111781167D01*
X138490134Y-113284000D01*
X137695416Y-113284000D01*
X137413301Y-112265474D01*
X137399119Y-112214630D01*
X137288908Y-111843075D01*
X137190530Y-111549959D01*
X137114242Y-111363765D01*
X137070300Y-111312974D01*
X137026672Y-111399533D01*
X136951142Y-111609487D01*
X136866887Y-111887000D01*
X136806697Y-112101014D01*
X136695358Y-112495085D01*
X136597506Y-112839500D01*
X136470651Y-113284000D01*
X135666857Y-113284000D01*
X135214118Y-111738834D01*
X135210029Y-111724877D01*
X135066469Y-111236084D01*
X134937983Y-110800700D01*
X134832670Y-110446008D01*
X134758631Y-110199291D01*
X134723965Y-110087834D01*
X134728596Y-110041782D01*
X134843915Y-109996116D01*
X135108382Y-109982000D01*
X135530214Y-109982000D01*
X135794774Y-110943448D01*
X135893030Y-111308712D01*
X135979358Y-111646728D01*
X136037824Y-111895716D01*
X136059333Y-112018715D01*
X136063685Y-112074880D01*
X136100565Y-112089837D01*
X136166716Y-111971861D01*
X136252018Y-111742007D01*
X136346357Y-111421334D01*
X136418020Y-111155155D01*
X136527091Y-110758516D01*
X136622004Y-110421990D01*
X136751305Y-109972979D01*
X137097400Y-109998656D01*
G37*
X137097400Y-109998656D02*
X137443496Y-110024334D01*
X137719506Y-111027703D01*
X137725635Y-111049961D01*
X137833653Y-111434770D01*
X137927032Y-111754227D01*
X137995968Y-111975615D01*
X138030660Y-112066215D01*
X138034048Y-112065903D01*
X138074189Y-111974571D01*
X138145370Y-111753935D01*
X138238623Y-111433226D01*
X138344979Y-111041680D01*
X138624154Y-109982000D01*
X139044952Y-109982000D01*
X139133500Y-109982562D01*
X139340735Y-109996963D01*
X139425771Y-110041461D01*
X139424786Y-110130167D01*
X139391472Y-110245349D01*
X139317157Y-110498190D01*
X139210990Y-110857553D01*
X139081440Y-111294768D01*
X138936978Y-111781167D01*
X138490134Y-113284000D01*
X137695416Y-113284000D01*
X137413301Y-112265474D01*
X137399119Y-112214630D01*
X137288908Y-111843075D01*
X137190530Y-111549959D01*
X137114242Y-111363765D01*
X137070300Y-111312974D01*
X137026672Y-111399533D01*
X136951142Y-111609487D01*
X136866887Y-111887000D01*
X136806697Y-112101014D01*
X136695358Y-112495085D01*
X136597506Y-112839500D01*
X136470651Y-113284000D01*
X135666857Y-113284000D01*
X135214118Y-111738834D01*
X135210029Y-111724877D01*
X135066469Y-111236084D01*
X134937983Y-110800700D01*
X134832670Y-110446008D01*
X134758631Y-110199291D01*
X134723965Y-110087834D01*
X134728596Y-110041782D01*
X134843915Y-109996116D01*
X135108382Y-109982000D01*
X135530214Y-109982000D01*
X135794774Y-110943448D01*
X135893030Y-111308712D01*
X135979358Y-111646728D01*
X136037824Y-111895716D01*
X136059333Y-112018715D01*
X136063685Y-112074880D01*
X136100565Y-112089837D01*
X136166716Y-111971861D01*
X136252018Y-111742007D01*
X136346357Y-111421334D01*
X136418020Y-111155155D01*
X136527091Y-110758516D01*
X136622004Y-110421990D01*
X136751305Y-109972979D01*
X137097400Y-109998656D01*
G36*
X134366000Y-113284000D02*
G01*
X133519333Y-113284000D01*
X133519333Y-109982000D01*
X134366000Y-109982000D01*
X134366000Y-113284000D01*
G37*
X134366000Y-113284000D02*
X133519333Y-113284000D01*
X133519333Y-109982000D01*
X134366000Y-109982000D01*
X134366000Y-113284000D01*
G36*
X130901646Y-111061500D02*
G01*
X130908626Y-112141000D01*
X131938376Y-109982000D01*
X132926667Y-109982000D01*
X132926667Y-113284000D01*
X132164667Y-113284000D01*
X132157687Y-112204500D01*
X132150708Y-111125000D01*
X131120958Y-113284000D01*
X130132667Y-113284000D01*
X130132667Y-109982000D01*
X130894667Y-109982000D01*
X130901646Y-111061500D01*
G37*
X130901646Y-111061500D02*
X130908626Y-112141000D01*
X131938376Y-109982000D01*
X132926667Y-109982000D01*
X132926667Y-113284000D01*
X132164667Y-113284000D01*
X132157687Y-112204500D01*
X132150708Y-111125000D01*
X131120958Y-113284000D01*
X130132667Y-113284000D01*
X130132667Y-109982000D01*
X130894667Y-109982000D01*
X130901646Y-111061500D01*
G36*
X128206314Y-110004489D02*
G01*
X128726553Y-110140320D01*
X129135814Y-110398118D01*
X129424990Y-110768224D01*
X129584973Y-111240979D01*
X129606654Y-111806725D01*
X129593036Y-111925299D01*
X129444327Y-112414955D01*
X129163192Y-112814534D01*
X128763753Y-113102329D01*
X128399076Y-113231796D01*
X127910247Y-113285484D01*
X127423555Y-113227533D01*
X126985703Y-113064533D01*
X126643396Y-112803078D01*
X126626426Y-112783704D01*
X126432855Y-112471855D01*
X126292269Y-112087743D01*
X126238000Y-111720386D01*
X126238000Y-111421334D01*
X127931333Y-111421334D01*
X127931333Y-112098667D01*
X127550333Y-112098667D01*
X127329297Y-112110200D01*
X127193909Y-112162918D01*
X127216414Y-112266830D01*
X127392418Y-112431188D01*
X127699102Y-112586364D01*
X128037407Y-112605413D01*
X128355698Y-112491270D01*
X128616091Y-112257904D01*
X128780706Y-111919283D01*
X128795196Y-111859787D01*
X128813451Y-111475703D01*
X128710453Y-111143336D01*
X128513315Y-110881431D01*
X128249151Y-110708733D01*
X127945075Y-110643988D01*
X127628200Y-110705940D01*
X127325641Y-110913334D01*
X127194725Y-111031123D01*
X126981453Y-111139526D01*
X126697154Y-111167334D01*
X126682252Y-111167297D01*
X126438334Y-111145005D01*
X126334470Y-111066471D01*
X126362852Y-110909520D01*
X126515671Y-110651977D01*
X126549238Y-110604123D01*
X126898947Y-110263109D01*
X127348788Y-110055239D01*
X127889000Y-109985252D01*
X128206314Y-110004489D01*
G37*
X128206314Y-110004489D02*
X128726553Y-110140320D01*
X129135814Y-110398118D01*
X129424990Y-110768224D01*
X129584973Y-111240979D01*
X129606654Y-111806725D01*
X129593036Y-111925299D01*
X129444327Y-112414955D01*
X129163192Y-112814534D01*
X128763753Y-113102329D01*
X128399076Y-113231796D01*
X127910247Y-113285484D01*
X127423555Y-113227533D01*
X126985703Y-113064533D01*
X126643396Y-112803078D01*
X126626426Y-112783704D01*
X126432855Y-112471855D01*
X126292269Y-112087743D01*
X126238000Y-111720386D01*
X126238000Y-111421334D01*
X127931333Y-111421334D01*
X127931333Y-112098667D01*
X127550333Y-112098667D01*
X127329297Y-112110200D01*
X127193909Y-112162918D01*
X127216414Y-112266830D01*
X127392418Y-112431188D01*
X127699102Y-112586364D01*
X128037407Y-112605413D01*
X128355698Y-112491270D01*
X128616091Y-112257904D01*
X128780706Y-111919283D01*
X128795196Y-111859787D01*
X128813451Y-111475703D01*
X128710453Y-111143336D01*
X128513315Y-110881431D01*
X128249151Y-110708733D01*
X127945075Y-110643988D01*
X127628200Y-110705940D01*
X127325641Y-110913334D01*
X127194725Y-111031123D01*
X126981453Y-111139526D01*
X126697154Y-111167334D01*
X126682252Y-111167297D01*
X126438334Y-111145005D01*
X126334470Y-111066471D01*
X126362852Y-110909520D01*
X126515671Y-110651977D01*
X126549238Y-110604123D01*
X126898947Y-110263109D01*
X127348788Y-110055239D01*
X127889000Y-109985252D01*
X128206314Y-110004489D01*
G36*
X124629333Y-110659334D02*
G01*
X123698000Y-110659334D01*
X123698000Y-113293278D01*
X123295833Y-113267472D01*
X122893667Y-113241667D01*
X122870295Y-111950500D01*
X122846923Y-110659334D01*
X122004667Y-110659334D01*
X122004667Y-109982000D01*
X124629333Y-109982000D01*
X124629333Y-110659334D01*
G37*
X124629333Y-110659334D02*
X123698000Y-110659334D01*
X123698000Y-113293278D01*
X123295833Y-113267472D01*
X122893667Y-113241667D01*
X122870295Y-111950500D01*
X122846923Y-110659334D01*
X122004667Y-110659334D01*
X122004667Y-109982000D01*
X124629333Y-109982000D01*
X124629333Y-110659334D01*
G36*
X121623667Y-110024334D02*
G01*
X121646862Y-111545487D01*
X121651761Y-111987123D01*
X121652582Y-112435426D01*
X121648732Y-112802453D01*
X121640544Y-113058864D01*
X121628352Y-113175320D01*
X121615066Y-113196195D01*
X121468784Y-113260428D01*
X121202991Y-113284000D01*
X120819333Y-113284000D01*
X120819333Y-109972722D01*
X121623667Y-110024334D01*
G37*
X121623667Y-110024334D02*
X121646862Y-111545487D01*
X121651761Y-111987123D01*
X121652582Y-112435426D01*
X121648732Y-112802453D01*
X121640544Y-113058864D01*
X121628352Y-113175320D01*
X121615066Y-113196195D01*
X121468784Y-113260428D01*
X121202991Y-113284000D01*
X120819333Y-113284000D01*
X120819333Y-109972722D01*
X121623667Y-110024334D01*
G36*
X117988795Y-111038723D02*
G01*
X118014436Y-111119702D01*
X118139241Y-111501715D01*
X118246850Y-111811992D01*
X118326505Y-112020462D01*
X118367446Y-112097056D01*
X118371933Y-112094055D01*
X118420752Y-111990074D01*
X118505415Y-111759790D01*
X118615345Y-111433208D01*
X118739964Y-111040334D01*
X119066702Y-109982000D01*
X120226667Y-109982000D01*
X120226667Y-113284000D01*
X119469726Y-113284000D01*
X119446030Y-112204500D01*
X119422333Y-111125000D01*
X119068564Y-112183334D01*
X118714794Y-113241667D01*
X118374933Y-113267464D01*
X118035071Y-113293261D01*
X117719997Y-112293797D01*
X117714199Y-112275430D01*
X117587940Y-111887010D01*
X117474347Y-111557774D01*
X117385662Y-111321983D01*
X117334128Y-111213900D01*
X117329267Y-111210904D01*
X117303485Y-111285691D01*
X117282541Y-111496062D01*
X117268476Y-111813311D01*
X117263333Y-112208734D01*
X117263333Y-113284000D01*
X116501333Y-113284000D01*
X116501333Y-109982000D01*
X117655923Y-109982000D01*
X117988795Y-111038723D01*
G37*
X117988795Y-111038723D02*
X118014436Y-111119702D01*
X118139241Y-111501715D01*
X118246850Y-111811992D01*
X118326505Y-112020462D01*
X118367446Y-112097056D01*
X118371933Y-112094055D01*
X118420752Y-111990074D01*
X118505415Y-111759790D01*
X118615345Y-111433208D01*
X118739964Y-111040334D01*
X119066702Y-109982000D01*
X120226667Y-109982000D01*
X120226667Y-113284000D01*
X119469726Y-113284000D01*
X119446030Y-112204500D01*
X119422333Y-111125000D01*
X119068564Y-112183334D01*
X118714794Y-113241667D01*
X118374933Y-113267464D01*
X118035071Y-113293261D01*
X117719997Y-112293797D01*
X117714199Y-112275430D01*
X117587940Y-111887010D01*
X117474347Y-111557774D01*
X117385662Y-111321983D01*
X117334128Y-111213900D01*
X117329267Y-111210904D01*
X117303485Y-111285691D01*
X117282541Y-111496062D01*
X117268476Y-111813311D01*
X117263333Y-112208734D01*
X117263333Y-113284000D01*
X116501333Y-113284000D01*
X116501333Y-109982000D01*
X117655923Y-109982000D01*
X117988795Y-111038723D01*
G36*
X115908667Y-113284000D02*
G01*
X113538000Y-113284000D01*
X113538000Y-112613021D01*
X114321167Y-112588677D01*
X115104333Y-112564334D01*
X115104333Y-111971667D01*
X113707333Y-111922485D01*
X113707333Y-111252000D01*
X115157396Y-111252000D01*
X115130865Y-110976834D01*
X115104333Y-110701667D01*
X114321167Y-110677323D01*
X113538000Y-110652979D01*
X113538000Y-109982000D01*
X115908667Y-109982000D01*
X115908667Y-113284000D01*
G37*
X115908667Y-113284000D02*
X113538000Y-113284000D01*
X113538000Y-112613021D01*
X114321167Y-112588677D01*
X115104333Y-112564334D01*
X115104333Y-111971667D01*
X113707333Y-111922485D01*
X113707333Y-111252000D01*
X115157396Y-111252000D01*
X115130865Y-110976834D01*
X115104333Y-110701667D01*
X114321167Y-110677323D01*
X113538000Y-110652979D01*
X113538000Y-109982000D01*
X115908667Y-109982000D01*
X115908667Y-113284000D01*
G36*
X112268000Y-113284000D02*
G01*
X112268000Y-112183334D01*
X111812700Y-112183334D01*
X111660438Y-112188415D01*
X111406168Y-112225941D01*
X111267810Y-112291283D01*
X111232111Y-112358699D01*
X111169376Y-112568780D01*
X111119536Y-112841617D01*
X111060852Y-113284000D01*
X110246646Y-113284000D01*
X110288230Y-112966500D01*
X110338769Y-112602858D01*
X110389184Y-112328970D01*
X110446197Y-112151426D01*
X110522327Y-112032424D01*
X110630093Y-111934161D01*
X110742372Y-111839091D01*
X110785103Y-111760208D01*
X110708480Y-111708566D01*
X110638676Y-111666876D01*
X110484964Y-111480239D01*
X110367481Y-111220883D01*
X110339725Y-111063638D01*
X111167333Y-111063638D01*
X111193242Y-111248658D01*
X111268933Y-111404400D01*
X111338917Y-111442007D01*
X111549276Y-111488031D01*
X111823906Y-111506000D01*
X112277278Y-111506000D01*
X112251472Y-111103834D01*
X112237094Y-110919265D01*
X112198741Y-110765957D01*
X112106710Y-110700877D01*
X111924552Y-110676366D01*
X111786676Y-110669849D01*
X111452080Y-110714064D01*
X111240891Y-110847752D01*
X111167333Y-111063638D01*
X110339725Y-111063638D01*
X110320667Y-110955667D01*
X110370404Y-110669530D01*
X110559537Y-110347737D01*
X110858899Y-110120417D01*
X110984424Y-110072269D01*
X111239691Y-110019638D01*
X111597278Y-109990789D01*
X112090296Y-109982000D01*
X113030000Y-109982000D01*
X113030000Y-113284000D01*
X112268000Y-113284000D01*
G37*
X112268000Y-113284000D02*
X112268000Y-112183334D01*
X111812700Y-112183334D01*
X111660438Y-112188415D01*
X111406168Y-112225941D01*
X111267810Y-112291283D01*
X111232111Y-112358699D01*
X111169376Y-112568780D01*
X111119536Y-112841617D01*
X111060852Y-113284000D01*
X110246646Y-113284000D01*
X110288230Y-112966500D01*
X110338769Y-112602858D01*
X110389184Y-112328970D01*
X110446197Y-112151426D01*
X110522327Y-112032424D01*
X110630093Y-111934161D01*
X110742372Y-111839091D01*
X110785103Y-111760208D01*
X110708480Y-111708566D01*
X110638676Y-111666876D01*
X110484964Y-111480239D01*
X110367481Y-111220883D01*
X110339725Y-111063638D01*
X111167333Y-111063638D01*
X111193242Y-111248658D01*
X111268933Y-111404400D01*
X111338917Y-111442007D01*
X111549276Y-111488031D01*
X111823906Y-111506000D01*
X112277278Y-111506000D01*
X112251472Y-111103834D01*
X112237094Y-110919265D01*
X112198741Y-110765957D01*
X112106710Y-110700877D01*
X111924552Y-110676366D01*
X111786676Y-110669849D01*
X111452080Y-110714064D01*
X111240891Y-110847752D01*
X111167333Y-111063638D01*
X110339725Y-111063638D01*
X110320667Y-110955667D01*
X110370404Y-110669530D01*
X110559537Y-110347737D01*
X110858899Y-110120417D01*
X110984424Y-110072269D01*
X111239691Y-110019638D01*
X111597278Y-109990789D01*
X112090296Y-109982000D01*
X113030000Y-109982000D01*
X113030000Y-113284000D01*
X112268000Y-113284000D01*
G36*
X104648000Y-113284000D02*
G01*
X103886000Y-113284000D01*
X103886000Y-112014000D01*
X102436445Y-112014000D01*
X102462723Y-111696500D01*
X102489000Y-111379000D01*
X103895804Y-111329660D01*
X103869736Y-111015664D01*
X103843667Y-110701667D01*
X103102833Y-110677204D01*
X102362000Y-110652741D01*
X102362000Y-109982000D01*
X104648000Y-109982000D01*
X104648000Y-113284000D01*
G37*
X104648000Y-113284000D02*
X103886000Y-113284000D01*
X103886000Y-112014000D01*
X102436445Y-112014000D01*
X102462723Y-111696500D01*
X102489000Y-111379000D01*
X103895804Y-111329660D01*
X103869736Y-111015664D01*
X103843667Y-110701667D01*
X103102833Y-110677204D01*
X102362000Y-110652741D01*
X102362000Y-109982000D01*
X104648000Y-109982000D01*
X104648000Y-113284000D01*
G36*
X101938667Y-113293278D02*
G01*
X101536500Y-113267472D01*
X101134333Y-113241667D01*
X101134333Y-110024334D01*
X101938667Y-109972722D01*
X101938667Y-113293278D01*
G37*
X101938667Y-113293278D02*
X101536500Y-113267472D01*
X101134333Y-113241667D01*
X101134333Y-110024334D01*
X101938667Y-109972722D01*
X101938667Y-113293278D01*
G36*
X100032309Y-109999641D02*
G01*
X100541667Y-110024334D01*
X100564862Y-111545487D01*
X100569761Y-111987123D01*
X100570582Y-112435426D01*
X100566732Y-112802453D01*
X100558544Y-113058864D01*
X100546352Y-113175320D01*
X100533066Y-113196195D01*
X100386784Y-113260428D01*
X100120991Y-113284000D01*
X99737333Y-113284000D01*
X99728177Y-111125000D01*
X98696079Y-113284000D01*
X97705333Y-113284000D01*
X97705333Y-109982000D01*
X98467333Y-109982000D01*
X98475330Y-111061500D01*
X98483326Y-112141000D01*
X99522952Y-109974948D01*
X100032309Y-109999641D01*
G37*
X100032309Y-109999641D02*
X100541667Y-110024334D01*
X100564862Y-111545487D01*
X100569761Y-111987123D01*
X100570582Y-112435426D01*
X100566732Y-112802453D01*
X100558544Y-113058864D01*
X100546352Y-113175320D01*
X100533066Y-113196195D01*
X100386784Y-113260428D01*
X100120991Y-113284000D01*
X99737333Y-113284000D01*
X99728177Y-111125000D01*
X98696079Y-113284000D01*
X97705333Y-113284000D01*
X97705333Y-109982000D01*
X98467333Y-109982000D01*
X98475330Y-111061500D01*
X98483326Y-112141000D01*
X99522952Y-109974948D01*
X100032309Y-109999641D01*
G36*
X97112667Y-113284000D02*
G01*
X96266000Y-113284000D01*
X96266000Y-109982000D01*
X97112667Y-109982000D01*
X97112667Y-113284000D01*
G37*
X97112667Y-113284000D02*
X96266000Y-113284000D01*
X96266000Y-109982000D01*
X97112667Y-109982000D01*
X97112667Y-113284000D01*
G36*
X94679127Y-109991375D02*
G01*
X95127131Y-110092135D01*
X95466946Y-110294770D01*
X95682570Y-110587121D01*
X95758000Y-110957028D01*
X95739932Y-111156720D01*
X95606241Y-111460996D01*
X95333526Y-111687643D01*
X94911333Y-111847658D01*
X94597379Y-111932595D01*
X94236753Y-112047568D01*
X94018280Y-112152243D01*
X93927042Y-112258564D01*
X93948117Y-112378475D01*
X94066587Y-112523921D01*
X94112121Y-112565524D01*
X94366997Y-112682335D01*
X94640859Y-112638840D01*
X94911333Y-112437334D01*
X95005700Y-112344101D01*
X95218201Y-112216598D01*
X95495636Y-112183334D01*
X95622159Y-112187052D01*
X95792722Y-112225308D01*
X95842667Y-112314538D01*
X95837739Y-112376151D01*
X95739937Y-112643220D01*
X95549452Y-112912186D01*
X95309390Y-113118095D01*
X95219558Y-113164983D01*
X94853515Y-113265838D01*
X94424136Y-113288916D01*
X93997682Y-113234775D01*
X93640414Y-113103977D01*
X93403784Y-112935146D01*
X93198741Y-112639908D01*
X93133333Y-112258450D01*
X93146592Y-112074517D01*
X93238625Y-111820814D01*
X93436428Y-111625129D01*
X93761164Y-111469745D01*
X94234000Y-111336940D01*
X94510915Y-111265521D01*
X94752687Y-111169677D01*
X94876501Y-111055964D01*
X94911333Y-110905945D01*
X94906713Y-110853256D01*
X94809966Y-110693016D01*
X94625598Y-110613009D01*
X94403753Y-110615131D01*
X94194572Y-110701275D01*
X94048197Y-110873336D01*
X93968316Y-110999032D01*
X93831004Y-111066233D01*
X93585410Y-111082667D01*
X93360831Y-111065948D01*
X93233345Y-110991163D01*
X93233249Y-110833072D01*
X93349111Y-110566718D01*
X93361870Y-110542811D01*
X93623261Y-110236531D01*
X93999058Y-110047268D01*
X94475205Y-109982317D01*
X94679127Y-109991375D01*
G37*
X94679127Y-109991375D02*
X95127131Y-110092135D01*
X95466946Y-110294770D01*
X95682570Y-110587121D01*
X95758000Y-110957028D01*
X95739932Y-111156720D01*
X95606241Y-111460996D01*
X95333526Y-111687643D01*
X94911333Y-111847658D01*
X94597379Y-111932595D01*
X94236753Y-112047568D01*
X94018280Y-112152243D01*
X93927042Y-112258564D01*
X93948117Y-112378475D01*
X94066587Y-112523921D01*
X94112121Y-112565524D01*
X94366997Y-112682335D01*
X94640859Y-112638840D01*
X94911333Y-112437334D01*
X95005700Y-112344101D01*
X95218201Y-112216598D01*
X95495636Y-112183334D01*
X95622159Y-112187052D01*
X95792722Y-112225308D01*
X95842667Y-112314538D01*
X95837739Y-112376151D01*
X95739937Y-112643220D01*
X95549452Y-112912186D01*
X95309390Y-113118095D01*
X95219558Y-113164983D01*
X94853515Y-113265838D01*
X94424136Y-113288916D01*
X93997682Y-113234775D01*
X93640414Y-113103977D01*
X93403784Y-112935146D01*
X93198741Y-112639908D01*
X93133333Y-112258450D01*
X93146592Y-112074517D01*
X93238625Y-111820814D01*
X93436428Y-111625129D01*
X93761164Y-111469745D01*
X94234000Y-111336940D01*
X94510915Y-111265521D01*
X94752687Y-111169677D01*
X94876501Y-111055964D01*
X94911333Y-110905945D01*
X94906713Y-110853256D01*
X94809966Y-110693016D01*
X94625598Y-110613009D01*
X94403753Y-110615131D01*
X94194572Y-110701275D01*
X94048197Y-110873336D01*
X93968316Y-110999032D01*
X93831004Y-111066233D01*
X93585410Y-111082667D01*
X93360831Y-111065948D01*
X93233345Y-110991163D01*
X93233249Y-110833072D01*
X93349111Y-110566718D01*
X93361870Y-110542811D01*
X93623261Y-110236531D01*
X93999058Y-110047268D01*
X94475205Y-109982317D01*
X94679127Y-109991375D01*
G36*
X90762667Y-111252000D02*
G01*
X91863333Y-111252000D01*
X91863333Y-109982000D01*
X92625333Y-109982000D01*
X92625333Y-113284000D01*
X91863333Y-113284000D01*
X91863333Y-112014000D01*
X90762667Y-112014000D01*
X90762667Y-113284000D01*
X90000667Y-113284000D01*
X90000667Y-109982000D01*
X90762667Y-109982000D01*
X90762667Y-111252000D01*
G37*
X90762667Y-111252000D02*
X91863333Y-111252000D01*
X91863333Y-109982000D01*
X92625333Y-109982000D01*
X92625333Y-113284000D01*
X91863333Y-113284000D01*
X91863333Y-112014000D01*
X90762667Y-112014000D01*
X90762667Y-113284000D01*
X90000667Y-113284000D01*
X90000667Y-109982000D01*
X90762667Y-109982000D01*
X90762667Y-111252000D01*
G36*
X87968667Y-113284000D02*
G01*
X85767333Y-113284000D01*
X85767333Y-112613515D01*
X86465833Y-112588924D01*
X87164333Y-112564334D01*
X87211077Y-109982000D01*
X87968667Y-109982000D01*
X87968667Y-113284000D01*
G37*
X87968667Y-113284000D02*
X85767333Y-113284000D01*
X85767333Y-112613515D01*
X86465833Y-112588924D01*
X87164333Y-112564334D01*
X87211077Y-109982000D01*
X87968667Y-109982000D01*
X87968667Y-113284000D01*
G36*
X84984167Y-109998528D02*
G01*
X85386333Y-110024334D01*
X85409528Y-111545487D01*
X85414427Y-111987123D01*
X85415248Y-112435426D01*
X85411398Y-112802453D01*
X85403211Y-113058864D01*
X85391019Y-113175320D01*
X85377732Y-113196195D01*
X85231450Y-113260428D01*
X84965657Y-113284000D01*
X84582000Y-113284000D01*
X84582000Y-109972722D01*
X84984167Y-109998528D01*
G37*
X84984167Y-109998528D02*
X85386333Y-110024334D01*
X85409528Y-111545487D01*
X85414427Y-111987123D01*
X85415248Y-112435426D01*
X85411398Y-112802453D01*
X85403211Y-113058864D01*
X85391019Y-113175320D01*
X85377732Y-113196195D01*
X85231450Y-113260428D01*
X84965657Y-113284000D01*
X84582000Y-113284000D01*
X84582000Y-109972722D01*
X84984167Y-109998528D01*
G36*
X82858312Y-110018206D02*
G01*
X83167876Y-110096389D01*
X83392780Y-110219243D01*
X83730588Y-110536151D01*
X83978190Y-110946265D01*
X84112931Y-111406899D01*
X84112153Y-111875369D01*
X84054835Y-112119692D01*
X83844437Y-112579541D01*
X83531794Y-112947651D01*
X83142667Y-113189112D01*
X83047193Y-113219078D01*
X82721282Y-113266419D01*
X82334906Y-113273295D01*
X81962407Y-113240696D01*
X81678125Y-113169612D01*
X81589742Y-113127741D01*
X81241935Y-112862613D01*
X80955240Y-112489439D01*
X80760312Y-112056438D01*
X80687806Y-111611834D01*
X80688148Y-111580944D01*
X80703773Y-111504963D01*
X80765319Y-111457957D01*
X80903637Y-111432980D01*
X81149580Y-111423088D01*
X81534000Y-111421334D01*
X82380667Y-111421334D01*
X82380667Y-112089389D01*
X81978500Y-112115195D01*
X81576333Y-112141000D01*
X81805318Y-112373834D01*
X82031620Y-112541561D01*
X82360422Y-112622308D01*
X82700733Y-112547627D01*
X83024133Y-112318800D01*
X83183149Y-112140706D01*
X83285871Y-111934931D01*
X83312000Y-111675697D01*
X83311973Y-111666003D01*
X83243782Y-111239603D01*
X83050677Y-110923461D01*
X82741723Y-110726923D01*
X82325985Y-110659334D01*
X82274862Y-110660534D01*
X82019574Y-110724829D01*
X81788000Y-110913334D01*
X81633878Y-111056166D01*
X81438625Y-111145224D01*
X81161364Y-111167334D01*
X80924019Y-111162918D01*
X80803137Y-111128783D01*
X80801068Y-111033497D01*
X80891441Y-110845629D01*
X80900317Y-110829010D01*
X81125202Y-110522125D01*
X81424219Y-110249094D01*
X81730012Y-110072053D01*
X81747650Y-110065663D01*
X82068408Y-110001493D01*
X82465226Y-109986124D01*
X82858312Y-110018206D01*
G37*
X82858312Y-110018206D02*
X83167876Y-110096389D01*
X83392780Y-110219243D01*
X83730588Y-110536151D01*
X83978190Y-110946265D01*
X84112931Y-111406899D01*
X84112153Y-111875369D01*
X84054835Y-112119692D01*
X83844437Y-112579541D01*
X83531794Y-112947651D01*
X83142667Y-113189112D01*
X83047193Y-113219078D01*
X82721282Y-113266419D01*
X82334906Y-113273295D01*
X81962407Y-113240696D01*
X81678125Y-113169612D01*
X81589742Y-113127741D01*
X81241935Y-112862613D01*
X80955240Y-112489439D01*
X80760312Y-112056438D01*
X80687806Y-111611834D01*
X80688148Y-111580944D01*
X80703773Y-111504963D01*
X80765319Y-111457957D01*
X80903637Y-111432980D01*
X81149580Y-111423088D01*
X81534000Y-111421334D01*
X82380667Y-111421334D01*
X82380667Y-112089389D01*
X81978500Y-112115195D01*
X81576333Y-112141000D01*
X81805318Y-112373834D01*
X82031620Y-112541561D01*
X82360422Y-112622308D01*
X82700733Y-112547627D01*
X83024133Y-112318800D01*
X83183149Y-112140706D01*
X83285871Y-111934931D01*
X83312000Y-111675697D01*
X83311973Y-111666003D01*
X83243782Y-111239603D01*
X83050677Y-110923461D01*
X82741723Y-110726923D01*
X82325985Y-110659334D01*
X82274862Y-110660534D01*
X82019574Y-110724829D01*
X81788000Y-110913334D01*
X81633878Y-111056166D01*
X81438625Y-111145224D01*
X81161364Y-111167334D01*
X80924019Y-111162918D01*
X80803137Y-111128783D01*
X80801068Y-111033497D01*
X80891441Y-110845629D01*
X80900317Y-110829010D01*
X81125202Y-110522125D01*
X81424219Y-110249094D01*
X81730012Y-110072053D01*
X81747650Y-110065663D01*
X82068408Y-110001493D01*
X82465226Y-109986124D01*
X82858312Y-110018206D01*
G36*
X80264000Y-113293278D02*
G01*
X79861833Y-113267472D01*
X79459667Y-113241667D01*
X79434791Y-112627834D01*
X79409915Y-112014000D01*
X78401333Y-112014000D01*
X78401333Y-113284000D01*
X77554667Y-113284000D01*
X77554667Y-109982000D01*
X78401333Y-109982000D01*
X78401333Y-111252000D01*
X79409915Y-111252000D01*
X79459667Y-110024334D01*
X79861833Y-109998528D01*
X80264000Y-109972722D01*
X80264000Y-113293278D01*
G37*
X80264000Y-113293278D02*
X79861833Y-113267472D01*
X79459667Y-113241667D01*
X79434791Y-112627834D01*
X79409915Y-112014000D01*
X78401333Y-112014000D01*
X78401333Y-113284000D01*
X77554667Y-113284000D01*
X77554667Y-109982000D01*
X78401333Y-109982000D01*
X78401333Y-111252000D01*
X79409915Y-111252000D01*
X79459667Y-110024334D01*
X79861833Y-109998528D01*
X80264000Y-109972722D01*
X80264000Y-113293278D01*
G36*
X77216000Y-110650484D02*
G01*
X76771500Y-110676076D01*
X76327000Y-110701667D01*
X76303628Y-111992834D01*
X76280256Y-113284000D01*
X75527077Y-113284000D01*
X75503705Y-111992834D01*
X75480333Y-110701667D01*
X75035833Y-110676076D01*
X74591333Y-110650484D01*
X74591333Y-109982000D01*
X77216000Y-109982000D01*
X77216000Y-110650484D01*
G37*
X77216000Y-110650484D02*
X76771500Y-110676076D01*
X76327000Y-110701667D01*
X76303628Y-111992834D01*
X76280256Y-113284000D01*
X75527077Y-113284000D01*
X75503705Y-111992834D01*
X75480333Y-110701667D01*
X75035833Y-110676076D01*
X74591333Y-110650484D01*
X74591333Y-109982000D01*
X77216000Y-109982000D01*
X77216000Y-110650484D01*
G36*
X108458000Y-112268000D02*
G01*
X106595333Y-112268000D01*
X106595333Y-111760000D01*
X108458000Y-111760000D01*
X108458000Y-112268000D01*
G37*
X108458000Y-112268000D02*
X106595333Y-112268000D01*
X106595333Y-111760000D01*
X108458000Y-111760000D01*
X108458000Y-112268000D01*
G36*
X153162000Y-107549006D02*
G01*
X152862475Y-107831494D01*
X152855042Y-107838426D01*
X152526317Y-108059888D01*
X152043026Y-108266726D01*
X151419158Y-108455305D01*
X150668704Y-108621992D01*
X149805654Y-108763153D01*
X148844000Y-108875156D01*
X148826458Y-108876324D01*
X148652244Y-108880906D01*
X148315648Y-108885350D01*
X147822233Y-108889647D01*
X147177557Y-108893788D01*
X146387182Y-108897766D01*
X145456667Y-108901572D01*
X144391574Y-108905197D01*
X143197464Y-108908635D01*
X141879896Y-108911875D01*
X140444431Y-108914911D01*
X138896630Y-108917734D01*
X137242053Y-108920335D01*
X135486262Y-108922706D01*
X133634815Y-108924840D01*
X131693275Y-108926727D01*
X129667201Y-108928359D01*
X127562154Y-108929729D01*
X125383694Y-108930828D01*
X123137383Y-108931648D01*
X120828780Y-108932180D01*
X118463447Y-108932416D01*
X116046943Y-108932348D01*
X113584829Y-108931968D01*
X111082667Y-108931267D01*
X110991991Y-108931236D01*
X108005101Y-108930185D01*
X105182634Y-108929127D01*
X102519818Y-108928041D01*
X100011884Y-108926906D01*
X97654061Y-108925704D01*
X95441578Y-108924412D01*
X93369665Y-108923012D01*
X91433552Y-108921482D01*
X89628469Y-108919803D01*
X87949644Y-108917955D01*
X86392308Y-108915916D01*
X84951690Y-108913667D01*
X83623020Y-108911187D01*
X82401527Y-108908456D01*
X81282441Y-108905454D01*
X80260992Y-108902160D01*
X79332409Y-108898555D01*
X78491921Y-108894618D01*
X77734759Y-108890328D01*
X77056151Y-108885666D01*
X76451328Y-108880611D01*
X75915519Y-108875142D01*
X75443954Y-108869241D01*
X75031862Y-108862885D01*
X74674473Y-108856055D01*
X74367017Y-108848731D01*
X74104722Y-108840893D01*
X73882820Y-108832519D01*
X73696538Y-108823591D01*
X73541107Y-108814087D01*
X73411757Y-108803987D01*
X73303717Y-108793271D01*
X73212216Y-108781919D01*
X73132485Y-108769911D01*
X72592375Y-108674651D01*
X71755060Y-108492358D01*
X71068482Y-108293210D01*
X70537213Y-108078877D01*
X70165825Y-107851028D01*
X69958892Y-107611334D01*
X69952416Y-107588399D01*
X69934578Y-107413319D01*
X69918288Y-107088379D01*
X69903553Y-106628074D01*
X69890383Y-106046896D01*
X69878787Y-105359339D01*
X69868773Y-104579897D01*
X69860349Y-103723063D01*
X69853526Y-102803332D01*
X69848311Y-101835195D01*
X69844713Y-100833148D01*
X69842740Y-99811683D01*
X69842403Y-98785294D01*
X69843708Y-97768475D01*
X69846666Y-96775719D01*
X69849018Y-96289819D01*
X71895431Y-96289819D01*
X71896318Y-97341605D01*
X71898187Y-98451316D01*
X71901070Y-99606966D01*
X71924333Y-107646931D01*
X72202651Y-107834485D01*
X72264517Y-107872105D01*
X72587491Y-108009906D01*
X73041012Y-108143851D01*
X73594714Y-108266935D01*
X74218234Y-108372153D01*
X74881205Y-108452497D01*
X74990044Y-108457675D01*
X75272355Y-108463834D01*
X75711701Y-108469729D01*
X76301282Y-108475360D01*
X77034302Y-108480728D01*
X77903963Y-108485831D01*
X78903466Y-108490671D01*
X80026014Y-108495248D01*
X81264809Y-108499561D01*
X82613053Y-108503611D01*
X84063948Y-108507398D01*
X85610697Y-108510922D01*
X87246501Y-108514183D01*
X88964562Y-108517181D01*
X90758083Y-108519916D01*
X92620265Y-108522389D01*
X94544312Y-108524600D01*
X96523424Y-108526548D01*
X98550805Y-108528235D01*
X100619656Y-108529659D01*
X102723179Y-108530821D01*
X104854576Y-108531722D01*
X107007051Y-108532361D01*
X109173803Y-108532739D01*
X111348037Y-108532855D01*
X113522953Y-108532709D01*
X115691755Y-108532303D01*
X117847644Y-108531636D01*
X119983822Y-108530708D01*
X122093491Y-108529518D01*
X124169854Y-108528069D01*
X126206113Y-108526359D01*
X128195469Y-108524388D01*
X130131125Y-108522157D01*
X132006283Y-108519666D01*
X133814145Y-108516915D01*
X135547914Y-108513904D01*
X137200790Y-108510633D01*
X138765978Y-108507103D01*
X140236678Y-108503313D01*
X141606092Y-108499263D01*
X142867423Y-108494955D01*
X144013874Y-108490387D01*
X145038645Y-108485560D01*
X145934939Y-108480474D01*
X146695959Y-108475130D01*
X147314906Y-108469526D01*
X147784983Y-108463664D01*
X148099391Y-108457544D01*
X148251333Y-108451165D01*
X148587600Y-108412922D01*
X149142928Y-108325893D01*
X149680262Y-108215601D01*
X150161892Y-108091124D01*
X150550110Y-107961539D01*
X150807208Y-107835923D01*
X151087667Y-107646922D01*
X151087667Y-91238384D01*
X150700578Y-91039181D01*
X150589984Y-90988769D01*
X150273748Y-90873661D01*
X149881333Y-90755483D01*
X149472911Y-90653156D01*
X148632333Y-90466334D01*
X74379667Y-90466334D01*
X73551326Y-90650656D01*
X73370845Y-90692330D01*
X72780204Y-90856223D01*
X72336963Y-91028361D01*
X72048431Y-91205453D01*
X71921915Y-91384209D01*
X71920052Y-91399312D01*
X71914174Y-91556155D01*
X71909036Y-91866821D01*
X71904667Y-92319324D01*
X71901098Y-92901674D01*
X71898359Y-93601887D01*
X71896482Y-94407973D01*
X71895495Y-95307946D01*
X71895431Y-96289819D01*
X69849018Y-96289819D01*
X69851285Y-95821520D01*
X69857573Y-94920372D01*
X69865539Y-94086767D01*
X69875193Y-93335199D01*
X69886542Y-92680163D01*
X69899596Y-92136151D01*
X69914362Y-91717657D01*
X69930851Y-91439175D01*
X69949071Y-91315198D01*
X69968404Y-91278529D01*
X70172652Y-91071215D01*
X70526545Y-90866773D01*
X71013389Y-90670397D01*
X71616485Y-90487275D01*
X72319139Y-90322599D01*
X73104654Y-90181560D01*
X73956333Y-90069349D01*
X73957847Y-90069186D01*
X74134444Y-90059520D01*
X74473466Y-90050251D01*
X74968144Y-90041378D01*
X75611706Y-90032901D01*
X76397381Y-90024821D01*
X77318400Y-90017137D01*
X78367992Y-90009849D01*
X79539386Y-90002956D01*
X80825811Y-89996460D01*
X82220498Y-89990360D01*
X83716674Y-89984655D01*
X85307571Y-89979347D01*
X86986417Y-89974433D01*
X88746441Y-89969916D01*
X90580874Y-89965794D01*
X92482944Y-89962067D01*
X94445880Y-89958736D01*
X96462913Y-89955800D01*
X98527272Y-89953260D01*
X100632186Y-89951114D01*
X102770885Y-89949364D01*
X104936598Y-89948008D01*
X107122553Y-89947048D01*
X109321982Y-89946482D01*
X111528113Y-89946311D01*
X113734176Y-89946535D01*
X115933400Y-89947154D01*
X118119014Y-89948167D01*
X120284248Y-89949575D01*
X122422332Y-89951377D01*
X124526494Y-89953574D01*
X126589965Y-89956164D01*
X128605973Y-89959149D01*
X130567748Y-89962529D01*
X132468519Y-89966302D01*
X134301516Y-89970469D01*
X136059969Y-89975030D01*
X137737106Y-89979986D01*
X139326158Y-89985335D01*
X140820352Y-89991077D01*
X142212920Y-89997213D01*
X143497090Y-90003743D01*
X144666092Y-90010667D01*
X145713156Y-90017984D01*
X146631509Y-90025694D01*
X147414383Y-90033797D01*
X148055006Y-90042294D01*
X148546608Y-90051184D01*
X148882419Y-90060467D01*
X149055667Y-90070143D01*
X149071769Y-90071921D01*
X149988857Y-90192642D01*
X150816986Y-90340142D01*
X151540098Y-90510092D01*
X152142133Y-90698164D01*
X152607031Y-90900030D01*
X152918733Y-91111360D01*
X153054713Y-91238384D01*
X153162000Y-91338605D01*
X153162000Y-107549006D01*
G37*
X153162000Y-107549006D02*
X152862475Y-107831494D01*
X152855042Y-107838426D01*
X152526317Y-108059888D01*
X152043026Y-108266726D01*
X151419158Y-108455305D01*
X150668704Y-108621992D01*
X149805654Y-108763153D01*
X148844000Y-108875156D01*
X148826458Y-108876324D01*
X148652244Y-108880906D01*
X148315648Y-108885350D01*
X147822233Y-108889647D01*
X147177557Y-108893788D01*
X146387182Y-108897766D01*
X145456667Y-108901572D01*
X144391574Y-108905197D01*
X143197464Y-108908635D01*
X141879896Y-108911875D01*
X140444431Y-108914911D01*
X138896630Y-108917734D01*
X137242053Y-108920335D01*
X135486262Y-108922706D01*
X133634815Y-108924840D01*
X131693275Y-108926727D01*
X129667201Y-108928359D01*
X127562154Y-108929729D01*
X125383694Y-108930828D01*
X123137383Y-108931648D01*
X120828780Y-108932180D01*
X118463447Y-108932416D01*
X116046943Y-108932348D01*
X113584829Y-108931968D01*
X111082667Y-108931267D01*
X110991991Y-108931236D01*
X108005101Y-108930185D01*
X105182634Y-108929127D01*
X102519818Y-108928041D01*
X100011884Y-108926906D01*
X97654061Y-108925704D01*
X95441578Y-108924412D01*
X93369665Y-108923012D01*
X91433552Y-108921482D01*
X89628469Y-108919803D01*
X87949644Y-108917955D01*
X86392308Y-108915916D01*
X84951690Y-108913667D01*
X83623020Y-108911187D01*
X82401527Y-108908456D01*
X81282441Y-108905454D01*
X80260992Y-108902160D01*
X79332409Y-108898555D01*
X78491921Y-108894618D01*
X77734759Y-108890328D01*
X77056151Y-108885666D01*
X76451328Y-108880611D01*
X75915519Y-108875142D01*
X75443954Y-108869241D01*
X75031862Y-108862885D01*
X74674473Y-108856055D01*
X74367017Y-108848731D01*
X74104722Y-108840893D01*
X73882820Y-108832519D01*
X73696538Y-108823591D01*
X73541107Y-108814087D01*
X73411757Y-108803987D01*
X73303717Y-108793271D01*
X73212216Y-108781919D01*
X73132485Y-108769911D01*
X72592375Y-108674651D01*
X71755060Y-108492358D01*
X71068482Y-108293210D01*
X70537213Y-108078877D01*
X70165825Y-107851028D01*
X69958892Y-107611334D01*
X69952416Y-107588399D01*
X69934578Y-107413319D01*
X69918288Y-107088379D01*
X69903553Y-106628074D01*
X69890383Y-106046896D01*
X69878787Y-105359339D01*
X69868773Y-104579897D01*
X69860349Y-103723063D01*
X69853526Y-102803332D01*
X69848311Y-101835195D01*
X69844713Y-100833148D01*
X69842740Y-99811683D01*
X69842403Y-98785294D01*
X69843708Y-97768475D01*
X69846666Y-96775719D01*
X69849018Y-96289819D01*
X71895431Y-96289819D01*
X71896318Y-97341605D01*
X71898187Y-98451316D01*
X71901070Y-99606966D01*
X71924333Y-107646931D01*
X72202651Y-107834485D01*
X72264517Y-107872105D01*
X72587491Y-108009906D01*
X73041012Y-108143851D01*
X73594714Y-108266935D01*
X74218234Y-108372153D01*
X74881205Y-108452497D01*
X74990044Y-108457675D01*
X75272355Y-108463834D01*
X75711701Y-108469729D01*
X76301282Y-108475360D01*
X77034302Y-108480728D01*
X77903963Y-108485831D01*
X78903466Y-108490671D01*
X80026014Y-108495248D01*
X81264809Y-108499561D01*
X82613053Y-108503611D01*
X84063948Y-108507398D01*
X85610697Y-108510922D01*
X87246501Y-108514183D01*
X88964562Y-108517181D01*
X90758083Y-108519916D01*
X92620265Y-108522389D01*
X94544312Y-108524600D01*
X96523424Y-108526548D01*
X98550805Y-108528235D01*
X100619656Y-108529659D01*
X102723179Y-108530821D01*
X104854576Y-108531722D01*
X107007051Y-108532361D01*
X109173803Y-108532739D01*
X111348037Y-108532855D01*
X113522953Y-108532709D01*
X115691755Y-108532303D01*
X117847644Y-108531636D01*
X119983822Y-108530708D01*
X122093491Y-108529518D01*
X124169854Y-108528069D01*
X126206113Y-108526359D01*
X128195469Y-108524388D01*
X130131125Y-108522157D01*
X132006283Y-108519666D01*
X133814145Y-108516915D01*
X135547914Y-108513904D01*
X137200790Y-108510633D01*
X138765978Y-108507103D01*
X140236678Y-108503313D01*
X141606092Y-108499263D01*
X142867423Y-108494955D01*
X144013874Y-108490387D01*
X145038645Y-108485560D01*
X145934939Y-108480474D01*
X146695959Y-108475130D01*
X147314906Y-108469526D01*
X147784983Y-108463664D01*
X148099391Y-108457544D01*
X148251333Y-108451165D01*
X148587600Y-108412922D01*
X149142928Y-108325893D01*
X149680262Y-108215601D01*
X150161892Y-108091124D01*
X150550110Y-107961539D01*
X150807208Y-107835923D01*
X151087667Y-107646922D01*
X151087667Y-91238384D01*
X150700578Y-91039181D01*
X150589984Y-90988769D01*
X150273748Y-90873661D01*
X149881333Y-90755483D01*
X149472911Y-90653156D01*
X148632333Y-90466334D01*
X74379667Y-90466334D01*
X73551326Y-90650656D01*
X73370845Y-90692330D01*
X72780204Y-90856223D01*
X72336963Y-91028361D01*
X72048431Y-91205453D01*
X71921915Y-91384209D01*
X71920052Y-91399312D01*
X71914174Y-91556155D01*
X71909036Y-91866821D01*
X71904667Y-92319324D01*
X71901098Y-92901674D01*
X71898359Y-93601887D01*
X71896482Y-94407973D01*
X71895495Y-95307946D01*
X71895431Y-96289819D01*
X69849018Y-96289819D01*
X69851285Y-95821520D01*
X69857573Y-94920372D01*
X69865539Y-94086767D01*
X69875193Y-93335199D01*
X69886542Y-92680163D01*
X69899596Y-92136151D01*
X69914362Y-91717657D01*
X69930851Y-91439175D01*
X69949071Y-91315198D01*
X69968404Y-91278529D01*
X70172652Y-91071215D01*
X70526545Y-90866773D01*
X71013389Y-90670397D01*
X71616485Y-90487275D01*
X72319139Y-90322599D01*
X73104654Y-90181560D01*
X73956333Y-90069349D01*
X73957847Y-90069186D01*
X74134444Y-90059520D01*
X74473466Y-90050251D01*
X74968144Y-90041378D01*
X75611706Y-90032901D01*
X76397381Y-90024821D01*
X77318400Y-90017137D01*
X78367992Y-90009849D01*
X79539386Y-90002956D01*
X80825811Y-89996460D01*
X82220498Y-89990360D01*
X83716674Y-89984655D01*
X85307571Y-89979347D01*
X86986417Y-89974433D01*
X88746441Y-89969916D01*
X90580874Y-89965794D01*
X92482944Y-89962067D01*
X94445880Y-89958736D01*
X96462913Y-89955800D01*
X98527272Y-89953260D01*
X100632186Y-89951114D01*
X102770885Y-89949364D01*
X104936598Y-89948008D01*
X107122553Y-89947048D01*
X109321982Y-89946482D01*
X111528113Y-89946311D01*
X113734176Y-89946535D01*
X115933400Y-89947154D01*
X118119014Y-89948167D01*
X120284248Y-89949575D01*
X122422332Y-89951377D01*
X124526494Y-89953574D01*
X126589965Y-89956164D01*
X128605973Y-89959149D01*
X130567748Y-89962529D01*
X132468519Y-89966302D01*
X134301516Y-89970469D01*
X136059969Y-89975030D01*
X137737106Y-89979986D01*
X139326158Y-89985335D01*
X140820352Y-89991077D01*
X142212920Y-89997213D01*
X143497090Y-90003743D01*
X144666092Y-90010667D01*
X145713156Y-90017984D01*
X146631509Y-90025694D01*
X147414383Y-90033797D01*
X148055006Y-90042294D01*
X148546608Y-90051184D01*
X148882419Y-90060467D01*
X149055667Y-90070143D01*
X149071769Y-90071921D01*
X149988857Y-90192642D01*
X150816986Y-90340142D01*
X151540098Y-90510092D01*
X152142133Y-90698164D01*
X152607031Y-90900030D01*
X152918733Y-91111360D01*
X153054713Y-91238384D01*
X153162000Y-91338605D01*
X153162000Y-107549006D01*
G36*
X144572305Y-94203755D02*
G01*
X144583669Y-94500315D01*
X144592576Y-94880847D01*
X144599315Y-95357545D01*
X144604177Y-95942604D01*
X144607452Y-96648218D01*
X144609432Y-97486581D01*
X144610407Y-98469888D01*
X144610667Y-99610333D01*
X144610714Y-100151912D01*
X144610810Y-101248485D01*
X144610070Y-102192933D01*
X144607483Y-102997152D01*
X144602039Y-103673041D01*
X144592728Y-104232496D01*
X144578540Y-104687416D01*
X144558464Y-105049697D01*
X144531490Y-105331236D01*
X144496608Y-105543932D01*
X144452808Y-105699682D01*
X144399080Y-105810383D01*
X144334413Y-105887932D01*
X144257798Y-105944227D01*
X144168224Y-105991165D01*
X144064680Y-106040643D01*
X144011591Y-106055520D01*
X143789267Y-106082084D01*
X143423921Y-106105652D01*
X142932890Y-106126219D01*
X142333513Y-106143781D01*
X141643128Y-106158333D01*
X140879074Y-106169872D01*
X140058689Y-106178392D01*
X139199312Y-106183889D01*
X138318280Y-106186360D01*
X137432932Y-106185800D01*
X136560606Y-106182203D01*
X135718642Y-106175567D01*
X134924376Y-106165887D01*
X134195147Y-106153158D01*
X133548295Y-106137376D01*
X133001156Y-106118537D01*
X132571070Y-106096636D01*
X132275375Y-106071669D01*
X132131409Y-106043632D01*
X132073921Y-106017089D01*
X131975773Y-105971563D01*
X131891305Y-105922506D01*
X131819491Y-105858074D01*
X131759307Y-105766425D01*
X131709730Y-105635715D01*
X131669735Y-105454102D01*
X131650973Y-105308257D01*
X131822563Y-105308257D01*
X132043475Y-105570795D01*
X132264386Y-105833334D01*
X143918281Y-105833334D01*
X144137474Y-105572837D01*
X144356667Y-105312341D01*
X144356667Y-93908326D01*
X143918281Y-93387334D01*
X138098566Y-93387333D01*
X132278851Y-93387333D01*
X132073592Y-93605787D01*
X131868333Y-93824240D01*
X131845448Y-99566248D01*
X131822563Y-105308257D01*
X131650973Y-105308257D01*
X131638299Y-105209742D01*
X131614396Y-104890794D01*
X131597003Y-104485413D01*
X131585096Y-103981758D01*
X131577651Y-103367986D01*
X131573642Y-102632252D01*
X131572047Y-101762715D01*
X131571841Y-100747532D01*
X131572000Y-99574860D01*
X131572000Y-93723513D01*
X131861799Y-93407257D01*
X132151597Y-93091000D01*
X137962547Y-93068115D01*
X138282045Y-93066846D01*
X139412491Y-93062415D01*
X140388629Y-93059386D01*
X141222392Y-93058645D01*
X141925716Y-93061074D01*
X142510532Y-93067558D01*
X142988775Y-93078982D01*
X143372379Y-93096229D01*
X143673276Y-93120183D01*
X143903402Y-93151729D01*
X144074689Y-93191750D01*
X144199070Y-93241130D01*
X144288481Y-93300755D01*
X144354853Y-93371507D01*
X144410122Y-93454271D01*
X144466220Y-93549932D01*
X144468434Y-93553725D01*
X144496450Y-93613343D01*
X144520554Y-93695961D01*
X144541038Y-93813773D01*
X144550856Y-93908326D01*
X144558191Y-93978973D01*
X144572305Y-94203755D01*
G37*
X144572305Y-94203755D02*
X144583669Y-94500315D01*
X144592576Y-94880847D01*
X144599315Y-95357545D01*
X144604177Y-95942604D01*
X144607452Y-96648218D01*
X144609432Y-97486581D01*
X144610407Y-98469888D01*
X144610667Y-99610333D01*
X144610714Y-100151912D01*
X144610810Y-101248485D01*
X144610070Y-102192933D01*
X144607483Y-102997152D01*
X144602039Y-103673041D01*
X144592728Y-104232496D01*
X144578540Y-104687416D01*
X144558464Y-105049697D01*
X144531490Y-105331236D01*
X144496608Y-105543932D01*
X144452808Y-105699682D01*
X144399080Y-105810383D01*
X144334413Y-105887932D01*
X144257798Y-105944227D01*
X144168224Y-105991165D01*
X144064680Y-106040643D01*
X144011591Y-106055520D01*
X143789267Y-106082084D01*
X143423921Y-106105652D01*
X142932890Y-106126219D01*
X142333513Y-106143781D01*
X141643128Y-106158333D01*
X140879074Y-106169872D01*
X140058689Y-106178392D01*
X139199312Y-106183889D01*
X138318280Y-106186360D01*
X137432932Y-106185800D01*
X136560606Y-106182203D01*
X135718642Y-106175567D01*
X134924376Y-106165887D01*
X134195147Y-106153158D01*
X133548295Y-106137376D01*
X133001156Y-106118537D01*
X132571070Y-106096636D01*
X132275375Y-106071669D01*
X132131409Y-106043632D01*
X132073921Y-106017089D01*
X131975773Y-105971563D01*
X131891305Y-105922506D01*
X131819491Y-105858074D01*
X131759307Y-105766425D01*
X131709730Y-105635715D01*
X131669735Y-105454102D01*
X131650973Y-105308257D01*
X131822563Y-105308257D01*
X132043475Y-105570795D01*
X132264386Y-105833334D01*
X143918281Y-105833334D01*
X144137474Y-105572837D01*
X144356667Y-105312341D01*
X144356667Y-93908326D01*
X143918281Y-93387334D01*
X138098566Y-93387333D01*
X132278851Y-93387333D01*
X132073592Y-93605787D01*
X131868333Y-93824240D01*
X131845448Y-99566248D01*
X131822563Y-105308257D01*
X131650973Y-105308257D01*
X131638299Y-105209742D01*
X131614396Y-104890794D01*
X131597003Y-104485413D01*
X131585096Y-103981758D01*
X131577651Y-103367986D01*
X131573642Y-102632252D01*
X131572047Y-101762715D01*
X131571841Y-100747532D01*
X131572000Y-99574860D01*
X131572000Y-93723513D01*
X131861799Y-93407257D01*
X132151597Y-93091000D01*
X137962547Y-93068115D01*
X138282045Y-93066846D01*
X139412491Y-93062415D01*
X140388629Y-93059386D01*
X141222392Y-93058645D01*
X141925716Y-93061074D01*
X142510532Y-93067558D01*
X142988775Y-93078982D01*
X143372379Y-93096229D01*
X143673276Y-93120183D01*
X143903402Y-93151729D01*
X144074689Y-93191750D01*
X144199070Y-93241130D01*
X144288481Y-93300755D01*
X144354853Y-93371507D01*
X144410122Y-93454271D01*
X144466220Y-93549932D01*
X144468434Y-93553725D01*
X144496450Y-93613343D01*
X144520554Y-93695961D01*
X144541038Y-93813773D01*
X144550856Y-93908326D01*
X144558191Y-93978973D01*
X144572305Y-94203755D01*
G36*
X129040936Y-103910327D02*
G01*
X129373559Y-104001719D01*
X129633044Y-104209311D01*
X129789431Y-104543581D01*
X129828868Y-104732222D01*
X129811006Y-105129275D01*
X129640534Y-105456267D01*
X129320317Y-105706097D01*
X129138357Y-105775249D01*
X128799576Y-105768739D01*
X128448063Y-105594060D01*
X128437484Y-105586264D01*
X128274867Y-105426792D01*
X128173966Y-105258564D01*
X128153053Y-105125453D01*
X128230395Y-105071334D01*
X128286285Y-105080437D01*
X128354667Y-105156000D01*
X128376554Y-105242758D01*
X128516617Y-105404247D01*
X128737878Y-105529188D01*
X128983522Y-105579334D01*
X129060609Y-105575200D01*
X129331251Y-105477865D01*
X129516302Y-105279459D01*
X129613425Y-105017670D01*
X129620281Y-104730189D01*
X129534532Y-104454705D01*
X129353841Y-104228908D01*
X129075870Y-104090487D01*
X128988533Y-104079436D01*
X128733462Y-104135302D01*
X128506079Y-104284606D01*
X128376944Y-104487290D01*
X128357392Y-104536639D01*
X128259401Y-104630737D01*
X128151509Y-104642271D01*
X128100667Y-104554867D01*
X128118414Y-104505571D01*
X128226218Y-104353542D01*
X128399364Y-104163036D01*
X128477485Y-104086520D01*
X128654074Y-103945255D01*
X128818142Y-103895879D01*
X129040936Y-103910327D01*
G37*
X129040936Y-103910327D02*
X129373559Y-104001719D01*
X129633044Y-104209311D01*
X129789431Y-104543581D01*
X129828868Y-104732222D01*
X129811006Y-105129275D01*
X129640534Y-105456267D01*
X129320317Y-105706097D01*
X129138357Y-105775249D01*
X128799576Y-105768739D01*
X128448063Y-105594060D01*
X128437484Y-105586264D01*
X128274867Y-105426792D01*
X128173966Y-105258564D01*
X128153053Y-105125453D01*
X128230395Y-105071334D01*
X128286285Y-105080437D01*
X128354667Y-105156000D01*
X128376554Y-105242758D01*
X128516617Y-105404247D01*
X128737878Y-105529188D01*
X128983522Y-105579334D01*
X129060609Y-105575200D01*
X129331251Y-105477865D01*
X129516302Y-105279459D01*
X129613425Y-105017670D01*
X129620281Y-104730189D01*
X129534532Y-104454705D01*
X129353841Y-104228908D01*
X129075870Y-104090487D01*
X128988533Y-104079436D01*
X128733462Y-104135302D01*
X128506079Y-104284606D01*
X128376944Y-104487290D01*
X128357392Y-104536639D01*
X128259401Y-104630737D01*
X128151509Y-104642271D01*
X128100667Y-104554867D01*
X128118414Y-104505571D01*
X128226218Y-104353542D01*
X128399364Y-104163036D01*
X128477485Y-104086520D01*
X128654074Y-103945255D01*
X128818142Y-103895879D01*
X129040936Y-103910327D01*
G36*
X123693538Y-105547970D02*
G01*
X123411140Y-105753558D01*
X123096735Y-105805877D01*
X122785115Y-105720095D01*
X122517104Y-105521741D01*
X122329391Y-105238100D01*
X122258667Y-104896460D01*
X122259255Y-104877747D01*
X122445123Y-104877747D01*
X122505036Y-105183160D01*
X122688805Y-105431167D01*
X122784548Y-105496094D01*
X123077724Y-105580232D01*
X123371466Y-105532023D01*
X123607188Y-105356249D01*
X123706315Y-105193004D01*
X123775588Y-104896358D01*
X123737448Y-104602930D01*
X123611074Y-104345865D01*
X123415643Y-104158307D01*
X123170336Y-104073402D01*
X122894330Y-104124293D01*
X122665934Y-104291386D01*
X122501333Y-104564100D01*
X122445123Y-104877747D01*
X122259255Y-104877747D01*
X122261710Y-104799648D01*
X122350784Y-104402822D01*
X122545769Y-104109464D01*
X122823082Y-103935943D01*
X123159141Y-103898625D01*
X123530361Y-104013877D01*
X123576360Y-104038778D01*
X123799699Y-104220969D01*
X123917587Y-104474539D01*
X123952000Y-104842683D01*
X123951996Y-104845853D01*
X123942876Y-104896358D01*
X123882482Y-105230819D01*
X123693538Y-105547970D01*
G37*
X123693538Y-105547970D02*
X123411140Y-105753558D01*
X123096735Y-105805877D01*
X122785115Y-105720095D01*
X122517104Y-105521741D01*
X122329391Y-105238100D01*
X122258667Y-104896460D01*
X122259255Y-104877747D01*
X122445123Y-104877747D01*
X122505036Y-105183160D01*
X122688805Y-105431167D01*
X122784548Y-105496094D01*
X123077724Y-105580232D01*
X123371466Y-105532023D01*
X123607188Y-105356249D01*
X123706315Y-105193004D01*
X123775588Y-104896358D01*
X123737448Y-104602930D01*
X123611074Y-104345865D01*
X123415643Y-104158307D01*
X123170336Y-104073402D01*
X122894330Y-104124293D01*
X122665934Y-104291386D01*
X122501333Y-104564100D01*
X122445123Y-104877747D01*
X122259255Y-104877747D01*
X122261710Y-104799648D01*
X122350784Y-104402822D01*
X122545769Y-104109464D01*
X122823082Y-103935943D01*
X123159141Y-103898625D01*
X123530361Y-104013877D01*
X123576360Y-104038778D01*
X123799699Y-104220969D01*
X123917587Y-104474539D01*
X123952000Y-104842683D01*
X123951996Y-104845853D01*
X123942876Y-104896358D01*
X123882482Y-105230819D01*
X123693538Y-105547970D01*
G36*
X112002310Y-103918213D02*
G01*
X112238140Y-104036176D01*
X112390241Y-104251810D01*
X112427440Y-104405850D01*
X112388090Y-104609857D01*
X112210510Y-104770754D01*
X111879164Y-104908505D01*
X111762878Y-104948945D01*
X111529058Y-105070350D01*
X111442015Y-105204839D01*
X111439749Y-105316906D01*
X111523854Y-105514551D01*
X111697812Y-105614201D01*
X111918661Y-105600375D01*
X112143439Y-105457592D01*
X112171360Y-105430291D01*
X112331830Y-105295524D01*
X112438454Y-105240667D01*
X112463532Y-105245666D01*
X112484903Y-105325958D01*
X112425815Y-105466007D01*
X112313327Y-105616033D01*
X112174499Y-105726252D01*
X111955189Y-105814512D01*
X111754101Y-105810227D01*
X111501796Y-105704159D01*
X111421378Y-105658474D01*
X111286340Y-105515598D01*
X111252000Y-105291193D01*
X111262956Y-105130459D01*
X111336226Y-104959425D01*
X111508589Y-104840624D01*
X111814795Y-104740026D01*
X112006772Y-104667001D01*
X112192995Y-104516954D01*
X112249654Y-104347897D01*
X112170098Y-104192661D01*
X111947676Y-104084080D01*
X111858392Y-104068671D01*
X111700773Y-104108317D01*
X111537428Y-104272002D01*
X111426727Y-104390600D01*
X111305899Y-104452416D01*
X111262448Y-104380737D01*
X111320034Y-104185027D01*
X111320814Y-104183325D01*
X111490809Y-103988490D01*
X111735587Y-103901219D01*
X112002310Y-103918213D01*
G37*
X112002310Y-103918213D02*
X112238140Y-104036176D01*
X112390241Y-104251810D01*
X112427440Y-104405850D01*
X112388090Y-104609857D01*
X112210510Y-104770754D01*
X111879164Y-104908505D01*
X111762878Y-104948945D01*
X111529058Y-105070350D01*
X111442015Y-105204839D01*
X111439749Y-105316906D01*
X111523854Y-105514551D01*
X111697812Y-105614201D01*
X111918661Y-105600375D01*
X112143439Y-105457592D01*
X112171360Y-105430291D01*
X112331830Y-105295524D01*
X112438454Y-105240667D01*
X112463532Y-105245666D01*
X112484903Y-105325958D01*
X112425815Y-105466007D01*
X112313327Y-105616033D01*
X112174499Y-105726252D01*
X111955189Y-105814512D01*
X111754101Y-105810227D01*
X111501796Y-105704159D01*
X111421378Y-105658474D01*
X111286340Y-105515598D01*
X111252000Y-105291193D01*
X111262956Y-105130459D01*
X111336226Y-104959425D01*
X111508589Y-104840624D01*
X111814795Y-104740026D01*
X112006772Y-104667001D01*
X112192995Y-104516954D01*
X112249654Y-104347897D01*
X112170098Y-104192661D01*
X111947676Y-104084080D01*
X111858392Y-104068671D01*
X111700773Y-104108317D01*
X111537428Y-104272002D01*
X111426727Y-104390600D01*
X111305899Y-104452416D01*
X111262448Y-104380737D01*
X111320034Y-104185027D01*
X111320814Y-104183325D01*
X111490809Y-103988490D01*
X111735587Y-103901219D01*
X112002310Y-103918213D01*
G36*
X106937109Y-103886349D02*
G01*
X106977721Y-103972725D01*
X107004133Y-104180884D01*
X107016495Y-104466729D01*
X107014959Y-104786161D01*
X106999675Y-105095083D01*
X106970793Y-105349398D01*
X106928465Y-105505009D01*
X106841818Y-105616821D01*
X106653299Y-105749899D01*
X106458398Y-105794613D01*
X106149730Y-105745274D01*
X105896833Y-105566344D01*
X105836036Y-105472755D01*
X105783412Y-105299574D01*
X105756332Y-105034318D01*
X105748667Y-104638620D01*
X105749520Y-104520037D01*
X105763624Y-104186608D01*
X105792620Y-103965856D01*
X105833333Y-103886000D01*
X105839338Y-103887392D01*
X105880196Y-103985802D01*
X105907838Y-104215893D01*
X105918000Y-104544495D01*
X105920344Y-104714605D01*
X105958094Y-105121025D01*
X106049105Y-105388130D01*
X106202604Y-105534655D01*
X106427822Y-105579334D01*
X106560707Y-105565292D01*
X106702161Y-105483014D01*
X106790670Y-105305696D01*
X106836354Y-105009078D01*
X106849333Y-104568900D01*
X106849650Y-104504150D01*
X106862736Y-104181903D01*
X106892165Y-103965268D01*
X106934000Y-103886000D01*
X106937109Y-103886349D01*
G37*
X106937109Y-103886349D02*
X106977721Y-103972725D01*
X107004133Y-104180884D01*
X107016495Y-104466729D01*
X107014959Y-104786161D01*
X106999675Y-105095083D01*
X106970793Y-105349398D01*
X106928465Y-105505009D01*
X106841818Y-105616821D01*
X106653299Y-105749899D01*
X106458398Y-105794613D01*
X106149730Y-105745274D01*
X105896833Y-105566344D01*
X105836036Y-105472755D01*
X105783412Y-105299574D01*
X105756332Y-105034318D01*
X105748667Y-104638620D01*
X105749520Y-104520037D01*
X105763624Y-104186608D01*
X105792620Y-103965856D01*
X105833333Y-103886000D01*
X105839338Y-103887392D01*
X105880196Y-103985802D01*
X105907838Y-104215893D01*
X105918000Y-104544495D01*
X105920344Y-104714605D01*
X105958094Y-105121025D01*
X106049105Y-105388130D01*
X106202604Y-105534655D01*
X106427822Y-105579334D01*
X106560707Y-105565292D01*
X106702161Y-105483014D01*
X106790670Y-105305696D01*
X106836354Y-105009078D01*
X106849333Y-104568900D01*
X106849650Y-104504150D01*
X106862736Y-104181903D01*
X106892165Y-103965268D01*
X106934000Y-103886000D01*
X106937109Y-103886349D01*
G36*
X80118268Y-103912295D02*
G01*
X80449089Y-104006629D01*
X80702553Y-104220893D01*
X80857846Y-104567712D01*
X80896153Y-104823405D01*
X80843029Y-105196823D01*
X80668977Y-105508636D01*
X80391000Y-105716986D01*
X80271963Y-105759466D01*
X79918254Y-105781090D01*
X79594452Y-105663139D01*
X79340699Y-105426610D01*
X79197134Y-105092500D01*
X79142167Y-104817334D01*
X79576083Y-104817334D01*
X79738318Y-104823508D01*
X79933746Y-104854208D01*
X80010000Y-104902000D01*
X80007441Y-104913112D01*
X79909534Y-104965401D01*
X79713667Y-104986667D01*
X79593453Y-104994731D01*
X79437738Y-105066947D01*
X79434721Y-105207887D01*
X79586667Y-105410000D01*
X79689536Y-105494945D01*
X79956092Y-105591448D01*
X80223894Y-105552961D01*
X80458197Y-105398259D01*
X80624259Y-105146112D01*
X80687333Y-104815295D01*
X80622893Y-104474566D01*
X80429308Y-104222530D01*
X80119226Y-104088017D01*
X79943186Y-104072414D01*
X79777587Y-104131384D01*
X79583546Y-104299429D01*
X79443957Y-104435997D01*
X79317361Y-104540041D01*
X79260907Y-104538845D01*
X79248000Y-104443860D01*
X79254733Y-104411756D01*
X79349010Y-104265997D01*
X79519030Y-104096329D01*
X79662925Y-103986997D01*
X79865699Y-103905498D01*
X80118268Y-103912295D01*
G37*
X80118268Y-103912295D02*
X80449089Y-104006629D01*
X80702553Y-104220893D01*
X80857846Y-104567712D01*
X80896153Y-104823405D01*
X80843029Y-105196823D01*
X80668977Y-105508636D01*
X80391000Y-105716986D01*
X80271963Y-105759466D01*
X79918254Y-105781090D01*
X79594452Y-105663139D01*
X79340699Y-105426610D01*
X79197134Y-105092500D01*
X79142167Y-104817334D01*
X79576083Y-104817334D01*
X79738318Y-104823508D01*
X79933746Y-104854208D01*
X80010000Y-104902000D01*
X80007441Y-104913112D01*
X79909534Y-104965401D01*
X79713667Y-104986667D01*
X79593453Y-104994731D01*
X79437738Y-105066947D01*
X79434721Y-105207887D01*
X79586667Y-105410000D01*
X79689536Y-105494945D01*
X79956092Y-105591448D01*
X80223894Y-105552961D01*
X80458197Y-105398259D01*
X80624259Y-105146112D01*
X80687333Y-104815295D01*
X80622893Y-104474566D01*
X80429308Y-104222530D01*
X80119226Y-104088017D01*
X79943186Y-104072414D01*
X79777587Y-104131384D01*
X79583546Y-104299429D01*
X79443957Y-104435997D01*
X79317361Y-104540041D01*
X79260907Y-104538845D01*
X79248000Y-104443860D01*
X79254733Y-104411756D01*
X79349010Y-104265997D01*
X79519030Y-104096329D01*
X79662925Y-103986997D01*
X79865699Y-103905498D01*
X80118268Y-103912295D01*
G36*
X116836062Y-103997834D02*
G01*
X116888062Y-104250668D01*
X116924667Y-104654704D01*
X116967000Y-105367667D01*
X117373601Y-104626834D01*
X117470994Y-104451832D01*
X117675473Y-104113424D01*
X117823885Y-103931463D01*
X117924653Y-103908411D01*
X117986202Y-104046731D01*
X118016955Y-104348885D01*
X118025333Y-104817334D01*
X118021539Y-105109009D01*
X118001874Y-105465100D01*
X117970376Y-105675890D01*
X117932643Y-105736726D01*
X117894272Y-105642957D01*
X117860862Y-105389931D01*
X117838011Y-104972996D01*
X117813667Y-104197325D01*
X117390333Y-104972207D01*
X117353073Y-105039878D01*
X117118885Y-105433607D01*
X116941075Y-105669241D01*
X116818833Y-105747878D01*
X116810442Y-105747776D01*
X116748085Y-105727459D01*
X116707443Y-105652118D01*
X116684002Y-105493186D01*
X116673248Y-105222095D01*
X116670667Y-104810278D01*
X116670833Y-104714461D01*
X116677533Y-104316121D01*
X116695776Y-104062405D01*
X116727964Y-103932805D01*
X116776500Y-103906815D01*
X116836062Y-103997834D01*
G37*
X116836062Y-103997834D02*
X116888062Y-104250668D01*
X116924667Y-104654704D01*
X116967000Y-105367667D01*
X117373601Y-104626834D01*
X117470994Y-104451832D01*
X117675473Y-104113424D01*
X117823885Y-103931463D01*
X117924653Y-103908411D01*
X117986202Y-104046731D01*
X118016955Y-104348885D01*
X118025333Y-104817334D01*
X118021539Y-105109009D01*
X118001874Y-105465100D01*
X117970376Y-105675890D01*
X117932643Y-105736726D01*
X117894272Y-105642957D01*
X117860862Y-105389931D01*
X117838011Y-104972996D01*
X117813667Y-104197325D01*
X117390333Y-104972207D01*
X117353073Y-105039878D01*
X117118885Y-105433607D01*
X116941075Y-105669241D01*
X116818833Y-105747878D01*
X116810442Y-105747776D01*
X116748085Y-105727459D01*
X116707443Y-105652118D01*
X116684002Y-105493186D01*
X116673248Y-105222095D01*
X116670667Y-104810278D01*
X116670833Y-104714461D01*
X116677533Y-104316121D01*
X116695776Y-104062405D01*
X116727964Y-103932805D01*
X116776500Y-103906815D01*
X116836062Y-103997834D01*
G36*
X101396761Y-103933731D02*
G01*
X101443999Y-104088527D01*
X101476873Y-104388436D01*
X101497031Y-104845388D01*
X101521062Y-105748667D01*
X100967865Y-105748667D01*
X100698729Y-105738460D01*
X100492464Y-105708187D01*
X100414667Y-105664000D01*
X100443235Y-105633502D01*
X100596513Y-105594563D01*
X100838000Y-105579334D01*
X101261333Y-105579334D01*
X101261333Y-104725611D01*
X101266422Y-104327741D01*
X101283955Y-104066712D01*
X101316635Y-103933432D01*
X101367167Y-103906999D01*
X101396761Y-103933731D01*
G37*
X101396761Y-103933731D02*
X101443999Y-104088527D01*
X101476873Y-104388436D01*
X101497031Y-104845388D01*
X101521062Y-105748667D01*
X100967865Y-105748667D01*
X100698729Y-105738460D01*
X100492464Y-105708187D01*
X100414667Y-105664000D01*
X100443235Y-105633502D01*
X100596513Y-105594563D01*
X100838000Y-105579334D01*
X101261333Y-105579334D01*
X101261333Y-104725611D01*
X101266422Y-104327741D01*
X101283955Y-104066712D01*
X101316635Y-103933432D01*
X101367167Y-103906999D01*
X101396761Y-103933731D01*
G36*
X95863519Y-103887465D02*
G01*
X96141378Y-103907968D01*
X96329853Y-103945610D01*
X96409224Y-103991356D01*
X96359771Y-104036170D01*
X96161774Y-104071016D01*
X95885000Y-104097667D01*
X95860768Y-104923167D01*
X95851073Y-105150043D01*
X95826190Y-105458412D01*
X95793659Y-105670053D01*
X95758000Y-105748667D01*
X95735480Y-105716768D01*
X95701258Y-105550362D01*
X95673003Y-105273729D01*
X95655233Y-104923167D01*
X95631000Y-104097667D01*
X95354226Y-104071016D01*
X95272870Y-104061409D01*
X95124980Y-104022358D01*
X95119267Y-103976255D01*
X95236013Y-103932137D01*
X95455497Y-103899040D01*
X95758000Y-103886000D01*
X95863519Y-103887465D01*
G37*
X95863519Y-103887465D02*
X96141378Y-103907968D01*
X96329853Y-103945610D01*
X96409224Y-103991356D01*
X96359771Y-104036170D01*
X96161774Y-104071016D01*
X95885000Y-104097667D01*
X95860768Y-104923167D01*
X95851073Y-105150043D01*
X95826190Y-105458412D01*
X95793659Y-105670053D01*
X95758000Y-105748667D01*
X95735480Y-105716768D01*
X95701258Y-105550362D01*
X95673003Y-105273729D01*
X95655233Y-104923167D01*
X95631000Y-104097667D01*
X95354226Y-104071016D01*
X95272870Y-104061409D01*
X95124980Y-104022358D01*
X95119267Y-103976255D01*
X95236013Y-103932137D01*
X95455497Y-103899040D01*
X95758000Y-103886000D01*
X95863519Y-103887465D01*
G36*
X90871662Y-103916422D02*
G01*
X90903872Y-104089593D01*
X90924640Y-104397110D01*
X90932000Y-104817334D01*
X90929235Y-105084945D01*
X90913492Y-105439255D01*
X90885536Y-105667708D01*
X90847333Y-105748667D01*
X90823005Y-105718245D01*
X90790795Y-105545074D01*
X90770027Y-105237557D01*
X90762667Y-104817334D01*
X90765432Y-104549722D01*
X90781175Y-104195412D01*
X90809131Y-103966959D01*
X90847333Y-103886000D01*
X90871662Y-103916422D01*
G37*
X90871662Y-103916422D02*
X90903872Y-104089593D01*
X90924640Y-104397110D01*
X90932000Y-104817334D01*
X90929235Y-105084945D01*
X90913492Y-105439255D01*
X90885536Y-105667708D01*
X90847333Y-105748667D01*
X90823005Y-105718245D01*
X90790795Y-105545074D01*
X90770027Y-105237557D01*
X90762667Y-104817334D01*
X90765432Y-104549722D01*
X90781175Y-104195412D01*
X90809131Y-103966959D01*
X90847333Y-103886000D01*
X90871662Y-103916422D01*
G36*
X85266253Y-103913263D02*
G01*
X85311359Y-104016152D01*
X85342276Y-104254437D01*
X85361911Y-104644982D01*
X85386333Y-105415905D01*
X85794623Y-104650952D01*
X85896217Y-104463347D01*
X86098300Y-104119869D01*
X86245073Y-103934556D01*
X86344816Y-103909527D01*
X86405809Y-104046900D01*
X86436332Y-104348796D01*
X86444667Y-104817334D01*
X86440871Y-105108266D01*
X86421219Y-105463758D01*
X86389744Y-105675043D01*
X86352032Y-105737248D01*
X86313670Y-105645502D01*
X86280245Y-105394933D01*
X86257344Y-104980671D01*
X86233000Y-104212675D01*
X85817132Y-104980671D01*
X85695143Y-105200366D01*
X85500906Y-105514352D01*
X85353620Y-105692432D01*
X85242768Y-105748667D01*
X85225471Y-105748275D01*
X85161334Y-105728746D01*
X85121948Y-105658245D01*
X85102914Y-105507220D01*
X85099832Y-105246119D01*
X85108302Y-104845388D01*
X85113991Y-104669146D01*
X85139915Y-104256322D01*
X85179961Y-104004570D01*
X85234911Y-103908085D01*
X85266253Y-103913263D01*
G37*
X85266253Y-103913263D02*
X85311359Y-104016152D01*
X85342276Y-104254437D01*
X85361911Y-104644982D01*
X85386333Y-105415905D01*
X85794623Y-104650952D01*
X85896217Y-104463347D01*
X86098300Y-104119869D01*
X86245073Y-103934556D01*
X86344816Y-103909527D01*
X86405809Y-104046900D01*
X86436332Y-104348796D01*
X86444667Y-104817334D01*
X86440871Y-105108266D01*
X86421219Y-105463758D01*
X86389744Y-105675043D01*
X86352032Y-105737248D01*
X86313670Y-105645502D01*
X86280245Y-105394933D01*
X86257344Y-104980671D01*
X86233000Y-104212675D01*
X85817132Y-104980671D01*
X85695143Y-105200366D01*
X85500906Y-105514352D01*
X85353620Y-105692432D01*
X85242768Y-105748667D01*
X85225471Y-105748275D01*
X85161334Y-105728746D01*
X85121948Y-105658245D01*
X85102914Y-105507220D01*
X85099832Y-105246119D01*
X85108302Y-104845388D01*
X85113991Y-104669146D01*
X85139915Y-104256322D01*
X85179961Y-104004570D01*
X85234911Y-103908085D01*
X85266253Y-103913263D01*
G36*
X117962911Y-99497300D02*
G01*
X117727401Y-100189980D01*
X117367744Y-100823601D01*
X116872765Y-101428352D01*
X116278976Y-101964147D01*
X115589348Y-102385160D01*
X114838982Y-102651013D01*
X114388645Y-102733251D01*
X113600390Y-102772795D01*
X112812717Y-102693573D01*
X112583513Y-102644332D01*
X111838328Y-102376980D01*
X111158106Y-101968390D01*
X110560134Y-101436063D01*
X110061699Y-100797499D01*
X109680089Y-100070200D01*
X109432592Y-99271667D01*
X109364049Y-98886107D01*
X109304511Y-97982930D01*
X109305911Y-97968172D01*
X111017715Y-97968172D01*
X111062656Y-98669919D01*
X111070875Y-98717989D01*
X111262106Y-99424115D01*
X111567332Y-100007675D01*
X111990796Y-100474896D01*
X112536743Y-100832001D01*
X112780776Y-100946800D01*
X113047919Y-101038090D01*
X113328359Y-101078628D01*
X113699690Y-101085316D01*
X113709315Y-101085211D01*
X114175180Y-101062961D01*
X114536842Y-100996719D01*
X114856300Y-100868945D01*
X115195549Y-100662100D01*
X115649558Y-100261976D01*
X116018653Y-99735225D01*
X116271764Y-99123829D01*
X116401181Y-98454041D01*
X116399195Y-97752113D01*
X116258093Y-97044298D01*
X116091304Y-96629695D01*
X115753171Y-96099410D01*
X115320576Y-95651119D01*
X114829212Y-95327701D01*
X114711135Y-95276716D01*
X114222306Y-95154108D01*
X113670640Y-95121704D01*
X113118882Y-95179511D01*
X112629777Y-95327533D01*
X112607283Y-95337624D01*
X112086173Y-95664086D01*
X111655049Y-96115139D01*
X111325523Y-96666015D01*
X111109208Y-97291948D01*
X111017715Y-97968172D01*
X109305911Y-97968172D01*
X109386082Y-97122843D01*
X109599819Y-96319757D01*
X109936781Y-95587582D01*
X110388026Y-94940231D01*
X110944611Y-94391614D01*
X111597597Y-93955643D01*
X112338040Y-93646229D01*
X113157000Y-93477284D01*
X113960849Y-93451195D01*
X114798632Y-93565676D01*
X115575043Y-93824037D01*
X116272939Y-94220415D01*
X116875176Y-94748945D01*
X117126022Y-95038663D01*
X117570743Y-95697663D01*
X117876655Y-96408180D01*
X118053245Y-97195857D01*
X118110000Y-98086333D01*
X118095648Y-98454041D01*
X118085449Y-98715378D01*
X117962911Y-99497300D01*
G37*
X117962911Y-99497300D02*
X117727401Y-100189980D01*
X117367744Y-100823601D01*
X116872765Y-101428352D01*
X116278976Y-101964147D01*
X115589348Y-102385160D01*
X114838982Y-102651013D01*
X114388645Y-102733251D01*
X113600390Y-102772795D01*
X112812717Y-102693573D01*
X112583513Y-102644332D01*
X111838328Y-102376980D01*
X111158106Y-101968390D01*
X110560134Y-101436063D01*
X110061699Y-100797499D01*
X109680089Y-100070200D01*
X109432592Y-99271667D01*
X109364049Y-98886107D01*
X109304511Y-97982930D01*
X109305911Y-97968172D01*
X111017715Y-97968172D01*
X111062656Y-98669919D01*
X111070875Y-98717989D01*
X111262106Y-99424115D01*
X111567332Y-100007675D01*
X111990796Y-100474896D01*
X112536743Y-100832001D01*
X112780776Y-100946800D01*
X113047919Y-101038090D01*
X113328359Y-101078628D01*
X113699690Y-101085316D01*
X113709315Y-101085211D01*
X114175180Y-101062961D01*
X114536842Y-100996719D01*
X114856300Y-100868945D01*
X115195549Y-100662100D01*
X115649558Y-100261976D01*
X116018653Y-99735225D01*
X116271764Y-99123829D01*
X116401181Y-98454041D01*
X116399195Y-97752113D01*
X116258093Y-97044298D01*
X116091304Y-96629695D01*
X115753171Y-96099410D01*
X115320576Y-95651119D01*
X114829212Y-95327701D01*
X114711135Y-95276716D01*
X114222306Y-95154108D01*
X113670640Y-95121704D01*
X113118882Y-95179511D01*
X112629777Y-95327533D01*
X112607283Y-95337624D01*
X112086173Y-95664086D01*
X111655049Y-96115139D01*
X111325523Y-96666015D01*
X111109208Y-97291948D01*
X111017715Y-97968172D01*
X109305911Y-97968172D01*
X109386082Y-97122843D01*
X109599819Y-96319757D01*
X109936781Y-95587582D01*
X110388026Y-94940231D01*
X110944611Y-94391614D01*
X111597597Y-93955643D01*
X112338040Y-93646229D01*
X113157000Y-93477284D01*
X113960849Y-93451195D01*
X114798632Y-93565676D01*
X115575043Y-93824037D01*
X116272939Y-94220415D01*
X116875176Y-94748945D01*
X117126022Y-95038663D01*
X117570743Y-95697663D01*
X117876655Y-96408180D01*
X118053245Y-97195857D01*
X118110000Y-98086333D01*
X118095648Y-98454041D01*
X118085449Y-98715378D01*
X117962911Y-99497300D01*
G36*
X91794399Y-96668167D02*
G01*
X91795968Y-96846453D01*
X91803839Y-97635603D01*
X91812503Y-98276778D01*
X91822880Y-98787758D01*
X91835889Y-99186323D01*
X91852449Y-99490255D01*
X91873479Y-99717331D01*
X91899897Y-99885333D01*
X91932624Y-100012041D01*
X91972578Y-100115235D01*
X92175725Y-100471572D01*
X92522285Y-100818513D01*
X92961162Y-101024193D01*
X93497644Y-101092000D01*
X93765398Y-101076188D01*
X94246287Y-100941832D01*
X94633073Y-100667734D01*
X94931311Y-100250634D01*
X95165333Y-99802664D01*
X95165333Y-93556667D01*
X96858667Y-93556667D01*
X96858667Y-96713878D01*
X96858263Y-97261002D01*
X96854820Y-98077717D01*
X96846130Y-98753809D01*
X96830132Y-99307420D01*
X96804767Y-99756693D01*
X96767974Y-100119770D01*
X96717693Y-100414793D01*
X96651864Y-100659905D01*
X96568427Y-100873247D01*
X96465322Y-101072963D01*
X96340489Y-101277194D01*
X96173225Y-101518685D01*
X95702152Y-102026259D01*
X95142366Y-102400286D01*
X94468514Y-102659484D01*
X94411648Y-102674490D01*
X93913270Y-102747933D01*
X93298804Y-102754462D01*
X93037886Y-102735467D01*
X92297740Y-102582056D01*
X91649845Y-102288491D01*
X91100465Y-101859281D01*
X90655864Y-101298936D01*
X90322306Y-100611963D01*
X90316316Y-100595633D01*
X90270923Y-100462468D01*
X90233722Y-100323975D01*
X90203664Y-100161929D01*
X90179702Y-99958109D01*
X90160788Y-99694294D01*
X90145874Y-99352260D01*
X90133913Y-98913786D01*
X90123856Y-98360649D01*
X90114655Y-97674628D01*
X90105264Y-96837500D01*
X90070138Y-93556667D01*
X91767433Y-93556667D01*
X91794399Y-96668167D01*
G37*
X91794399Y-96668167D02*
X91795968Y-96846453D01*
X91803839Y-97635603D01*
X91812503Y-98276778D01*
X91822880Y-98787758D01*
X91835889Y-99186323D01*
X91852449Y-99490255D01*
X91873479Y-99717331D01*
X91899897Y-99885333D01*
X91932624Y-100012041D01*
X91972578Y-100115235D01*
X92175725Y-100471572D01*
X92522285Y-100818513D01*
X92961162Y-101024193D01*
X93497644Y-101092000D01*
X93765398Y-101076188D01*
X94246287Y-100941832D01*
X94633073Y-100667734D01*
X94931311Y-100250634D01*
X95165333Y-99802664D01*
X95165333Y-93556667D01*
X96858667Y-93556667D01*
X96858667Y-96713878D01*
X96858263Y-97261002D01*
X96854820Y-98077717D01*
X96846130Y-98753809D01*
X96830132Y-99307420D01*
X96804767Y-99756693D01*
X96767974Y-100119770D01*
X96717693Y-100414793D01*
X96651864Y-100659905D01*
X96568427Y-100873247D01*
X96465322Y-101072963D01*
X96340489Y-101277194D01*
X96173225Y-101518685D01*
X95702152Y-102026259D01*
X95142366Y-102400286D01*
X94468514Y-102659484D01*
X94411648Y-102674490D01*
X93913270Y-102747933D01*
X93298804Y-102754462D01*
X93037886Y-102735467D01*
X92297740Y-102582056D01*
X91649845Y-102288491D01*
X91100465Y-101859281D01*
X90655864Y-101298936D01*
X90322306Y-100611963D01*
X90316316Y-100595633D01*
X90270923Y-100462468D01*
X90233722Y-100323975D01*
X90203664Y-100161929D01*
X90179702Y-99958109D01*
X90160788Y-99694294D01*
X90145874Y-99352260D01*
X90133913Y-98913786D01*
X90123856Y-98360649D01*
X90114655Y-97674628D01*
X90105264Y-96837500D01*
X90070138Y-93556667D01*
X91767433Y-93556667D01*
X91794399Y-96668167D01*
G36*
X124467872Y-96837500D02*
G01*
X124475744Y-100118334D01*
X126097705Y-96837786D01*
X127719667Y-93557238D01*
X128799167Y-93556953D01*
X129878667Y-93556667D01*
X129878667Y-102700667D01*
X128185333Y-102700667D01*
X128178546Y-99377500D01*
X128171759Y-96054334D01*
X126532819Y-99377500D01*
X124893878Y-102700667D01*
X122766667Y-102700667D01*
X122766667Y-93556667D01*
X124460000Y-93556667D01*
X124467872Y-96837500D01*
G37*
X124467872Y-96837500D02*
X124475744Y-100118334D01*
X126097705Y-96837786D01*
X127719667Y-93557238D01*
X128799167Y-93556953D01*
X129878667Y-93556667D01*
X129878667Y-102700667D01*
X128185333Y-102700667D01*
X128178546Y-99377500D01*
X128171759Y-96054334D01*
X126532819Y-99377500D01*
X124893878Y-102700667D01*
X122766667Y-102700667D01*
X122766667Y-93556667D01*
X124460000Y-93556667D01*
X124467872Y-96837500D01*
G36*
X121073333Y-102706799D02*
G01*
X120247833Y-102682566D01*
X119422333Y-102658334D01*
X119400431Y-98107500D01*
X119378529Y-93556667D01*
X121073333Y-93556667D01*
X121073333Y-102706799D01*
G37*
X121073333Y-102706799D02*
X120247833Y-102682566D01*
X119422333Y-102658334D01*
X119400431Y-98107500D01*
X119378529Y-93556667D01*
X121073333Y-93556667D01*
X121073333Y-102706799D01*
G36*
X105515833Y-102682148D02*
G01*
X104901181Y-102673930D01*
X104251458Y-102662045D01*
X103733932Y-102645313D01*
X103327785Y-102620195D01*
X103012193Y-102583147D01*
X102766336Y-102530629D01*
X102569393Y-102459100D01*
X102400542Y-102365018D01*
X102238962Y-102244842D01*
X102063831Y-102095030D01*
X101768113Y-101768640D01*
X101497593Y-101270714D01*
X101346677Y-100712241D01*
X101316377Y-100127442D01*
X101344625Y-99949000D01*
X103081667Y-99949000D01*
X103081853Y-100041016D01*
X103091936Y-100315035D01*
X103133380Y-100493860D01*
X103228078Y-100636551D01*
X103397923Y-100802173D01*
X103714180Y-101092000D01*
X106341333Y-101092000D01*
X106341333Y-98806000D01*
X103714180Y-98806000D01*
X103397923Y-99095828D01*
X103346363Y-99143412D01*
X103197718Y-99297595D01*
X103118649Y-99443879D01*
X103087264Y-99641327D01*
X103081667Y-99949000D01*
X101344625Y-99949000D01*
X101407702Y-99550534D01*
X101621666Y-99015736D01*
X101959279Y-98557266D01*
X102003890Y-98513593D01*
X102273488Y-98293613D01*
X102550613Y-98118831D01*
X102875184Y-97953247D01*
X102517382Y-97680342D01*
X102419295Y-97599346D01*
X102073944Y-97188915D01*
X101830064Y-96684663D01*
X101699856Y-96133481D01*
X103316124Y-96133481D01*
X103347612Y-96528059D01*
X103507677Y-96888742D01*
X103792688Y-97173407D01*
X103886004Y-97232111D01*
X104018671Y-97293046D01*
X104183104Y-97332284D01*
X104413689Y-97354510D01*
X104744810Y-97364408D01*
X105210854Y-97366667D01*
X106341333Y-97366667D01*
X106341333Y-95165334D01*
X103899026Y-95165334D01*
X103641731Y-95422628D01*
X103416844Y-95747129D01*
X103316124Y-96133481D01*
X101699856Y-96133481D01*
X101698434Y-96127460D01*
X101689837Y-95558178D01*
X101815051Y-95017689D01*
X101884121Y-94858356D01*
X102195172Y-94383202D01*
X102611722Y-93993001D01*
X103092743Y-93729127D01*
X103095161Y-93728224D01*
X103247808Y-93675862D01*
X103406616Y-93635310D01*
X103594894Y-93605080D01*
X103835952Y-93583683D01*
X104153100Y-93569631D01*
X104569647Y-93561437D01*
X105108903Y-93557611D01*
X105794176Y-93556667D01*
X108034667Y-93556667D01*
X108034667Y-102713912D01*
X105515833Y-102682148D01*
G37*
X105515833Y-102682148D02*
X104901181Y-102673930D01*
X104251458Y-102662045D01*
X103733932Y-102645313D01*
X103327785Y-102620195D01*
X103012193Y-102583147D01*
X102766336Y-102530629D01*
X102569393Y-102459100D01*
X102400542Y-102365018D01*
X102238962Y-102244842D01*
X102063831Y-102095030D01*
X101768113Y-101768640D01*
X101497593Y-101270714D01*
X101346677Y-100712241D01*
X101316377Y-100127442D01*
X101344625Y-99949000D01*
X103081667Y-99949000D01*
X103081853Y-100041016D01*
X103091936Y-100315035D01*
X103133380Y-100493860D01*
X103228078Y-100636551D01*
X103397923Y-100802173D01*
X103714180Y-101092000D01*
X106341333Y-101092000D01*
X106341333Y-98806000D01*
X103714180Y-98806000D01*
X103397923Y-99095828D01*
X103346363Y-99143412D01*
X103197718Y-99297595D01*
X103118649Y-99443879D01*
X103087264Y-99641327D01*
X103081667Y-99949000D01*
X101344625Y-99949000D01*
X101407702Y-99550534D01*
X101621666Y-99015736D01*
X101959279Y-98557266D01*
X102003890Y-98513593D01*
X102273488Y-98293613D01*
X102550613Y-98118831D01*
X102875184Y-97953247D01*
X102517382Y-97680342D01*
X102419295Y-97599346D01*
X102073944Y-97188915D01*
X101830064Y-96684663D01*
X101699856Y-96133481D01*
X103316124Y-96133481D01*
X103347612Y-96528059D01*
X103507677Y-96888742D01*
X103792688Y-97173407D01*
X103886004Y-97232111D01*
X104018671Y-97293046D01*
X104183104Y-97332284D01*
X104413689Y-97354510D01*
X104744810Y-97364408D01*
X105210854Y-97366667D01*
X106341333Y-97366667D01*
X106341333Y-95165334D01*
X103899026Y-95165334D01*
X103641731Y-95422628D01*
X103416844Y-95747129D01*
X103316124Y-96133481D01*
X101699856Y-96133481D01*
X101698434Y-96127460D01*
X101689837Y-95558178D01*
X101815051Y-95017689D01*
X101884121Y-94858356D01*
X102195172Y-94383202D01*
X102611722Y-93993001D01*
X103092743Y-93729127D01*
X103095161Y-93728224D01*
X103247808Y-93675862D01*
X103406616Y-93635310D01*
X103594894Y-93605080D01*
X103835952Y-93583683D01*
X104153100Y-93569631D01*
X104569647Y-93561437D01*
X105108903Y-93557611D01*
X105794176Y-93556667D01*
X108034667Y-93556667D01*
X108034667Y-102713912D01*
X105515833Y-102682148D01*
G36*
X100076000Y-102700667D02*
G01*
X98382667Y-102700667D01*
X98382667Y-93556667D01*
X100076000Y-93556667D01*
X100076000Y-102700667D01*
G37*
X100076000Y-102700667D02*
X98382667Y-102700667D01*
X98382667Y-93556667D01*
X100076000Y-93556667D01*
X100076000Y-102700667D01*
G36*
X82765196Y-96795167D02*
G01*
X82851027Y-97053175D01*
X83081965Y-97744042D01*
X83295622Y-98378451D01*
X83486035Y-98939011D01*
X83647246Y-99408328D01*
X83773292Y-99769011D01*
X83858215Y-100003668D01*
X83896053Y-100094906D01*
X83906982Y-100084611D01*
X83966611Y-99952496D01*
X84070448Y-99683349D01*
X84212655Y-99293579D01*
X84387394Y-98799593D01*
X84588826Y-98217797D01*
X84811114Y-97564599D01*
X85048419Y-96856406D01*
X86145892Y-93556667D01*
X88561333Y-93556667D01*
X88561333Y-102700667D01*
X86952667Y-102700667D01*
X86952667Y-99297067D01*
X86952418Y-99006702D01*
X86949573Y-98290592D01*
X86943838Y-97639901D01*
X86935568Y-97071949D01*
X86925120Y-96604055D01*
X86912851Y-96253536D01*
X86899116Y-96037712D01*
X86884273Y-95973900D01*
X86872281Y-95997840D01*
X86810243Y-96159880D01*
X86704274Y-96457836D01*
X86560280Y-96874400D01*
X86384167Y-97392260D01*
X86181839Y-97994107D01*
X85959201Y-98662629D01*
X85722159Y-99380518D01*
X84628438Y-102706702D01*
X83190442Y-102658334D01*
X82070791Y-99271667D01*
X80951139Y-95885000D01*
X80946236Y-99292834D01*
X80941333Y-102700667D01*
X79248000Y-102700667D01*
X79248000Y-93556667D01*
X81689232Y-93556667D01*
X82765196Y-96795167D01*
G37*
X82765196Y-96795167D02*
X82851027Y-97053175D01*
X83081965Y-97744042D01*
X83295622Y-98378451D01*
X83486035Y-98939011D01*
X83647246Y-99408328D01*
X83773292Y-99769011D01*
X83858215Y-100003668D01*
X83896053Y-100094906D01*
X83906982Y-100084611D01*
X83966611Y-99952496D01*
X84070448Y-99683349D01*
X84212655Y-99293579D01*
X84387394Y-98799593D01*
X84588826Y-98217797D01*
X84811114Y-97564599D01*
X85048419Y-96856406D01*
X86145892Y-93556667D01*
X88561333Y-93556667D01*
X88561333Y-102700667D01*
X86952667Y-102700667D01*
X86952667Y-99297067D01*
X86952418Y-99006702D01*
X86949573Y-98290592D01*
X86943838Y-97639901D01*
X86935568Y-97071949D01*
X86925120Y-96604055D01*
X86912851Y-96253536D01*
X86899116Y-96037712D01*
X86884273Y-95973900D01*
X86872281Y-95997840D01*
X86810243Y-96159880D01*
X86704274Y-96457836D01*
X86560280Y-96874400D01*
X86384167Y-97392260D01*
X86181839Y-97994107D01*
X85959201Y-98662629D01*
X85722159Y-99380518D01*
X84628438Y-102706702D01*
X83190442Y-102658334D01*
X82070791Y-99271667D01*
X80951139Y-95885000D01*
X80946236Y-99292834D01*
X80941333Y-102700667D01*
X79248000Y-102700667D01*
X79248000Y-93556667D01*
X81689232Y-93556667D01*
X82765196Y-96795167D01*
G36*
X135805333Y-103124000D02*
G01*
X135805333Y-102423831D01*
X135628365Y-102648810D01*
X135604338Y-102677622D01*
X135392246Y-102871648D01*
X135141531Y-103037486D01*
X134847656Y-103154644D01*
X134379464Y-103205572D01*
X133913827Y-103109232D01*
X133475909Y-102876241D01*
X133090872Y-102517215D01*
X132783882Y-102042772D01*
X132703104Y-101870972D01*
X132619895Y-101647835D01*
X132572288Y-101415733D01*
X132550730Y-101121258D01*
X132545808Y-100722398D01*
X133942667Y-100722398D01*
X133978980Y-101114850D01*
X134095251Y-101511797D01*
X134274261Y-101824020D01*
X134498233Y-102010313D01*
X134788090Y-102096862D01*
X135157007Y-102078241D01*
X135476272Y-101917827D01*
X135710757Y-101626733D01*
X135737295Y-101559581D01*
X135786712Y-101288461D01*
X135804379Y-100935045D01*
X135791489Y-100560458D01*
X135749237Y-100225825D01*
X135678817Y-99992269D01*
X135540868Y-99783623D01*
X135247031Y-99558998D01*
X134874000Y-99483334D01*
X134760538Y-99489152D01*
X134412627Y-99601546D01*
X134155942Y-99850411D01*
X133997086Y-100226957D01*
X133942667Y-100722398D01*
X132545808Y-100722398D01*
X132545667Y-100711000D01*
X132546946Y-100481767D01*
X132560435Y-100129921D01*
X132596151Y-99865681D01*
X132663276Y-99634959D01*
X132770991Y-99383671D01*
X132870740Y-99197654D01*
X133200239Y-98799656D01*
X133608187Y-98531968D01*
X134067247Y-98399795D01*
X134550082Y-98408341D01*
X135029356Y-98562809D01*
X135477733Y-98868404D01*
X135805333Y-99164371D01*
X135805333Y-96604667D01*
X137160000Y-96604667D01*
X137160000Y-103124000D01*
X135805333Y-103124000D01*
G37*
X135805333Y-103124000D02*
X135805333Y-102423831D01*
X135628365Y-102648810D01*
X135604338Y-102677622D01*
X135392246Y-102871648D01*
X135141531Y-103037486D01*
X134847656Y-103154644D01*
X134379464Y-103205572D01*
X133913827Y-103109232D01*
X133475909Y-102876241D01*
X133090872Y-102517215D01*
X132783882Y-102042772D01*
X132703104Y-101870972D01*
X132619895Y-101647835D01*
X132572288Y-101415733D01*
X132550730Y-101121258D01*
X132545808Y-100722398D01*
X133942667Y-100722398D01*
X133978980Y-101114850D01*
X134095251Y-101511797D01*
X134274261Y-101824020D01*
X134498233Y-102010313D01*
X134788090Y-102096862D01*
X135157007Y-102078241D01*
X135476272Y-101917827D01*
X135710757Y-101626733D01*
X135737295Y-101559581D01*
X135786712Y-101288461D01*
X135804379Y-100935045D01*
X135791489Y-100560458D01*
X135749237Y-100225825D01*
X135678817Y-99992269D01*
X135540868Y-99783623D01*
X135247031Y-99558998D01*
X134874000Y-99483334D01*
X134760538Y-99489152D01*
X134412627Y-99601546D01*
X134155942Y-99850411D01*
X133997086Y-100226957D01*
X133942667Y-100722398D01*
X132545808Y-100722398D01*
X132545667Y-100711000D01*
X132546946Y-100481767D01*
X132560435Y-100129921D01*
X132596151Y-99865681D01*
X132663276Y-99634959D01*
X132770991Y-99383671D01*
X132870740Y-99197654D01*
X133200239Y-98799656D01*
X133608187Y-98531968D01*
X134067247Y-98399795D01*
X134550082Y-98408341D01*
X135029356Y-98562809D01*
X135477733Y-98868404D01*
X135805333Y-99164371D01*
X135805333Y-96604667D01*
X137160000Y-96604667D01*
X137160000Y-103124000D01*
X135805333Y-103124000D01*
G36*
X139635094Y-98816825D02*
G01*
X139657667Y-101028983D01*
X140962077Y-98816825D01*
X142266486Y-96604667D01*
X143679333Y-96604667D01*
X143679333Y-103131419D01*
X142451667Y-103081667D01*
X142451667Y-100816692D01*
X142450279Y-100221277D01*
X142446426Y-99687901D01*
X142440475Y-99238022D01*
X142432792Y-98893099D01*
X142423745Y-98674590D01*
X142413701Y-98603955D01*
X142402903Y-98619484D01*
X142320104Y-98752609D01*
X142166197Y-99006067D01*
X141952041Y-99361791D01*
X141688498Y-99801710D01*
X141386425Y-100307755D01*
X141056685Y-100861855D01*
X139737636Y-103081667D01*
X138430000Y-103131123D01*
X138430000Y-96604667D01*
X139612522Y-96604667D01*
X139635094Y-98816825D01*
G37*
X139635094Y-98816825D02*
X139657667Y-101028983D01*
X140962077Y-98816825D01*
X142266486Y-96604667D01*
X143679333Y-96604667D01*
X143679333Y-103131419D01*
X142451667Y-103081667D01*
X142451667Y-100816692D01*
X142450279Y-100221277D01*
X142446426Y-99687901D01*
X142440475Y-99238022D01*
X142432792Y-98893099D01*
X142423745Y-98674590D01*
X142413701Y-98603955D01*
X142402903Y-98619484D01*
X142320104Y-98752609D01*
X142166197Y-99006067D01*
X141952041Y-99361791D01*
X141688498Y-99801710D01*
X141386425Y-100307755D01*
X141056685Y-100861855D01*
X139737636Y-103081667D01*
X138430000Y-103131123D01*
X138430000Y-96604667D01*
X139612522Y-96604667D01*
X139635094Y-98816825D01*
G36*
X143848667Y-95227703D02*
G01*
X143778053Y-95303868D01*
X143586740Y-95334667D01*
X143576884Y-95334709D01*
X143371684Y-95374515D01*
X143280532Y-95504000D01*
X143278760Y-95510579D01*
X143205647Y-95645177D01*
X143124813Y-95662531D01*
X143086667Y-95550541D01*
X143061297Y-95466821D01*
X142938500Y-95338874D01*
X142881325Y-95303286D01*
X142835409Y-95238680D01*
X142938500Y-95161126D01*
X142997554Y-95110749D01*
X143066336Y-94944559D01*
X143067238Y-94931635D01*
X143271278Y-94931635D01*
X143318526Y-95052885D01*
X143446500Y-95149510D01*
X143549091Y-95151171D01*
X143581238Y-95069510D01*
X143476807Y-94890167D01*
X143353653Y-94763671D01*
X143277074Y-94772444D01*
X143271278Y-94931635D01*
X143067238Y-94931635D01*
X143086667Y-94653126D01*
X143092050Y-94504512D01*
X143121869Y-94310107D01*
X143169084Y-94234000D01*
X143241662Y-94284251D01*
X143376499Y-94440926D01*
X143535999Y-94659496D01*
X143688782Y-94894074D01*
X143787071Y-95069510D01*
X143803465Y-95098772D01*
X143848667Y-95227703D01*
G37*
X143848667Y-95227703D02*
X143778053Y-95303868D01*
X143586740Y-95334667D01*
X143576884Y-95334709D01*
X143371684Y-95374515D01*
X143280532Y-95504000D01*
X143278760Y-95510579D01*
X143205647Y-95645177D01*
X143124813Y-95662531D01*
X143086667Y-95550541D01*
X143061297Y-95466821D01*
X142938500Y-95338874D01*
X142881325Y-95303286D01*
X142835409Y-95238680D01*
X142938500Y-95161126D01*
X142997554Y-95110749D01*
X143066336Y-94944559D01*
X143067238Y-94931635D01*
X143271278Y-94931635D01*
X143318526Y-95052885D01*
X143446500Y-95149510D01*
X143549091Y-95151171D01*
X143581238Y-95069510D01*
X143476807Y-94890167D01*
X143353653Y-94763671D01*
X143277074Y-94772444D01*
X143271278Y-94931635D01*
X143067238Y-94931635D01*
X143086667Y-94653126D01*
X143092050Y-94504512D01*
X143121869Y-94310107D01*
X143169084Y-94234000D01*
X143241662Y-94284251D01*
X143376499Y-94440926D01*
X143535999Y-94659496D01*
X143688782Y-94894074D01*
X143787071Y-95069510D01*
X143803465Y-95098772D01*
X143848667Y-95227703D01*
G36*
X142145068Y-94238975D02*
G01*
X142261268Y-94308596D01*
X142430500Y-94444281D01*
X142589585Y-94607916D01*
X142662254Y-94734224D01*
X142632258Y-94787664D01*
X142494000Y-94742000D01*
X142487956Y-94738779D01*
X142397130Y-94703013D01*
X142348256Y-94740298D01*
X142328410Y-94882717D01*
X142324667Y-95162355D01*
X142324380Y-95228160D01*
X142310820Y-95496729D01*
X142271223Y-95634495D01*
X142197667Y-95673334D01*
X142135083Y-95643790D01*
X142095826Y-95533669D01*
X142076089Y-95313462D01*
X142070667Y-94953667D01*
X142071764Y-94820580D01*
X142083539Y-94521104D01*
X142105482Y-94313578D01*
X142134167Y-94236676D01*
X142145068Y-94238975D01*
G37*
X142145068Y-94238975D02*
X142261268Y-94308596D01*
X142430500Y-94444281D01*
X142589585Y-94607916D01*
X142662254Y-94734224D01*
X142632258Y-94787664D01*
X142494000Y-94742000D01*
X142487956Y-94738779D01*
X142397130Y-94703013D01*
X142348256Y-94740298D01*
X142328410Y-94882717D01*
X142324667Y-95162355D01*
X142324380Y-95228160D01*
X142310820Y-95496729D01*
X142271223Y-95634495D01*
X142197667Y-95673334D01*
X142135083Y-95643790D01*
X142095826Y-95533669D01*
X142076089Y-95313462D01*
X142070667Y-94953667D01*
X142071764Y-94820580D01*
X142083539Y-94521104D01*
X142105482Y-94313578D01*
X142134167Y-94236676D01*
X142145068Y-94238975D01*
%TD*%
M02*
