M48
; DRILL file {KiCad (6.0.5)} date Sat May 14 14:58:24 2022
; FORMAT={-:-/ absolute / inch / decimal}
; #@! TF.CreationDate,2022-05-14T14:58:24-07:00
; #@! TF.GenerationSoftware,Kicad,Pcbnew,(6.0.5)
; #@! TF.FileFunction,Plated,1,2,PTH
FMAT,2
INCH
; #@! TA.AperFunction,Plated,PTH,ComponentDrill
T1C0.0236
; #@! TA.AperFunction,Plated,PTH,ComponentDrill
T2C0.0276
; #@! TA.AperFunction,Plated,PTH,ComponentDrill
T3C0.0394
; #@! TA.AperFunction,Plated,PTH,ComponentDrill
T4C0.0433
; #@! TA.AperFunction,Plated,PTH,ComponentDrill
T5C0.0701
; #@! TA.AperFunction,Plated,PTH,ComponentDrill
T6C0.1063
; #@! TA.AperFunction,Plated,PTH,ComponentDrill
T7C0.1772
%
G90
G05
T2
X6.648Y-3.05
X6.65Y-2.875
X6.748Y-3.05
X6.75Y-2.875
T3
X2.1732Y-3.351
X2.1732Y-3.451
X2.1732Y-3.551
X2.1732Y-3.651
X2.1732Y-3.751
X2.1732Y-3.851
X6.7Y-2.7
X6.8Y-2.7
T4
X6.6Y-3.9366
X6.7Y-3.9366
X6.8Y-3.9366
T5
X6.6661Y-5.0
X6.6661Y-5.3906
X6.8Y-5.0
X6.8Y-5.3906
T6
X2.4362Y-4.3583
X2.4362Y-4.6417
T7
X6.7Y-3.3583
X6.7Y-3.6417
T1
G00X2.1783Y-4.2343
M15
G01X2.2217Y-4.2343
M16
G05
G00X2.1783Y-4.7657
M15
G01X2.2217Y-4.7657
M16
G05
T0
M30
