%TF.GenerationSoftware,KiCad,Pcbnew,(6.0.5)*%
%TF.CreationDate,2022-05-14T14:58:19-07:00*%
%TF.ProjectId,li-ion-horn,6c692d69-6f6e-42d6-986f-726e2e6b6963,rev?*%
%TF.SameCoordinates,Original*%
%TF.FileFunction,Soldermask,Top*%
%TF.FilePolarity,Negative*%
%FSLAX46Y46*%
G04 Gerber Fmt 4.6, Leading zero omitted, Abs format (unit mm)*
G04 Created by KiCad (PCBNEW (6.0.5)) date 2022-05-14 14:58:19*
%MOMM*%
%LPD*%
G01*
G04 APERTURE LIST*
G04 Aperture macros list*
%AMRoundRect*
0 Rectangle with rounded corners*
0 $1 Rounding radius*
0 $2 $3 $4 $5 $6 $7 $8 $9 X,Y pos of 4 corners*
0 Add a 4 corners polygon primitive as box body*
4,1,4,$2,$3,$4,$5,$6,$7,$8,$9,$2,$3,0*
0 Add four circle primitives for the rounded corners*
1,1,$1+$1,$2,$3*
1,1,$1+$1,$4,$5*
1,1,$1+$1,$6,$7*
1,1,$1+$1,$8,$9*
0 Add four rect primitives between the rounded corners*
20,1,$1+$1,$2,$3,$4,$5,0*
20,1,$1+$1,$4,$5,$6,$7,0*
20,1,$1+$1,$6,$7,$8,$9,0*
20,1,$1+$1,$8,$9,$2,$3,0*%
G04 Aperture macros list end*
%ADD10R,1.700000X1.700000*%
%ADD11O,1.700000X1.700000*%
%ADD12C,2.390000*%
%ADD13C,3.450000*%
%ADD14R,6.350000X7.340000*%
%ADD15C,2.780000*%
%ADD16C,1.400000*%
%ADD17O,1.400000X1.400000*%
%ADD18O,3.500000X3.500000*%
%ADD19R,1.905000X2.000000*%
%ADD20O,1.905000X2.000000*%
%ADD21RoundRect,1.500000X-1.500000X1.500000X-1.500000X-1.500000X1.500000X-1.500000X1.500000X1.500000X0*%
%ADD22C,6.000000*%
%ADD23R,3.716000X3.716000*%
%ADD24C,3.716000*%
%ADD25O,2.400000X1.200000*%
G04 APERTURE END LIST*
D10*
%TO.C,SW1*%
X170180000Y-68580000D03*
D11*
X172720000Y-68580000D03*
%TD*%
D12*
%TO.C,BT4*%
X144400000Y-137530000D03*
D13*
X144400000Y-74000000D03*
X160400000Y-129200000D03*
D14*
X152400000Y-140930000D03*
X152400000Y-62270000D03*
%TD*%
D10*
%TO.C,J1*%
X55200000Y-85115000D03*
D11*
X55200000Y-87655000D03*
X55200000Y-90195000D03*
X55200000Y-92735000D03*
X55200000Y-95275000D03*
X55200000Y-97815000D03*
%TD*%
D12*
%TO.C,BT1*%
X68200000Y-137530000D03*
D13*
X68200000Y-74000000D03*
X84200000Y-129200000D03*
D14*
X76200000Y-140930000D03*
X76200000Y-62270000D03*
%TD*%
D15*
%TO.C,F1*%
X172720000Y-127000000D03*
X169320000Y-127000000D03*
X172720000Y-136920000D03*
X169320000Y-136920000D03*
%TD*%
D16*
%TO.C,R2*%
X171400000Y-77470000D03*
D17*
X168860000Y-77470000D03*
%TD*%
D13*
%TO.C,BT2*%
X109600000Y-129200000D03*
D12*
X93600000Y-137530000D03*
D13*
X93600000Y-74000000D03*
D14*
X101600000Y-140930000D03*
X101600000Y-62270000D03*
%TD*%
D16*
%TO.C,R1*%
X171450000Y-73025000D03*
D17*
X168910000Y-73025000D03*
%TD*%
D18*
%TO.C,Q1*%
X170180000Y-116650000D03*
D19*
X172720000Y-99990000D03*
D20*
X170180000Y-99990000D03*
X167640000Y-99990000D03*
%TD*%
D21*
%TO.C,J3*%
X170180000Y-85300000D03*
D22*
X170180000Y-92500000D03*
%TD*%
D23*
%TO.C,J2*%
X61880000Y-117900000D03*
D24*
X61880000Y-110700000D03*
D25*
X55880000Y-121050000D03*
X55880000Y-107550000D03*
%TD*%
D13*
%TO.C,BT3*%
X119000000Y-74000000D03*
X135000000Y-129200000D03*
D12*
X119000000Y-137530000D03*
D14*
X127000000Y-140930000D03*
X127000000Y-62270000D03*
%TD*%
M02*
